<svg width="800" height="800" viewBox="0 0 800 800" fill="none" xmlns="http://www.w3.org/2000/svg">
<g clip-path="url(#clip0_1116_83)">
<path d="M400 0C620.914 0 800 179.086 800 400C800 620.914 620.914 800 400 800C179.086 800 0 620.914 0 400C0 179.086 179.086 0 400 0Z" fill="white"/>
<path d="M647.242 204L647.975 204.005C678.94 204.399 704 229.734 704 260.813V539.187C704 570.511 678.544 596 647.242 596H152.758C121.456 596 96.0001 570.511 96 539.187V260.813C96.0001 229.489 121.456 204 152.758 204H647.242ZM436.728 424.086C425.749 432.027 412.87 436.002 399.997 436.002C387.527 436.002 375.05 432.272 364.301 424.819L363.266 424.086L357.058 419.595L143.739 573.865C146.619 574.618 149.64 575.02 152.758 575.021H647.235C650.349 575.02 653.371 574.618 656.252 573.865L442.935 419.595L436.728 424.086ZM119.439 247.755C117.848 251.804 116.972 256.21 116.972 260.82V539.193C116.972 547.67 119.931 555.466 124.876 561.611L339.155 406.648L119.439 247.755ZM460.844 406.648L675.123 561.611C680.068 555.466 683.028 547.671 683.028 539.193V260.82C683.028 256.209 682.152 251.804 680.56 247.755L460.844 406.648ZM152.758 224.985C145.245 224.985 138.267 227.318 132.499 231.301L375.561 407.079L375.562 407.08C390.184 417.66 409.83 417.66 424.452 407.08L424.453 407.079L667.5 231.308C661.732 227.325 654.755 224.992 647.242 224.992H643.242V224.985H152.758Z" fill="black" stroke="black" stroke-width="8"/>
</g>
<defs>
<clipPath id="clip0_1116_83">
<rect width="800" height="800" fill="white"/>
</clipPath>
</defs>
</svg>
