<?xml version="1.0" encoding="UTF-8"?><svg id="Layer_1" xmlns="http://www.w3.org/2000/svg" viewBox="0 0 566.93 566.93"><defs><style>.cls-1{fill:#b3b6b7;}</style></defs><path class="cls-1" d="M212.38,56.58c-6.79-6.79-6.79-17.81,0-24.61,6.79-6.79,17.81-6.79,24.61,0,6.79,6.79,6.79,17.81,0,24.61-6.79,6.79-17.81,6.79-24.61,0Zm-26.33,66.3c14.02,0,25.39-11.37,25.39-25.39s-11.37-25.39-25.39-25.39-25.39,11.37-25.39,25.39,11.37,25.39,25.39,25.39Zm25.16,58.23c0-19.48-15.8-35.28-35.28-35.28s-35.28,15.8-35.28,35.28,15.8,35.28,35.28,35.28,35.28-15.8,35.28-35.28Zm213.04,21.7l-22.6-41.03c-1.36-2.39-2.16-5.16-2.16-8.1,.08-3.75,1.17-7.74,1.74-11.91,7.78-57.31-39.73-127.55-120.33-127.55-8.91,0-16.13,7.22-16.13,16.13s7.22,16.13,16.13,16.13c.86,0,1.73-.06,2.56-.19,.67-.08,1.35-.13,2.04-.13,8.91,0,16.14,7.23,16.14,16.14s-7.23,16.14-16.14,16.14c-3.47,0-6.82-1.14-9.45-3-4.41-3.12-9.78-4.97-15.59-4.97-14.93,0-27.03,12.1-27.03,27.03s12.1,27.03,27.03,27.03c6.08,0,11.87-2.14,16.38-5.53,2.62-1.9,5.84-3.01,9.32-3.01,8.79,0,15.92,7.13,15.92,15.92s-7.13,15.92-15.92,15.92c-1.8,0-3.58-.22-5.2-.78-3.93-1.45-8.16-2.29-12.6-2.29-20.08,0-36.35,16.27-36.35,36.35,0,15.21,9.35,28.22,22.61,33.64,6.72,2.88,11.44,9.55,11.44,17.33,0,10.41-8.44,18.84-18.84,18.84-4.89,0-9.38-1.86-12.73-4.91-6.86-6.69-16.23-10.82-26.57-10.82-21.04,0-38.1,17.06-38.1,38.1s17.06,38.1,38.1,38.1c24.28,0,35.04-9.34,45.27-9.34,5.46,0,9.89,4.42,9.91,9.88h0s0,.02,0,.04c0,27.82-10.88,41.89-41.31,41.89v7.27h123.36v-7.27c-30.43,0-41.31-14.07-41.31-41.89,0-.01,0-.02,0-.04,0-5.48,4.44-9.88,9.92-9.88,15.36,0,17.63,4.45,41.91,4.45,22.1,0,34.74-6.52,40.19-27,4.88-18.34,10.71-46.07,10.71-46.07,.8-3.32,3.43-5.93,6.77-6.69,7.4-1.57,12.95-8.14,12.95-16.01,0-2.87-.74-5.57-2.04-7.92ZM122.8,415h29.03l-1.94-17.73h-35.23c-9.39,0-17,7.61-17,17v69h20.89v-33.77h29.76v-17h-29.76v-13.24c0-2.35,1.9-4.25,4.25-4.25Zm102.98-17.73h-12.28c-3.5,0-6.65,2.15-7.92,5.41l-31.41,80.58h24.41l5.22-15.67h31.09l5.34,15.67h24.41l-30.94-80.54c-1.26-3.28-4.42-5.45-7.93-5.45Zm-16.87,54.54l5.47-16.39c1.7-5.1,3.52-11.66,4.62-18.47h.49c1.22,6.8,3.04,13.36,4.62,18.47l5.59,16.39h-20.77Zm225.64,9.48v-13.24h31.09v-17h-31.09v-11.78c0-2.35,1.9-4.25,4.25-4.25h30.49l-1.94-17.73h-36.69c-9.39,0-17,7.61-17,17v52c0,9.39,7.61,17,17,17h36.69l1.94-17.73h-30.49c-2.35,0-4.25-1.9-4.25-4.25Zm-78.33-4.6c-4.73,6.56-10.67,9.09-18.34,9.09-13.48,0-23.81-10.45-23.81-25.51s10.33-25.63,23.45-25.63c7.53,0,13.91,3.03,18.48,9.25,1.29,1.76,3.72,2.25,5.59,1.11l13.83-8.42c-8.02-14.57-22.11-21.74-38.63-21.74-25.51,0-45.55,18.46-45.55,45.43s19.8,45.31,45.43,45.31c16.76,0,30.61-7.04,38.99-21.62l-13.75-8.46c-1.91-1.18-4.38-.63-5.69,1.19Zm-139.32,65.99l-1.19-11.02h-17.92c-4.69,0-8.5,3.81-8.5,8.5v23.22c0,4.69,3.81,8.5,8.5,8.5h17.92l1.19-11.02h-14.43v-4.09h12.44v-10.4h-12.44v-3.69h14.43Zm149.72-11.02c-1.11,0-2.02,.9-2.02,2.02v22.25s0,.08,0,.12c-.06,6.07-9.42,6.07-9.48,0,0-.04,0-.08,0-.12v-22.25c0-1.11-.9-2.02-2.02-2.02h-11.03v21.61c0,12.67,6.55,19.54,18.54,19.54s17.04-6.87,17.04-19.54v-21.61h-11.03Zm-84.94-.01h-16.95v40.22h17.01c11.99,0,20.89-7.44,20.89-20.11s-9.08-20.11-20.95-20.11Zm-1.23,28.83h-2.54v-17.44h2.77c4.09,0,7.61,3.24,7.61,8.74s-3.47,8.7-7.84,8.7Z"/></svg>