<?xml version="1.0" encoding="utf-8"?>
<!-- Generator: Adobe Illustrator 22.0.1, SVG Export Plug-In . SVG Version: 6.00 Build 0)  -->
<svg version="1.1" id="Layer_1" xmlns="http://www.w3.org/2000/svg" xmlns:xlink="http://www.w3.org/1999/xlink" x="0px" y="0px"
	 viewBox="0 0 148.5 61.2" style="enable-background:new 0 0 148.5 61.2;" xml:space="preserve">
<style type="text/css">
	.st0{fill:#515353;}
</style>
<title>haslo_grey</title>
<path id="XMLID_2_" class="st0" d="M15,24.7c-0.9,0.2-1.7,0.4-2.4,0.7c-0.7,0.2-1.3,0.4-1.7,0.6c-0.4,0.2-0.8,0.3-1.2,0.5
	c-0.4,0.2-0.9,0.3-1.6,0.3s-1.3-0.1-1.7-0.2c-0.5-0.1-1.1-0.2-1.9-0.3c-0.8-0.1-1.4-0.1-1.7-0.1c-0.3,0-0.6,0.1-0.8,0.3
	c-0.2,0.1-0.4,0.2-0.7,0.2c-0.3,0-0.5,0-0.7-0.1c-0.2-0.1-0.3-0.2-0.5-0.4C0,26,0,25.7,0,25.2c0.1-0.4,0.2-0.7,0.4-0.9
	c0.2-0.2,0.5-0.3,0.8-0.5c0.3-0.2,1-0.7,2-1.5c1-0.8,1.7-1.5,2.3-2.1c0.6-0.5,1.2-1.1,1.9-1.7c0.7-0.6,1.2-1,1.4-1.4
	c0.3-0.3,0.1-0.4-0.3-0.4c-0.5,0.1-1.2,0.3-2.2,0.7c-1,0.4-1.6,0.7-1.8,1c-0.2,0.3-0.5,0.4-0.7,0.3c-0.2-0.1-0.4-0.2-0.5-0.4
	c-0.1-0.2-0.1-0.5-0.1-1c0.1-0.4,0.4-0.8,1-1.3c0.6-0.4,1.3-0.8,2.1-1.1c0.8-0.3,1.5-0.5,2.1-0.7C9,14.2,9.4,14,9.7,14
	c0.3,0,0.6,0,1.1,0.2c0.5,0.2,0.8,0.3,0.9,0.5c0.1,0.1,0.2,0.3,0.2,0.6c0,0.2,0,0.5,0,0.9c0,0.4-0.2,0.8-0.4,1.2
	c-0.2,0.4-0.8,1-1.6,1.8c-0.8,0.7-1.5,1.4-2.1,2c-0.6,0.6-1,1-1.3,1.3c-0.3,0.3-0.7,0.6-1.2,1c-0.5,0.4-0.5,0.5,0,0.6
	c0.5,0,1.2,0.1,2.3,0.3c1,0.2,2,0.4,2.7,0.5c0.8,0.1,1.5,0.2,2,0.1c0.5-0.1,1.3-0.2,2.4-0.5C15.8,24.5,15.9,24.4,15,24.7z
	 M20.5,15.5c0.4,0.3,1.1,0.5,2,0.6c0.9,0.1,1.1,0.9,0.5,2.3c-0.6,1.4-1,2.5-1.2,3.3c-0.2,0.8-0.3,1.4-0.2,1.8
	c0.1,0.4,0.3,0.7,0.6,0.9c0.3,0.2,0.7,0.3,1.1,0.2c0.4-0.1,0.8-0.1,1.2-0.3c0.4-0.1,0.9-0.4,1.6-0.9c0.7-0.4,1.3-1,1.9-1.6
	c0.6-0.6,1.1-1.1,1.5-1.6c0.4-0.5,0.6-0.5,0.5-0.1c0,0.4-0.1,1-0.3,1.6c-0.1,0.6-0.1,1.2,0.1,1.6c0.2,0.4,0.4,0.8,0.7,1.1
	c0.3,0.3,0.7,0.5,1.2,0.6c0.3,0.1,0.6,0.1,0.9,0c-0.1,0.1-0.1,0.3-0.1,0.4c0.1,0.6,0.4,1,0.9,1.2c0.5,0.2,0.9,0.3,1.3,0.3
	c0.4,0,0.9-0.1,1.5-0.2c0.6-0.1,1.1-0.4,1.4-0.7c0.4-0.3,0.8-0.8,1.1-1.5c0.3-0.7,0.4-1.5,0.3-2.4c-0.1-1-0.3-1.6-0.4-1.9
	c-0.1-0.2-0.1-0.4-0.1-0.7c0.5-0.3,1.1-0.8,2-1.4c2.9-2,4.2-2.8,4-2.4c-0.2,0.4-0.5,1.5-1,3.1c-0.5,1.6-0.9,2.9-1.2,3.7
	c-0.3,0.8-0.4,1.3-0.4,1.6c0.1,0.3,0.3,0.5,0.9,0.6c0.5,0.2,0.9,0.2,1,0.1c0.2-0.1,0.3-0.3,0.5-0.5c0.1-0.2,0.3-0.6,0.6-1.2
	c0.3-0.5,0.9-1.3,1.9-2.2c1-1,1.7-1.4,2.1-1.4c0.4,0,0.6,0.4,0.6,1c0,0.7-0.1,1.2-0.2,1.8c-0.1,0.5-0.2,1.1-0.3,1.7
	c-0.1,0.6-0.1,1,0,1.2c0.1,0.2,0.3,0.4,0.7,0.5c0.3,0.1,0.6-0.1,1-0.4c0.3-0.4,0.5-0.7,0.6-0.9c0.1-0.2,0.3-0.7,0.7-1.4
	c0.4-0.7,1-1.4,1.6-2c0.7-0.7,1.3-1.2,1.7-1.5c0.4-0.3,0.8-0.5,1.2-0.6c0.4-0.1,0.7,0.1,0.9,0.5c0.3,0.4,0.7,1,1.2,1.7
	c0.6,0.8,1.1,1.3,1.5,1.6c0.4,0.3,0.8,0.6,1.2,0.8c0.4,0.2,0.9,0.3,1.4,0.1c0.5-0.1,0.9-0.2,1.1-0.4c0,0,0.1,0,0.1,0
	c-0.1,0.6-0.1,0.9,0.1,1c0.1,0.1,0.4,0.1,0.7,0c0.3-0.1,0.7-0.4,1.1-1c0.3-0.4,0.5-0.8,0.7-1.3c0.2-0.1,0.5-0.3,0.7-0.4
	c0.6-0.4,0.4-0.3-0.7,0.3c0.1-0.2,0.2-0.4,0.3-0.7c0.3-0.8,0.7-1.9,1-3.2c0.3-1.3,0.7-2.3,1-3.2c0.3-0.8,0.2-1.3-0.2-1.4
	c-0.5-0.1-0.9-0.1-1.2-0.1c-0.3,0.1-0.8,0.3-1.4,0.7c-0.6,0.4-0.7,0.6-0.4,0.6c0.3,0,0.3,0.5,0,1.6c-0.3,1-0.7,2.2-1,3.7
	c-0.3,1.2-0.5,2.1-0.7,2.8c0,0,0,0-0.1,0c-0.5-0.1-1-0.4-1.7-0.9c-0.6-0.5-1.2-1.3-1.8-2.4c-0.6-1.1-1.1-1.9-1.4-2.5
	c-0.4-0.6-0.8-1-1.3-1.2c-0.5-0.2-1.1-0.1-1.8,0.2s-1.6,1-2.6,2.1c-1,1-1.5,1.5-1.6,1.5c-0.1-0.1-0.2-0.3-0.2-0.8
	c0-0.4-0.1-0.9-0.2-1.2c-0.1-0.3-0.4-0.7-1-0.9c-0.5-0.3-1.1-0.3-1.6,0c-0.6,0.3-1.3,0.9-2.2,1.9c-0.8,1-0.9,0.9-0.2-0.5
	c0.7-1.4,1.1-2.3,1-2.8c-0.1-0.5-0.2-0.8-0.2-1.1c-0.1-0.3-0.2-0.5-0.3-0.8c-0.1-0.3-0.4-0.4-0.8-0.5c-0.4,0-0.9,0.4-1.5,1.2
	c-0.6,0.8-1.5,1.7-2.8,2.6c-1.1,0.8-2.2,1.6-3.3,2.5c0-0.2,0-0.5,0.1-0.8c0.1-0.9,0.4-1.6,0.9-2.2c0.5-0.6,1-1,1.5-1
	c0.5,0,0.8-0.2,1.1-0.5c0.3-0.3,0.3-0.7,0.2-1c-0.1-0.3-0.5-0.5-1.2-0.4c-0.7,0.1-1.3,0.3-2,0.6s-1.2,0.7-1.7,1.2
	c-0.5,0.5-0.8,1-1,1.6c-0.2,0.6-0.2,1.6,0,2.8c0.2,1.3,0.3,2.1,0.4,2.4c0,0.4,0,0.8-0.2,1.2c-0.1,0.4-0.3,0.8-0.6,1.1
	c-0.3,0.3-0.6,0.5-1.1,0.7c-0.5,0.2-0.9,0.1-1.2-0.3c-0.1-0.1-0.1-0.2-0.1-0.3c0.2-0.2,0.4-0.4,0.7-0.7c0.5-0.5,1-1.2,1.6-1.9
	c0.6-0.7,0.5-0.7-0.3,0.1c-0.4,0.4-0.8,0.8-1.2,1c0.3-0.3,0.6-0.7,1.1-1.2c1.5-1.5,1.4-1.5-0.4,0.1c-0.5,0.5-1,0.9-1.3,1.3
	c-0.1,0-0.1,0-0.2,0c-0.6,0.1-1.1,0-1.4-0.4c-0.3-0.3-0.3-1-0.2-1.8c0.1-0.9,0.3-1.9,0.6-3.1c0.3-1.2,0.4-1.9,0.3-2.1
	c-0.1-0.2-0.3-0.3-0.5-0.3c-0.3-0.1-0.5,0-0.9,0.2c-0.3,0.2-1.3,1.1-3.1,2.8c-1.7,1.7-2.9,2.7-3.6,2.9c-0.7,0.2-0.7-0.5,0.1-2.2
	c0.7-1.7,1.1-2.7,1.2-3.1c0.1-0.4,0.1-0.7,0.1-1c-0.1-0.3-0.3-0.5-0.6-0.6c-0.3-0.1-0.6-0.1-1-0.1c-0.3,0.1-0.7,0.3-1.1,0.8
	c-0.4,0.4-1.1,0.5-2.1,0.1C20.3,15.2,20.1,15.2,20.5,15.5z M76.6,23.7c-0.4,0.3-1,0.5-1.6,0.8c-0.7,0.2-1.3,0.3-2,0.2
	c-0.7-0.1-1.1-0.2-1.5-0.4c-0.3-0.2-0.6-0.5-0.9-0.8c-0.3-0.3-0.5-0.6-0.7-1c-0.2-0.4-0.3-1-0.3-1.6c0-0.7,0.1-1.4,0.5-2.2
	c0.3-0.8,0.7-1.5,1.1-2c0.4-0.5,1-1.1,1.7-1.6c0.6-0.4,1.3-0.8,2-1c-0.1,0-0.1-0.1-0.2-0.1c-0.7-0.4-1.5-1.1-2.3-2
	c-0.8-0.9-1.4-1.5-1.8-2c-0.4-0.4-0.6-0.7-0.8-0.7c-0.1-0.1-0.3-0.1-0.4-0.1c-0.1,0-0.3-0.2-0.7-0.5c-0.4-0.3-0.5-0.7-0.4-1.1
	c0.1-0.4,0.2-0.8,0.4-1c0.2-0.2,0.5-0.4,0.9-0.5c0.4-0.1,0.9,0,1.2,0.3c0.3,0.3,0.6,0.9,0.7,1.9c0.1,1,0.4,1.9,1,2.9
	c0.6,0.9,1.3,1.7,2.1,2.2c0.2,0.2,0.5,0.3,0.7,0.5c1-0.1,1.7,0.1,1.9,0.5c0.2,0.4,0.3,1,0.3,1.7c0,0.7-0.3,1.3-1,1.7
	c-0.6,0.5-1.5,1-2.5,1.4c-0.3,0.1-0.5,0.2-0.8,0.2c-0.2,0-0.4,0-0.6,0c-0.1,0-0.3-0.1-0.4-0.1c-0.1,0-0.1,0-0.2,0
	c-0.3,0.5-0.4,1-0.4,1.4c0,0.5,0.1,0.9,0.5,1.3c0.3,0.4,0.7,0.6,1.1,0.7c0.4,0.1,0.8,0.1,1.2,0c0.4-0.1,1.2-0.4,2.3-0.8
	c1.1-0.5,1.9-0.9,2.4-1.3c0.3-0.3,0.5-0.5,0.8-0.8c0.1-0.5,0.2-1,0.4-1.4c0.3-0.7,0.8-1.4,1.4-2c0.6-0.7,1.7-1.3,3.2-1.9
	c1.6-0.6,2.6-0.8,3.2-0.5c0.6,0.3,0.9,0.8,0.8,1.4c0,0.6-0.6,1-1.7,1c-1.1,0-2.1,0.3-2.9,0.9c-0.8,0.5-1.3,1.3-1.6,2.4
	c-0.2,1,0,1.8,0.6,2.4c0.7,0.5,1.3,0.8,2,0.7c0.7,0,1.2-0.1,1.8-0.3c0.5-0.2,1.1-0.4,1.8-0.8c0.5-0.3,1-0.6,1.5-1
	c0.2-0.9,0.5-2,1-3.3c1-3.2,2.1-6.4,3.3-9.4c1.2-3.1,2-4.9,2.2-5.6c0.2-0.7,0.6-1.4,1.2-2.2c0.8-0.2,1.5-0.1,2.1,0.3
	c0.5,0.4,0.4,1.1-0.3,2.1c-0.7,1-1.8,3.2-3.1,6.4c-1.3,3.3-2.2,5.6-2.6,7c-0.4,1.4-0.4,1.9-0.1,1.5c0.3-0.4,0.7-0.7,1-1
	c0.3-0.3,0.7-0.6,1.1-0.9c0.4-0.3,0.8-0.5,1.1-0.7c0.3-0.1,0.7-0.3,1.1-0.3c0.4-0.1,0.8,0,1.1,0.2c0.3,0.2,0.6,0.4,0.8,0.7
	c0.2,0.3,0.3,0.8,0.3,1.6c0,0.8,0,1.6-0.1,2.4c-0.1,0.8-0.1,1.5,0,1.9c0.1,0.4,0.3,0.8,0.6,1.1c0.3,0.3,0.8,0.4,1.5,0.2
	c0.6-0.1,1.2-0.4,1.5-0.7c-0.1-0.3-0.1-0.6-0.1-1c0-0.7,0.1-1.4,0.5-2.2c0.3-0.8,0.7-1.5,1.1-2c0.4-0.5,1-1.1,1.7-1.6
	c0.7-0.5,1.5-0.9,2.5-1.1c1.1-0.1,1.7,0.1,2,0.5c0.2,0.4,0.3,1,0.3,1.7c0,0.7-0.3,1.3-1,1.7c-0.6,0.5-1.5,1-2.5,1.4
	c-0.3,0.1-0.5,0.2-0.8,0.2c-0.2,0-0.4,0-0.6,0c-0.1,0-0.3-0.1-0.4-0.1c-0.1,0-0.1,0-0.2,0c-0.3,0.5-0.4,1-0.4,1.4
	c0,0.5,0.1,0.9,0.5,1.3c0.3,0.4,0.7,0.6,1.1,0.7c0.4,0.1,0.8,0.1,1.2,0c0.4-0.1,1.2-0.4,2.3-0.8c1.1-0.5,1.9-0.9,2.4-1.3
	c0.4-0.4,0.9-0.8,1.3-1.2c0.4-0.4,0.5-0.4,0.2,0c-0.3,0.4-0.7,0.9-1.1,1.4c-0.4,0.5-1,1.1-1.6,1.6c-0.6,0.5-1.2,1-1.6,1.2
	c-0.4,0.3-1,0.5-1.6,0.8c-0.7,0.2-1.3,0.3-2,0.2c-0.7-0.1-1.1-0.2-1.5-0.4c-0.3-0.2-0.6-0.5-0.9-0.8c-0.3-0.3-0.5-0.6-0.7-1
	c0,0,0-0.1-0.1-0.1c-0.2,0.3-0.4,0.5-0.7,0.8c-0.4,0.4-1,0.7-1.6,1c-0.6,0.3-1.1,0.4-1.5,0.4c-0.4,0-0.8-0.1-1.2-0.5
	c-0.4-0.3-0.7-0.8-0.8-1.4c-0.1-0.6-0.2-1.6-0.1-2.9c0.1-1.3,0-2.1-0.3-2.3c-0.3-0.3-1,0-2.1,0.9c-1.1,0.8-2,1.8-2.5,2.8
	c-0.6,1-1,1.9-1.3,2.6c-0.3,0.7-0.6,1-1,0.9c-0.4-0.1-0.7-0.3-1-0.5c-0.2-0.3-0.3-0.6-0.3-1.1c0-0.2,0.1-0.8,0.3-1.7
	c-0.5,0.5-1.1,1-1.6,1.4c-0.7,0.6-1.4,1.1-2,1.3c-0.6,0.3-1.1,0.5-1.7,0.6c-0.5,0.1-1.2,0.1-2,0.1c-0.8-0.1-1.5-0.4-2.2-1.2
	c-0.7-0.7-1-1.6-1-2.6c0-0.2,0-0.4,0-0.6c-0.1,0.2-0.3,0.3-0.4,0.5c-0.4,0.5-1,1.1-1.6,1.6C77.5,22.9,77,23.3,76.6,23.7z
	 M108.2,17.5c0.1,0.1,0.4,0.1,0.8-0.2c0.4-0.2,0.8-0.5,1-0.7c0.3-0.2,0.3-0.5,0.1-0.7c-0.1-0.1-0.4-0.1-0.8,0.2
	c-0.4,0.2-0.8,0.5-1,0.8C108.1,17.2,108,17.4,108.2,17.5z M73.6,17.5c0.1,0.1,0.4,0.1,0.8-0.2c0.4-0.2,0.8-0.5,1-0.7
	c0.3-0.2,0.3-0.5,0.1-0.7c-0.1-0.1-0.4-0.1-0.8,0.2c-0.4,0.2-0.8,0.5-1,0.8C73.5,17.2,73.5,17.4,73.6,17.5z M113.5,18.3
	c2.9-2,4.2-2.8,4-2.4c-0.2,0.4-0.5,1.5-1,3.1c-0.5,1.6-0.9,2.9-1.2,3.7c-0.3,0.8-0.4,1.3-0.4,1.6c0.1,0.3,0.3,0.5,0.9,0.6
	c0.5,0.2,0.9,0.2,1,0.1c0.2-0.1,0.3-0.3,0.5-0.5c0.1-0.2,0.3-0.6,0.6-1.2c0.3-0.5,0.9-1.3,1.9-2.2c1-1,1.7-1.4,2.1-1.4
	c0.4,0,0.6,0.4,0.6,1c0,0.7-0.1,1.2-0.2,1.8c-0.1,0.6-0.2,1.1-0.3,1.7c-0.1,0.6-0.1,1,0,1.2c0.1,0.2,0.3,0.4,0.7,0.5
	c0.3,0.1,0.6-0.1,1-0.4c0.3-0.4,0.5-0.7,0.6-0.9c0.1-0.2,0.3-0.7,0.7-1.4c0.4-0.7,1-1.4,1.6-2c0.7-0.7,1.3-1.2,1.7-1.5
	c0.4-0.3,0.8-0.5,1.2-0.6c0.4-0.1,0.7,0.1,0.9,0.5c0.3,0.4,0.7,1,1.2,1.7c0.6,0.8,1.1,1.3,1.5,1.6c0.4,0.3,0.8,0.6,1.2,0.8
	c0.4,0.2,0.9,0.3,1.4,0.1c0.5-0.1,0.9-0.2,1.1-0.4c0.3-0.1,0.7-0.4,1.4-0.7c0.7-0.3,1.3-0.6,2-1c0.7-0.4,0.4-0.3-0.8,0.3
	c-1.2,0.6-2,0.9-2.5,0.8c-0.5-0.1-1-0.4-1.7-0.9c-0.6-0.5-1.2-1.3-1.8-2.4c-0.6-1.1-1.1-1.9-1.4-2.5c-0.4-0.6-0.8-1-1.3-1.2
	c-0.5-0.2-1.1-0.1-1.8,0.2c-0.7,0.3-1.6,1-2.6,2.1c-1,1-1.5,1.5-1.6,1.5c-0.1-0.1-0.2-0.3-0.2-0.8c0-0.4-0.1-0.9-0.2-1.2
	c-0.1-0.3-0.4-0.7-1-0.9c-0.5-0.3-1.1-0.3-1.6,0c-0.6,0.3-1.3,0.9-2.2,1.9c-0.8,1-0.9,0.9-0.2-0.5c0.7-1.4,1.1-2.3,1-2.8
	c-0.1-0.5-0.2-0.8-0.2-1.1s-0.2-0.5-0.3-0.8c-0.1-0.3-0.4-0.4-0.8-0.5c-0.4,0-0.9,0.4-1.5,1.2c-0.6,0.8-1.5,1.7-2.8,2.6
	c-1.2,0.9-2.5,1.8-3.7,2.9C109.8,20.8,110.6,20.3,113.5,18.3z M43.9,38.9c-0.7-0.2-1.4-0.6-2.2-1.2c-0.8-0.5-1.5-1.3-2.1-2.2
	c-0.6-0.9-0.9-1.9-1-2.9c-0.1-1-0.3-1.6-0.7-1.9c-0.3-0.3-0.8-0.4-1.2-0.3c-0.4,0.1-0.8,0.3-0.9,0.5c-0.2,0.2-0.3,0.5-0.4,1
	c-0.1,0.4,0,0.8,0.4,1.1c0.4,0.3,0.6,0.5,0.7,0.5c0.1,0,0.2,0.1,0.4,0.1c0.1,0.1,0.4,0.3,0.8,0.7c0.4,0.4,1,1.1,1.8,2
	c0.8,0.9,1.6,1.5,2.3,2c0.7,0.4,1.4,0.7,2.1,0.9C44.6,39.2,44.6,39.1,43.9,38.9z M35.3,38.1C34.8,38,34.4,38,34,38.1
	c-0.3,0.1-0.8,0.3-1.4,0.7c-0.6,0.4-0.7,0.6-0.4,0.6c0.3,0,0.3,0.5,0,1.6c-0.3,1-0.6,2.1-1,3.4c-0.8,0.7-1.6,1.2-2.2,1.6
	c-0.7,0.4-1.3,0.6-1.8,0.8c-0.5,0.2-1.1,0.3-1.8,0.3c-0.7,0-1.3-0.2-2-0.7C22.9,45.8,22.7,45,23,44c0.2-1,0.8-1.8,1.6-2.4
	c0.8-0.5,1.8-0.8,2.9-0.9c1.1-0.1,1.7-0.4,1.7-1c0-0.6-0.3-1.1-0.8-1.4c-0.6-0.3-1.6-0.1-3.2,0.5c-1.5,0.6-2.5,1.2-3.2,1.9
	c-0.6,0.7-1.1,1.3-1.4,2c-0.3,0.7-0.4,1.5-0.5,2.5c0,1,0.3,1.8,1,2.6c0.7,0.7,1.4,1.1,2.2,1.2c0.8,0.1,1.4,0,2-0.1
	c0.5-0.1,1.1-0.3,1.7-0.6c0.6-0.3,1.2-0.7,2-1.3c0.7-0.6,1.5-1.3,2.3-2.2c-0.3,1.4-0.6,2.4-0.7,3c-0.1,0.7-0.1,1.1,0,1.1
	c0.1,0.1,0.4,0.1,0.7,0s0.7-0.4,1.1-1c0.4-0.6,0.7-1.3,1.1-2.1c0.3-0.8,0.7-1.9,1-3.2c0.3-1.3,0.7-2.3,1-3.2
	C35.8,38.7,35.7,38.3,35.3,38.1z M58,38.1c0,0.3-0.2,0.7-0.5,0.9c-0.3,0.2-0.6,0.3-0.9,0.2c-0.3-0.1-0.6,0.4-1,1.3
	c-0.4,1-0.9,1.9-1.4,2.9c-0.5,0.9-1.1,1.7-1.5,2.3c-0.4,0.6-1.1,1.3-1.9,2c-0.8,0.7-1.4,1.1-1.8,1.2c-0.4,0.1-0.8,0.1-1.1,0
	c-0.3-0.1-0.6-0.4-0.9-0.8c-0.3-0.4-0.4-1.3-0.4-2.4c0-1.2,0.3-2.4,1.1-3.5c0.7-1.2,2-2.2,3.9-3.1c1.9-0.9,2.5-1.2,1.9-1
	c-0.6,0.3-2.9,0.6-6.8,1c-3.9,0.4-3.8,0.3,0.5-0.3c4.3-0.6,6.7-1.1,7.1-1.5c0.4-0.4,0.7-1.2,0.9-2.2c0.2-1,0.3-1.9,0.3-2.8
	c0-0.9,0-1.7-0.2-2.6c-0.1-0.9-0.5-1.7-1.2-2.6c-0.6-0.9-0.9-1.5-0.9-1.7c0.1-0.3,0.2-0.5,0.4-0.8c0.2-0.3,0.5-0.4,0.8-0.4
	c0.3,0,0.7,0.2,1,0.4c0.3,0.3,0.6,0.7,0.9,1.2c0.3,0.5,0.6,1.5,0.9,3c0.3,1.5,0.3,3,0.1,4.4c-0.2,1.4-0.3,2.3-0.4,2.6
	c-0.1,0.4,0.1,0.8,0.5,1.2C57.9,37.4,58.1,37.8,58,38.1z M52.6,41.3c0-0.2-0.2-0.3-0.5-0.1c-0.3,0.1-0.8,0.5-1.5,1.2
	c-0.7,0.7-1.1,1.2-1.4,1.8c-0.2,0.5-0.3,1-0.2,1.3c0.1,0.3,0.6,0.1,1.5-0.8c0.9-0.9,1.4-1.6,1.7-2.2C52.5,41.9,52.6,41.5,52.6,41.3z
	 M68.1,40.2c-1.7,0.1-2.7,0.1-2.9,0.2c-0.2,0.1-0.3,0.4-0.3,0.9c0,0.5,0.1,1,0.1,1.5c0,0.5,0,1.2,0,1.8c0,0.7-0.1,1.2-0.1,1.5
	c-0.1,0.3-0.2,0.7-0.4,1c-0.2,0.3-0.4,0.7-0.7,1.1c-0.3,0.4-0.7,0.8-1.2,1.1c-0.5,0.3-0.9,0.6-1.3,0.8c-0.4,0.2-0.8,0.2-1.3,0
	c-0.4-0.1-0.8-0.4-1.1-0.7c-0.3-0.3-0.5-0.7-0.7-1c-0.2-0.3-0.2-1-0.2-1.9c0-0.9,0.1-1.6,0.3-2.2c0.2-0.5,0.4-1.1,0.8-1.7
	c0.3-0.6,0.5-0.9,0.3-0.8c-0.1,0-0.2,0-0.1-0.1c0.1-0.1,0.3-0.4,0.8-1c0.5-0.6,0.9-1.1,1.2-1.3c0.3-0.3,0.7-0.5,1.1-0.5
	c0.4-0.1,0.8-0.1,1.1,0.1c0.3,0.1,0.5,0.3,0.7,0.7c0.2,0.3,0.7,0.5,1.5,0.5c0.8,0,1.8,0,3,0C70,40.2,69.8,40.2,68.1,40.2z
	 M62.5,43.2c-0.3-0.4-0.8-0.3-1.3,0.4c-0.5,0.7-0.9,1.4-1,2.2c-0.1,0.8-0.1,1.3,0.1,1.6c0.2,0.3,0.4,0.5,0.6,0.5
	c0.2,0,0.5-0.1,0.9-0.4c0.4-0.3,0.7-1,0.9-2.1C62.9,44.4,62.9,43.7,62.5,43.2z M135.8,50.3c0.4-0.2,1-0.4,1.7-0.6
	c0.7-0.2,1.5-0.4,2.4-0.7c0.9-0.2,0.7-0.2-0.4,0c-1.1,0.2-2,0.4-2.4,0.5c-0.5,0.1-1.2,0-2-0.1c-0.8-0.1-1.7-0.3-2.7-0.5
	c-1-0.2-1.8-0.3-2.3-0.3c-0.5,0-0.5-0.2,0-0.6c0.5-0.4,0.9-0.7,1.2-1c0.3-0.3,0.7-0.7,1.3-1.3c0.6-0.6,1.3-1.2,2.1-2
	c0.8-0.7,1.4-1.3,1.6-1.8c0.2-0.4,0.4-0.9,0.4-1.2c0-0.4,0-0.7,0-0.9s-0.1-0.4-0.2-0.6c-0.1-0.1-0.4-0.3-0.9-0.5
	c-0.5-0.2-0.9-0.2-1.1-0.2c-0.2,0-0.7,0.1-1.2,0.3c-0.6,0.1-1.3,0.4-2.1,0.7c-0.8,0.3-1.5,0.7-2.1,1.1c-0.4,0.3-0.7,0.5-0.8,0.8
	c-0.9,0.2-1.6,0.2-2.2-0.2c-0.6-0.4-1.3-0.7-2-0.9c-0.7-0.2-1.2-0.3-1.4-0.2c-0.2,0.1-0.5,0.2-1,0.3c-0.4,0.2-0.8,0.4-1.2,0.7
	c-0.4,0.3-0.8,0.4-1.1,0.5c-0.3,0-0.2-0.3,0.1-0.9c0.3-0.6,0.3-1.2,0.1-1.6c-0.3-0.4-0.7-0.7-1.2-0.7c-0.5-0.1-1.1,1.1-1.7,3.3
	c-0.5,2-1,3.7-1.3,5c-0.6,0.6-1.2,0.9-1.6,1c-0.4,0.1-0.8,0-1-0.1c-0.3-0.2-0.5-0.5-0.6-0.9c-0.2-0.4-0.2-0.9,0-1.4
	c0.1-0.5,0.3-0.8,0.4-0.9c0.1-0.1,0.1-0.3,0.1-0.5c0-0.2-0.2-0.5-0.4-0.8c-0.2-0.3-0.5-0.5-0.8-0.7c-0.3-0.1-1.1,0.1-2.3,0.7
	c-1.2,0.5-2.2,1.1-3,1.6c-0.8,0.5-1.4,0.9-1.7,1.2c-0.4,0.3-0.5,0.3-0.5,0.1c0.1-0.2,0.4-0.7,1-1.4c0.6-0.7,1.2-1.3,1.8-1.8
	c0.6-0.5,1.1-0.8,1.5-1c0.4-0.2,0.8-0.4,1.2-0.7c0.4-0.2,0.8-0.1,1.2,0.2c0.4,0.3,0.8,0.4,1.2,0.2c0.5-0.2,0.6-0.6,0.3-1.2
	c-0.2-0.6-0.5-1-0.8-1.2c-0.3-0.2-0.6-0.3-1.1-0.4c-0.4-0.1-0.9-0.1-1.2,0.1c-0.4,0.1-1,0.4-2,0.9c-1,0.5-1.8,1.1-2.6,1.9
	c-0.2,0.1-0.3,0.3-0.5,0.5c-1.8,0.2-3,0-3.6-0.6c-0.7-0.7-1.3-0.8-2-0.4c-0.6,0.4-1.2,0.9-1.6,1.5c-0.4,0.6-0.8,1.2-1,1.8
	c-0.2,0.6-0.5,1.3-0.8,2.1c-0.3,0.8-0.4,0.4-0.2-1.2c0.2-1.6,0.1-2.8-0.2-3.4c-0.3-0.6-0.9-0.8-1.6-0.5c-0.7,0.3-1.7,1-2.8,2.2
	c-1.2,1.1-1.7,0.8-1.7-1c0-1.8-0.1-2.8-0.5-3c-0.3-0.2-0.8-0.3-1.3-0.2C86.2,39,86,39.5,86,40.3c0,0.3,0,0.6,0.1,0.9
	c-1,0-1.7-0.1-2.3-0.1c-0.7-0.1-1.2-0.3-1.5-0.4c-0.3-0.1-0.3-0.7-0.1-1.7c0.3-1,0.5-1.8,0.6-2.4c0.2-0.6,0.3-1,0.5-1.4
	c0.2-0.3,0.2-0.7,0.1-1c-0.1-0.3-0.3-0.6-0.5-0.8c-0.2-0.2-0.5-0.3-0.9-0.4c-0.4,0-0.7,0.1-0.9,0.3c-0.2,0.2-0.4,0.7-0.5,1.4
	c-0.1,0.7-0.3,1.3-0.3,1.7c-0.1,0.4-0.3,1.2-0.6,2.5c-0.3,1.3-0.8,1.9-1.2,1.9c-0.4,0-1,0.2-1.6,0.4c-0.6,0.3-0.9,0.7-0.9,1.1
	c0,0.5,0.2,0.7,0.5,0.7c0.4,0,0.8-0.1,1.2-0.1c0.5-0.1,0.7,0,0.6,0.3c-0.1,0.3-0.3,1.1-0.9,2.4c-0.5,1.3-0.9,2.4-1.2,3.3
	c-0.3,0.9-0.3,1.4,0,1.6c0.3,0.1,0.6,0.1,1,0.1c0.3-0.1,0.7-0.2,0.9-0.4c0.2-0.2,0.4-0.6,0.7-1.2c0.2-0.6,0.6-1.7,1.3-3.4
	c0.6-1.7,1.1-2.6,1.4-2.7c0.3-0.1,0.8-0.2,1.6-0.4c0.7-0.2,1.7-0.4,3-0.6c0,0.1,0,0.2,0.1,0.3c0.1,0.3,0.1,0.6,0.2,1
	c0.1,0.4,0.1,0.9,0.2,1.7c0,0.8,0,1.5-0.3,2.3c-0.2,0.8-0.2,1.3,0,1.7c0.2,0.4,0.5,0.5,0.9,0.6c0.4,0,1.2-0.7,2.4-2.1
	c1.2-1.4,2.1-2.2,2.6-2.5c0.5-0.3,0.7,0.3,0.6,1.8c-0.1,1.5,0.1,2.5,0.4,3.1c0.3,0.6,0.6,1,0.9,1.1c0.2,0.1,0.5,0,0.9-0.3
	c0.4-0.3,0.9-1.1,1.6-2.3c0.7-1.2,1.2-2.1,1.4-2.8c0.2-0.7,0.5-1.3,0.9-2c0.4-0.7,1.2-1,2.4-1.1c0.8,0,1.7-0.1,2.6-0.3
	c-0.6,0.6-1.2,1.3-1.9,2.1c-0.9,1.2-1.4,1.9-1.6,2.3c-0.1,0.4-0.2,0.8-0.2,1.1c0,0.4,0.1,0.7,0.3,1c0.2,0.3,0.4,0.5,0.5,0.5
	c0.2,0.1,0.5,0,1.1-0.2c0.6-0.1,1.2-0.4,2-0.8c0.7-0.4,1.5-0.9,2.4-1.5c0.9-0.6,1.4-1,1.8-1.1c0.3-0.1,0.6-0.1,0.9,0.2
	c0.2,0.2,0.4,0.5,0.4,0.7c0.1,0.2,0.2,0.5,0.4,0.9c0.2,0.4,0.4,0.8,0.8,1.1c0.3,0.3,0.7,0.5,1,0.7c0.4,0.1,0.7,0.2,0.9,0.2
	c0.2,0,0.5-0.1,1-0.3c0.4-0.2,0.9-0.7,1.6-1.6c-0.4,1.3-0.6,2-0.7,2.2c-0.1,0.1-0.1,0.4,0.1,0.8c0.2,0.4,0.5,0.6,1,0.6
	c0.5,0,0.9-0.2,1-0.7c0.2-0.4,0.4-1,0.6-1.6c0.2-0.7,0.5-1.4,1-2.4c0.4-1,0.9-1.6,1.4-2c0.5-0.4,1.1-0.8,1.8-1.1
	c0.7-0.3,1.7-0.5,3-0.5c1.3,0,2.5-0.2,3.7-0.7c0,0.1-0.1,0.1-0.1,0.2c-0.1,0.4-0.1,0.7,0.1,1c0.1,0.2,0.3,0.3,0.5,0.4
	c0.2,0.1,0.4-0.1,0.7-0.3c0.2-0.3,0.8-0.6,1.8-1c1-0.4,1.7-0.6,2.2-0.7c0.5-0.1,0.6,0.1,0.3,0.4c-0.3,0.3-0.7,0.8-1.4,1.4
	c-0.7,0.6-1.3,1.2-1.9,1.7c-0.6,0.5-1.3,1.2-2.3,2.1c-1,0.8-1.6,1.3-2,1.5c-0.3,0.2-0.6,0.3-0.8,0.5c-0.2,0.2-0.3,0.5-0.4,0.9
	c-0.1,0.4,0,0.8,0.1,0.9c0.1,0.2,0.3,0.3,0.5,0.4c0.2,0.1,0.4,0.1,0.7,0.1c0.3,0,0.5-0.1,0.7-0.2c0.2-0.1,0.5-0.2,0.8-0.3
	c0.3,0,0.9,0,1.7,0.1c0.8,0.1,1.5,0.2,1.9,0.3c0.5,0.1,1,0.2,1.7,0.2c0.7,0,1.2-0.1,1.6-0.3C135,50.6,135.4,50.4,135.8,50.3z
	 M148.3,40.3c-0.2-0.3-0.5-0.4-0.9-0.5c-0.4-0.1-0.8,0-1.1,0.3c-0.3,0.3-0.8,1-1.6,2.2c-0.8,1.1-1.4,1.8-1.7,2.2
	c-0.3,0.3-0.6,0.6-1,0.9c-0.3,0.3-0.7,0.5-1.1,0.6c-0.4,0.1-0.6,0-0.7-0.5c-0.1-0.5,0.1-1.2,0.3-2.1c0.3-0.9,0.5-1.6,0.7-2
	c0.2-0.4,0.2-0.7,0.1-1c-0.1-0.3-0.3-0.4-0.6-0.4c-0.3,0-0.6,0.1-1,0.3c-0.4,0.2-0.8,0.9-1.2,2.2c-0.3,1.3-0.6,2.1-0.7,2.3
	c-0.1,0.2-0.1,0.6-0.1,1.2c0,0.5,0.1,1,0.3,1.4c0.2,0.4,0.5,0.7,1,0.9c0.5,0.2,0.9,0.3,1.4,0.3s1.1-0.3,1.8-0.8
	c0.7-0.5,1.3-1,1.6-1.3c0.3-0.3,0.7-0.6,1-0.9c0.3-0.3,0.6-0.6,0.9-0.8c0.3-0.2,0.4-0.2,0.4-0.1c0,0.1,0,0.5,0,1.2
	c0,0.7-0.2,1.7-0.5,3.1c-0.3,1.4-0.8,2.6-1.4,3.7c-0.6,1.1-1.1,1.9-1.6,2.5c-0.5,0.5-1.2,1.2-2.1,2c-0.9,0.8-1.7,1.3-2.4,1.7
	c-0.7,0.4-1.5,0.5-2.5,0.4c-1-0.1-1.3-0.7-0.8-1.8c0.5-1.1,0.3-1-0.3,0.2c-0.7,1.2-0.9,2.1-0.5,2.7c0.3,0.6,0.8,1,1.3,1.1
	c0.5,0.1,1,0.1,1.5,0c0.5-0.1,1.2-0.3,2.1-0.7c0.9-0.4,1.9-1,3.1-1.7c1.2-0.8,2.1-1.7,3-2.8c0.8-1.1,1.5-2.2,2-3.4
	c0.5-1.2,0.9-2.3,1-3.2c0.1-0.9,0.3-2.1,0.4-3.5c0.1-1.4,0.2-2.4,0.2-3.2c0-0.7,0-1.2,0-1.5C148.5,40.8,148.5,40.6,148.3,40.3z
	 M39.4,12.2c0.3-0.1,0.8-0.4,1.4-1c0.6-0.5,0.9-1.1,1-1.6c0.1-0.5,0.1-1-0.1-1.5c-0.2-0.5-0.3-0.9-0.5-1.2c-0.2-0.3-0.3-0.5-0.5-0.6
	c-0.1-0.1-0.3-0.1-0.6-0.1c-0.2,0-0.4,0.1-0.5,0.2c-0.1,0.1-0.2,0.3-0.3,0.4c-0.1,0.1-0.1,0.3-0.1,0.5c0,0.2,0.1,0.3,0.2,0.5
	c0.1,0.1,0.2,0.3,0.3,0.4c0.1,0.2,0.2,0.4,0.3,0.6c0.1,0.2,0.1,0.4,0.1,0.7c0,0.2-0.2,0.6-0.4,1.2c-0.3,0.6-0.5,0.9-0.6,1
	c-0.1,0.1-0.2,0.2-0.1,0.4C38.8,12.2,39,12.3,39.4,12.2z"/>
</svg>
