<?xml version="1.0" encoding="utf-8"?>
<!-- Generator: Adobe Illustrator 24.0.1, SVG Export Plug-In . SVG Version: 6.00 Build 0)  -->
<svg version="1.1" id="Layer_1" xmlns="http://www.w3.org/2000/svg" xmlns:xlink="http://www.w3.org/1999/xlink" x="0px" y="0px"
	 viewBox="0 0 300 300" style="enable-background:new 0 0 300 300;" xml:space="preserve">
<style type="text/css">
	.st0{fill:#FFFFFF;}
</style>
<path class="st0" d="M0,0v300h300V0H0z M211.8,216.5c0,14.3-27.4,25.8-61.2,25.8c-33.8,0-61.2-11.6-61.2-25.8v-46.3l60.7,40.1
	l61.7-40.1V216.5z M260.1,108v9.1l-14.4,8.2c1.1,2.6,1.9,6,1.9,10.5l-0.4,43.3c3.8,2.1,6.4,6.2,6.4,10.8c0,4-1.9,7.5-4.8,9.8
	c4.1,6.5,8.2,15,8.2,22.5c0,14.6-15.6,19.5-15.6,19.5s-15.6-5-15.6-19.5c0-7.4,4.2-16,8.2-22.5c-2.9-2.3-4.8-5.8-4.8-9.8
	c0-4.7,2.6-8.7,6.4-10.8c0,0-0.4-35.6-0.4-43.3c0-7.7-3.3-11.5-10.3-13.4c-11.6-3-71.3-12.9-71.3-12.9s41.2,21.8,57.1,28.5v10.9
	l-61.2,39.2l-109.9-71V108L150,57.7L260.4,108H260.1z"/>
</svg>
