<?xml version="1.0" encoding="utf-8"?>
<!-- Generator: Adobe Illustrator 24.0.1, SVG Export Plug-In . SVG Version: 6.00 Build 0)  -->
<svg version="1.1" id="Layer_1" xmlns="http://www.w3.org/2000/svg" xmlns:xlink="http://www.w3.org/1999/xlink" x="0px" y="0px"
	 viewBox="0 0 300 300" style="enable-background:new 0 0 300 300;" xml:space="preserve">
<style type="text/css">
	.st0{fill:#FFFFFF;}
</style>
<g>
	<path class="st0" d="M163.8,128.1c6.1,0,11.3-3.4,14.1-8.3c-2.2,2.9-5.8,4.9-9.8,4.9c-6.8,0-12.4-5.5-12.4-12.4
		c0-6.8,5.5-12.4,12.4-12.4c4.8,0,8.9,2.7,11,6.7c-2.2-6.3-8.2-10.9-15.3-10.9c-8.9,0-16.1,7.3-16.1,16.3
		C147.7,120.9,154.9,128.1,163.8,128.1z"/>
	<path class="st0" d="M85.5,115c4.8,0,8.9,2.7,11,6.7c-2.2-6.3-8.2-10.9-15.3-10.9c-8.9,0-16.1,7.2-16.1,16.1
		c0,8.9,7.2,16.1,16.1,16.1c6,0.2,11.4-3.2,14.1-8.1c-2.2,2.9-5.8,4.9-9.8,4.9c-6.8,0-12.4-5.5-12.4-12.4
		C73.1,120.5,78.6,115,85.5,115z"/>
	<path class="st0" d="M0,0v300h300V0H0z M32.7,127.2c0-26.7,21.7-48.4,48.4-48.4c14.8,0,28,6.7,36.9,17.2
		c6.7-18.8,24.6-32.3,45.6-32.3c26.7,0,48.4,21.7,48.4,48.4s-21.7,48.4-48.4,48.4c-14.8,0-28-6.7-36.9-17.2
		c-6.5,18.7-24.4,32.3-45.6,32.3C54.4,175.6,32.7,153.9,32.7,127.2z M206.2,205.3c0,9.3-7.5,17-17,17h-76.9c-9.3,0-17-7.5-17-17
		v-27.1c16.1-3.1,29.9-13.8,37-28.7c9.5,9.2,22.4,14.5,35.8,14.5c13.6,0,26-5.2,35.1-13.9c1.8,2.8,3,6.1,3,9.7V205.3z M215.1,201.8
		c0,2.2-1.8,4-4,4c0,0,0-1.8,0-4v-34.3c0-2.2,1.8-4,4-4c2.1,0,4,1.9,4,4L215.1,201.8z M225.3,201.8c0,2.2-1.8,4-4,4c0,0,0-1.8,0-4
		v-34.3c0-2.2,1.8-4,4-4c2.1,0,3.9,1.9,4,4L225.3,201.8z M266.1,231l-32.6-25.7c-1.2-0.7-2-1.9-2-3.4v-34.2c0-1.5,0.8-2.9,2.1-4
		c1.1-1.2,32.4-29.3,32.5-29.3V231z"/>
</g>
</svg>
