<?xml version="1.0" encoding="utf-8"?>
<!-- Generator: Adobe Illustrator 24.0.1, SVG Export Plug-In . SVG Version: 6.00 Build 0)  -->
<svg version="1.1" id="Layer_1" xmlns="http://www.w3.org/2000/svg" xmlns:xlink="http://www.w3.org/1999/xlink" x="0px" y="0px"
	 viewBox="0 0 300 300" style="enable-background:new 0 0 300 300;" xml:space="preserve">
<style type="text/css">
	.st0{fill:#40B4A6;}
	.st1{fill:#FFFFFF;}
</style>
<rect x="0" y="0" class="st0" width="300" height="300"/>
<path class="st1" d="M175.3,188c-0.9,0.4-2.2,1-3,1.7c-1.2,1.2-2,2.9-2,4.7c0,1.8,0.7,3.5,1.9,4.6c1.3,1.3,2.1,3.1,2.1,5
	c0,3.4-2.4,6.2-5.5,6.9c1.6,1.3,2.6,3.3,2.6,5.5c0,2-1.1,4.1-2.1,5c-2.8,2.5-5,4.5-4.8,9.7c0.6,15.7-9.6,19.6-22.6,19.8
	c-18,0.3-24.6-3-35.6-4.8l-21.1,24.2V38c48.1,0,87.2,48.5,81.5,90.3c-0.7,5-2.4,9.6,0,13.7l16.1,29.6c0.7,1.1,1.1,2.3,1.4,3.6
	C185.4,180.5,181.7,185.4,175.3,188z"/>
<path class="st1" d="M235.6,188c-0.9,0.4-2.2,1-3,1.7c-1.2,1.2-2,2.9-2,4.7c0,1.8,0.7,3.5,1.9,4.6c1.3,1.3,2.1,3.1,2.1,5
	c0,3.4-2.4,6.2-5.5,6.9c1.6,1.3,2.6,3.3,2.6,5.5c0,2-1.1,4.1-2.1,5c-2.8,2.5-5,4.5-4.8,9.7c0.6,15.7-9.6,19.6-22.6,19.8
	c-8.4,0.1-14.4-0.5-19.4-1.4c7.4-2.2,12.2-7.4,11.8-18.3c-0.2-5.2,2-7.2,4.8-9.7c1-0.9,2.1-3.1,2.1-5c0-2.2-1-4.2-2.6-5.5
	c3.2-0.7,5.5-3.6,5.5-6.9c0-2-0.8-3.8-2.1-5c-1.2-1.2-1.9-2.8-1.9-4.6c0-1.9,0.8-3.5,2-4.7c0.8-0.7,2.1-1.3,3-1.7
	c6.4-2.6,10.1-7.5,9-12.8c-0.3-1.3-0.7-2.5-1.4-3.6L196.9,142c-2.5-4.1-0.7-8.7,0-13.7c5.7-41.8-33.4-90.3-81.5-90.3h30.2
	c48.1,0,87.2,48.5,81.5,90.3c-0.7,5-2.4,9.6,0,13.7l16.1,29.6c0.7,1.1,1.1,2.3,1.4,3.6C245.7,180.5,242,185.4,235.6,188z"/>
</svg>
