<?xml version="1.0" encoding="utf-8"?>
<!-- Generator: Adobe Illustrator 24.0.1, SVG Export Plug-In . SVG Version: 6.00 Build 0)  -->
<svg version="1.1" id="Layer_1" xmlns="http://www.w3.org/2000/svg" xmlns:xlink="http://www.w3.org/1999/xlink" x="0px" y="0px"
	 viewBox="0 0 300 300" style="enable-background:new 0 0 300 300;" xml:space="preserve">
<style type="text/css">
	.st0{fill:#FFFFFF;}
</style>
<path class="st0" d="M209.1,164.6l-3.4,29.4c0,1.9-1.5,3.4-3.4,3.4c0,0,0-1.5,0-3.4v-29.4c0-1.9,1.5-3.4,3.4-3.4
	C207.5,161.2,209.1,162.8,209.1,164.6z M214.4,161.2c-1.9,0-3.4,1.5-3.4,3.4V194c0,1.9,0,3.4,0,3.4c1.9,0,3.4-1.5,3.4-3.4l3.4-29.4
	C217.8,162.8,216.2,161.2,214.4,161.2z M221.5,161.3c-1.1,0.9-1.8,2.1-1.8,3.4V194c0,1.3,0.7,2.3,1.7,2.9l27.9,22v-82.8
	C249.3,136.2,222.5,160.3,221.5,161.3z M90.9,171.5c-22.9,0-41.5-18.6-41.5-41.5S68,88.5,90.9,88.5c12.7,0,24,5.7,31.6,14.7
	c5.7-16.1,21.1-27.7,39.1-27.7c22.9,0,41.5,18.6,41.5,41.5s-18.6,41.5-41.5,41.5c-12.7,0-24-5.7-31.6-14.7
	C124.4,159.9,109,171.5,90.9,171.5z M147.9,117c0,7.6,6.2,13.8,13.8,13.8c5.2,0,9.7-2.9,12.1-7.1c-1.9,2.5-5,4.2-8.4,4.2
	c-5.8,0-10.6-4.7-10.6-10.6c0-5.8,4.7-10.6,10.6-10.6c4.1,0,7.6,2.3,9.4,5.7c-1.9-5.4-7-9.3-13.1-9.3
	C154.1,103.1,147.9,109.3,147.9,117z M103,136.7c-1.9,2.5-5,4.2-8.4,4.2c-5.8,0-10.6-4.7-10.6-10.6s4.7-10.6,10.6-10.6
	c4.1,0,7.6,2.3,9.4,5.7c-1.9-5.4-7-9.3-13.1-9.3c-7.6,0-13.8,6.2-13.8,13.8c0,7.6,6.2,13.8,13.8,13.8
	C96.1,143.8,100.7,140.9,103,136.7z M165.4,161.6c-11.5,0-22.5-4.5-30.7-12.4c-6.1,12.8-17.9,21.9-31.7,24.6V197
	c0,8.1,6.6,14.6,14.6,14.6h65.9c8.1,0,14.6-6.6,14.6-14.6v-39c0-3.1-1-5.9-2.6-8.3C187.7,157.1,177.1,161.6,165.4,161.6z"/>
</svg>
