<?xml version="1.0" encoding="UTF-8"?>
<svg id="Layer_1" data-name="Layer 1" xmlns="http://www.w3.org/2000/svg" version="1.1" viewBox="0 0 300 300">
  <defs>
    <style>
      .cls-1 {
        fill: #fff;
        stroke-width: 0px;
      }
    </style>
  </defs>
  <path class="cls-1" d="M201.2,69.7c-8.9,0-17.5,1.8-25.3,5-12.3-11.1-28-17.2-44.6-17.2-34.8,0-63.5,26.9-66.3,61.1-20.3,12-32.8,33.6-32.8,57.3,0,36.7,29.8,66.5,66.5,66.5s57.8-21.9,64.8-51.4c10.7,7.4,23.7,11.7,37.6,11.7,36.7,0,66.5-29.8,66.5-66.5s-29.8-66.5-66.5-66.5ZM131.3,68.3c12.6,0,24.5,4.1,34.2,11.8,0,0,0,0,0,0-18.5,11.8-30.9,32.6-30.9,56.1s5.2,29.5,14,40.7c0,0,0,0,0,0-5.6,1.8-11.4,2.7-17.3,2.7-30.7,0-55.7-25-55.7-55.7s25-55.7,55.7-55.7ZM98.8,231.7c-30.7,0-55.7-25-55.7-55.7s8.3-34,22.1-44.5c0,0,0,0,0,0,3.7,33.2,31.9,59.1,66.1,59.1s15-1.3,22.1-3.8c-5.1,25.6-28,44.8-54.6,44.8ZM201.2,192c-30.7,0-55.7-25-55.7-55.7s25-55.7,55.7-55.7,55.7,25,55.7,55.7-25,55.7-55.7,55.7Z"/>
  <path class="cls-1" d="M198.4,145.6h-13.3c-.5,0-.9,0-1.3,0-.4,0-.7,0-1.1,0-.4,0-.6,0-.9,0h0c.3-.4.6-.7.9-1.1.7-.7,1.4-1.7,2.3-2.9l14.9-21.2c.5-.7.8-1.3,1-1.9.2-.6.3-1.3.3-2.1v-.9c0-2.1-1.1-3.2-3.2-3.2h-25.1c-2.1,0-3.2,1.1-3.2,3.2v2.3c0,2.1,1.1,3.2,3.2,3.2h13.4c.4,0,.7,0,1,0,.4,0,.7,0,.9-.1h0c-.3.4-.6.7-.9,1.1-.3.3-.7.7-1.1,1.2-.4.5-.8,1-1.2,1.7l-14.8,21c-.5.7-.8,1.3-1,1.9-.2.6-.3,1.3-.3,2.1v1c0,2.1,1.1,3.2,3.2,3.2h26.2c2.1,0,3.2-1.1,3.2-3.2v-2.3c0-2.1-1.1-3.2-3.2-3.2Z"/>
  <path class="cls-1" d="M231.8,145.6h-13.8v-9.1l3.7-2.1c1.5-.9,2.2-2.1,2.2-3.9v-2.7c0-1.3-.4-2.1-1.1-2.6-.7-.4-1.6-.3-2.8.4l-2,1.2v-11c0-2.1-1.1-3.2-3.2-3.2h-3.8c-2.1,0-3.2,1.1-3.2,3.2v16.9l-1.5.9c-1,.5-1.5,1.7-1.5,3.4v2.7c0,1.3.3,2.2.8,2.6.6.5,1.2.5,1.8.2l.4-.2v8.8c0,2.1,1.1,3.2,3.2,3.2h20.9c2.1,0,3.2-1.1,3.2-3.2v-2.3c0-2.1-1.1-3.2-3.2-3.2Z"/>
</svg>