<?xml version="1.0" encoding="utf-8"?>
<!-- Generator: Adobe Illustrator 26.2.1, SVG Export Plug-In . SVG Version: 6.00 Build 0)  -->
<svg version="1.1" id="Layer_1" xmlns="http://www.w3.org/2000/svg" xmlns:xlink="http://www.w3.org/1999/xlink" x="0px" y="0px"
	 viewBox="0 0 300 300" style="enable-background:new 0 0 300 300;" xml:space="preserve">
<style type="text/css">
	.st0{fill:#FFFFFF;}
</style>
<g>
	<path class="st0" d="M149.2,196.2c-19.9,0-38.6-7.9-52.5-22.1C82.7,159.8,75.3,141,75.8,121c0-0.2,0-0.3,0-0.5
		c-19.2,11.6-32.1,32.7-32.1,56.7c0,7.3,0,16.7,0,26.1V219c0,21.1-11.5,24.4-11.5,24.4h17c14.7,0,20.5-13.6,21.1-13.1
		c11,8.2,24.7,13.1,39.5,13.1h40.9c31.6,0,58-22.1,64.6-51.7c-8,3-16.6,4.5-25.3,4.5H149.2z"/>
	<path class="st0" d="M256.2,164.5v-15.6c0-9.4,0-18.9,0-26.1c0-37.1-30.5-67.1-67.8-66.2h-40.9c-35.1,0.8-63.7,29.5-64.6,64.6
		c-0.9,37.3,29.1,67.8,66.2,67.8H190c14.8,0,28.5-4.9,39.5-13.1c0.7-0.5,6.4,13.1,21.1,13.1h17C267.8,189,256.2,185.6,256.2,164.5z
		 M151.5,83c1.8-1.8,4.5-1.8,6.3,0c1.8,1.8,1.8,4.5,0,6.3c-1.8,1.8-4.5,1.8-6.3,0C149.7,87.6,149.7,84.7,151.5,83z M144.7,93.3
		c3.6,0,6.5,2.9,6.5,6.5s-2.9,6.5-6.5,6.5c-3.6,0-6.5-2.9-6.5-6.5C138.2,96.2,141.1,93.3,144.7,93.3z M133.1,121.1c0-5,4-9,9-9
		s9,4,9,9c0,5-4,9-9,9S133.1,126,133.1,121.1z M202.7,132.7c-0.9,0.2-1.5,0.9-1.8,1.7c0,0-1.5,7.1-2.7,11.8
		c-1.4,5.2-4.6,6.9-10.2,6.9c-6.2,0-6.8-1.1-10.7-1.1c-1.4,0-2.5,1.1-2.5,2.5c0,7.1,2.8,10.7,10.6,10.7v1.9c-7.2,0-24.3,0-31.5,0
		v-1.9c7.8,0,10.6-3.6,10.6-10.7c0-1.4-1.1-2.5-2.5-2.5c-2.6,0-5.4,2.4-11.5,2.4c-5.4,0-9.7-4.4-9.7-9.7c0-5.4,4.4-9.7,9.7-9.7
		c2.6,0,5,1,6.8,2.7c0.9,0.8,2,1.3,3.2,1.3c2.7,0,4.8-2.1,4.8-4.8c0-2-1.2-3.7-2.9-4.4c-3.4-1.4-5.7-4.7-5.7-8.6
		c0-5.1,4.2-9.2,9.2-9.2c1.1,0,2.2,0.2,3.2,0.6c0.4,0.2,0.9,0.2,1.3,0.2c2.2,0,4-1.8,4-4c0-2.2-1.8-4-4-4c-0.9,0-1.7,0.3-2.4,0.8
		c-1.1,0.9-2.6,1.4-4.2,1.4c-3.8,0-6.9-3.1-6.9-6.9c0-3.8,3.1-6.9,6.9-6.9c1.5,0,2.8,0.5,4,1.3c0.7,0.5,1.5,0.8,2.4,0.8
		c2.3,0,4.1-1.9,4.1-4.1c0-2.3-1.9-4.1-4.1-4.1c-0.2,0-0.3,0-0.5,0.1c-0.2,0.1-0.4,0.1-0.7,0.1c-2.3,0-4.1-1.9-4.1-4.1
		c0-2.3,1.9-4.1,4.1-4.1c20.6,0,32.7,17.9,30.7,32.6c-0.2,1-0.4,2.1-0.4,3.1c0,0.8,0.2,1.5,0.5,2.1l5.7,10.4c0.3,0.6,0.5,1.3,0.5,2
		C206,130.6,204.6,132.3,202.7,132.7z"/>
</g>
</svg>
