<?xml version="1.0" encoding="utf-8"?>
<!-- Generator: Adobe Illustrator 24.0.1, SVG Export Plug-In . SVG Version: 6.00 Build 0)  -->
<svg version="1.1" id="Layer_1" xmlns="http://www.w3.org/2000/svg" xmlns:xlink="http://www.w3.org/1999/xlink" x="0px" y="0px"
	 viewBox="0 0 300 300" style="enable-background:new 0 0 300 300;" xml:space="preserve">
<style type="text/css">
	.st0{fill:#FFFFFF;}
</style>
<g>
	<path class="st0" d="M118.8,183.2l-0.4-8.1c-0.4-15.5,4.7-30.7,17.7-46.3c8.4-10,16.7-19.3,16.7-28.3c0-8.4-5.9-14.2-19.5-14.9
		c-10.2,0-22.4,3.4-30.7,9l-11.8-40c11.8-6.3,30.5-12.8,55.3-12.8c43.1,0,63,23,63,49.4c0,25.2-16.1,40.4-26.7,51.8
		c-10.2,10.8-14.9,22-14.9,35.4l-0.4,4.8H118.8z M110.1,226.1c0-18.9,13-31.9,31.7-32.3c18.9,0,31.7,13.4,31.9,32.3
		c0,18.3-12.8,31.9-31.9,31.9C122.9,258.1,110.1,244.4,110.1,226.1z"/>
</g>
</svg>
