<?xml version="1.0" encoding="utf-8"?>
<!-- Generator: Adobe Illustrator 24.0.2, SVG Export Plug-In . SVG Version: 6.00 Build 0)  -->
<svg version="1.1" id="Layer_1" xmlns="http://www.w3.org/2000/svg" xmlns:xlink="http://www.w3.org/1999/xlink" x="0px" y="0px"
	 viewBox="0 0 300 300" style="enable-background:new 0 0 300 300;" xml:space="preserve">
<style type="text/css">
	.st0{fill:#FFFFFF;}
</style>
<g>
	<path class="st0" d="M139.1,49.5c-18.7,0-33.8,15.1-33.8,33.8s15.1,33.8,33.8,33.8s33.8-15.1,33.8-33.8
		C172.9,64.6,157.8,49.5,139.1,49.5z M139.1,114.6c-17.3,0-31.4-14-31.4-31.4c0-17.3,14-31.4,31.4-31.4c17.3,0,31.4,14,31.4,31.4
		S156.4,114.6,139.1,114.6z"/>
	<path class="st0" d="M0,0v300h60.1V196.7h18.4V300H130V196.7h18.4V300H300V0H0z M87.7,83.1c-2.2,2.6-16,19.4-16,19.4h2.1v92h-8.7
		l0.1-92h1.7c0,0-1.5-2.6,1.8-6.2c3.5-3.7,16.8-17.7,16.8-17.7L64.7,45.1c0,0,21.9,26.7,23.9,29.2C91.4,77.6,90.4,79.8,87.7,83.1z
		 M143,122v72.3h-7.8V122c-19.7-2-35.1-18.6-35.1-38.8c0-21.5,17.4-39,39-39s39,17.4,39,39C178.1,103.5,162.7,120.1,143,122z
		 M214,296.5h-36.5v-2.8H214V296.5z M214,290.3h-36.5v-2.8H214V290.3z M214,284h-36.5v-2.8H214V284z M214,277.8h-36.5V275H214V277.8
		z M214,271.6h-36.5v-2.8H214V271.6z M214,265.3h-36.5v-2.8H214V265.3z M214,259.1h-36.5v-2.8H214V259.1z M214,252.9h-36.5v-2.8H214
		V252.9z M214,246.6h-36.5v-2.8H214V246.6z M214,240.4h-36.5v-2.8H214V240.4z M214,234.1h-36.5v-2.8H214V234.1z M214,227.9h-36.5
		v-2.8H214V227.9z M275.5,100.4c-6.6,17.3-14.7,22.7-14.7,22.7l-13-7.8l-35.7,103.9v2.6l-32.4-0.2l41.9-120.7l-14-9l3.6-12.5
		L193,70.6l19.6,5.2l5.2-11.8l60.8,12.1C278.7,76.2,282.1,83.1,275.5,100.4z"/>
</g>
</svg>
