<?xml version="1.0" encoding="utf-8"?>
<!-- Generator: Adobe Illustrator 24.0.1, SVG Export Plug-In . SVG Version: 6.00 Build 0)  -->
<svg version="1.1" id="Layer_1" xmlns="http://www.w3.org/2000/svg" xmlns:xlink="http://www.w3.org/1999/xlink" x="0px" y="0px"
	 viewBox="0 0 300 300" style="enable-background:new 0 0 300 300;" xml:space="preserve">
<style type="text/css">
	.st0{fill:#FFFFFF;}
</style>
<g>
	<path class="st0" d="M88.7,74.3c-2.1-2.5-23.9-29.2-23.9-29.2l20.8,33.5c0,0-13.4,13.9-16.8,17.7c-3.3,3.6-1.8,6.2-1.8,6.2h-1.7
		l-0.1,92h8.7v-92h-2.1c0,0,13.8-16.7,16-19.4C90.4,79.8,91.4,77.6,88.7,74.3z"/>
	<rect x="60.1" y="196.7" class="st0" width="18.4" height="103.3"/>
	<path class="st0" d="M139.1,51.9c-17.3,0-31.4,14-31.4,31.4c0,17.3,14,31.4,31.4,31.4c17.3,0,31.4-14,31.4-31.4
		C170.5,66,156.4,51.9,139.1,51.9z"/>
	<path class="st0" d="M139.1,44.3c-21.5,0-39,17.4-39,39c0,20.2,15.4,36.8,35.1,38.8v72.3h7.8V122c19.7-2,35.1-18.6,35.1-38.8
		C178.1,61.7,160.7,44.3,139.1,44.3z M139.1,117c-18.7,0-33.8-15.1-33.8-33.8c0-18.7,15.1-33.8,33.8-33.8s33.8,15.1,33.8,33.8
		C172.9,101.9,157.8,117,139.1,117z"/>
	<rect x="129.9" y="196.7" class="st0" width="18.4" height="103.3"/>
	<rect x="177.5" y="225.1" class="st0" width="36.5" height="2.8"/>
	<rect x="177.5" y="231.4" class="st0" width="36.5" height="2.8"/>
	<rect x="177.5" y="237.6" class="st0" width="36.5" height="2.8"/>
	<rect x="177.5" y="243.8" class="st0" width="36.5" height="2.8"/>
	<rect x="177.5" y="250.1" class="st0" width="36.5" height="2.8"/>
	<rect x="177.5" y="256.3" class="st0" width="36.5" height="2.8"/>
	<rect x="177.5" y="262.6" class="st0" width="36.5" height="2.8"/>
	<rect x="177.5" y="268.8" class="st0" width="36.5" height="2.8"/>
	<rect x="177.5" y="275" class="st0" width="36.5" height="2.8"/>
	<rect x="177.5" y="281.3" class="st0" width="36.5" height="2.8"/>
	<rect x="177.5" y="287.5" class="st0" width="36.5" height="2.8"/>
	<rect x="177.5" y="293.7" class="st0" width="36.5" height="2.8"/>
	<path class="st0" d="M278.7,76.2L217.9,64l-5.2,11.8l-19.6-5.2l18.2,8.8l-3.6,12.5l14,9l-41.9,120.7l32.4,0.2v-2.6l35.7-103.9
		l13,7.8c0,0,8.1-5.4,14.7-22.7C282.1,83.1,278.7,76.2,278.7,76.2z"/>
</g>
</svg>
