<?xml version="1.0" encoding="utf-8"?>
<!-- Generator: Adobe Illustrator 24.0.1, SVG Export Plug-In . SVG Version: 6.00 Build 0)  -->
<svg version="1.1" id="Layer_1" xmlns="http://www.w3.org/2000/svg" xmlns:xlink="http://www.w3.org/1999/xlink" x="0px" y="0px"
	 viewBox="0 0 300 300" style="enable-background:new 0 0 300 300;" xml:space="preserve">
<style type="text/css">
	.st0{fill:#FFFFFF;}
</style>
<path class="st0" d="M212.7,169.7c0-6.7-2.8-12.4-6.6-14.1c3.8-1.7,6.6-7.4,6.6-14.1v-60c0-13.2-4.5-24.5-13.5-34
	c-9-9.5-10.6,108.1-49.2,108.1S110.6,37.9,101.3,47.5c-9.3,9.5-14,20.7-14,33.6v60.3c0,6.7,2.8,12.4,6.6,14.1
	c-3.8,1.7-6.6,7.4-6.6,14.1c0,0-5,46.6-5,52.5c0,17.1,13.9,31,31,31c6.8,0,13.4,0,17.9,0c9,0,16.4-3.2,18.8-7.3
	c2.3,4,9.7,7.3,18.7,7.3c8.1,0,11.3,0,18,0c17.1,0,31-13.9,31-31C217.7,215.9,212.7,169.7,212.7,169.7z M185.3,239.6
	c-2.9,0-15,0-18.9,0c33.1-4.9,37.2-34,36.1-58.9c1.4,15.8,3.6,34.9,3.6,38.1C206,230.3,196.7,239.6,185.3,239.6z"/>
</svg>
