<?xml version="1.0" encoding="utf-8"?>
<!-- Generator: Adobe Illustrator 24.0.1, SVG Export Plug-In . SVG Version: 6.00 Build 0)  -->
<svg version="1.1" id="Layer_1" xmlns="http://www.w3.org/2000/svg" xmlns:xlink="http://www.w3.org/1999/xlink" x="0px" y="0px"
	 viewBox="0 0 300 300" style="enable-background:new 0 0 300 300;" xml:space="preserve">
<style type="text/css">
	.st0{fill:#FFFFFF;}
</style>
<path class="st0" d="M73.5,66.6c0-0.8,0-1.6-0.1-2.4c0.4,0.6,0.8,1.1,1.2,1.7c6.8,14,22,26.3,47.7,24.6c21.7-1.4,39-3,50.9-3.8
	c14.8-1,48.8-3.6,55.2,36.8c0,0.9,0.1,1.8,0.1,2.8c-0.2-0.3-0.4-0.6-0.7-0.9c-7.7-21.3-29.4-27.2-49.7-25.6
	c-22,1.7-32.7,2.8-53.7,4.2C94.7,105.8,80,92.9,73.5,66.6z M122.4,81.4c21.7-1.2,39-2.5,50.9-3.2c14.8-0.8,48.9-3,54.8,37.4
	c-0.6-45.3-25.1-54.5-73.6-50.8l-32.7,2.5C91.7,69.7,82.2,66.1,75,56.2C81.6,70.3,96.7,82.8,122.4,81.4z M147.7,125.8l32.7-2.9
	c30.8-2.7,40.1,1,47.5,11.3c-7.7-21.3-29.4-27.2-49.7-25.6c-22,1.7-32.7,2.8-53.7,4.2c-29.8,2-44.5-10.9-50.9-37.2
	C74.6,121.1,99.2,130.1,147.7,125.8z M272.6,209.6c-34.3,0-42.9-16.1-61.2-16.2l-0.8,0l7.5-56.1h-15.5l7.5,56.1l-15.1,0.1l7.6-56.2
	h-15.5l7.6,56.2l-15.1,0.1l7.6-56.3h-15.5l7.6,56.3l-15.1,0.1l7.6-56.3h-15.5l7.6,56.3l-15.2,0.1l7.6-56.4h-15.5l7.6,56.4l-15.2,0.1
	l7.6-56.5h-15.5l7.6,56.5l-15.2,0.1l7.6-56.6h-15.5l7.6,56.6l-15.2,0.1l7.6-56.7H94.4L102,194l-15.3,0.1l7.6-56.8H78.9l7.6,56.8
	l-3.4,0c-4.9,2-5.3,8.2-5.3,15.5c0,8.9,0.5,16.2,9.4,16.2h212.5v-16.2H272.6z"/>
</svg>
