<?xml version="1.0" encoding="utf-8"?>
<!-- Generator: Adobe Illustrator 24.0.1, SVG Export Plug-In . SVG Version: 6.00 Build 0)  -->
<svg version="1.1" id="Layer_1" xmlns="http://www.w3.org/2000/svg" xmlns:xlink="http://www.w3.org/1999/xlink" x="0px" y="0px"
	 viewBox="0 0 300 300" style="enable-background:new 0 0 300 300;" xml:space="preserve">
<style type="text/css">
	.st0{fill:#FFFFFF;}
</style>
<g>
	<path class="st0" d="M184.1,135.1c5.8,0,10.9,1.1,14.2,3.2c3.6,2.2,5.3,5.6,5.3,10.5c0,5.8-1.2,10.4-3.4,13.2
		c-2,2.6-5.2,3.8-9.5,3.8c-1.3,0-2.6-0.1-4-0.3c-3.4-0.5-7.9-3.9-11.5-8.6c-3.7-4.9-5.9-10.5-5.6-14.5
		C169.7,140.6,170.1,135.1,184.1,135.1"/>
	<path class="st0" d="M157.3,176.9c0.4,1.4,0.4,2.5,0,2.9c-0.4,0.5-1.7,1.2-5.7,1.2s-5.3-0.6-5.7-1.2c-0.3-0.5-0.3-1.5,0-2.9
		c0.3-1.1,0.6-2.4,0.9-3.8c0.8-3.5,2.8-12.3,4.8-14.6c1.9,2.3,4,11.1,4.8,14.6C156.7,174.5,157,175.8,157.3,176.9z M122.3,142.2
		c-1.6-1.1-3.6-1.8-5.7-1.8c-5.5,0-10,4.5-10,10c0,5.5,4.5,10,10,10c5.5,0,10-4.5,10-10h-10L122.3,142.2z M136.1,140.6
		c-3.7-7.4-11.2-12-19.5-12c-8.3,0-15.8,4.6-19.5,12c-0.8,1.5-0.2,3.4,1.4,4.2c0.5,0.2,0.9,0.3,1.4,0.3c1.1,0,2.2-0.6,2.8-1.7
		c2.7-5.3,8-8.6,13.9-8.6c5.9,0,11.3,3.3,13.9,8.6c0.8,1.5,2.7,2.2,4.2,1.4C136.3,144,136.9,142.1,136.1,140.6z M231.6,100.1v48
		c0,17.5-7.5,33.2-19.4,44.1l-6.6,22.8c-7.1,24.1-20.1,44.9-44.9,44.9H159c0,4.1-3.3,7.4-7.4,7.4h-9.2c-13.5,0-26.6-7.1-38-20.6
		c-8.9-10.5-16.4-24.7-20.5-38.8c0,0,0,0,0-0.1l-6.4-22.3c-8.5-2.4-11.9-14.2-13-18.3C62,159,61,150.1,61,145.3
		c0-5.7,1.1-10.6,3.1-14.4c0.6-1.1,1.3-2.1,2-2.9c-1-3.6-1.6-8.2-1.9-14.1c-0.3-6.8-0.1-12.9-0.1-14c0.1-37.1,30.3-67.3,67.4-67.3
		h20c4.1,0,7.4,3.3,7.4,7.4h12.6C204.7,40.1,231.6,67,231.6,100.1z M169.7,216.2c0-1.1-0.9-2.1-2.1-2.1h-16.1v-25.7h0
		c2.5,0,8.5,0,11.6-4.1c1.9-2.4,2.3-5.5,1.3-9.3c-0.3-1-0.6-2.3-0.9-3.6c-2.2-9.7-4.8-20.7-12-20.7h0V40.1h-20
		c-33.1,0-60,26.9-60,60c0,0-1.1,25.7,4,30.7c-3.6,0-7.1,5-7.1,14.5c0,8.7,4.2,33.2,12.1,33.2c0.8,0,1.5-0.2,2.4-0.7l8,28
		c7.1,24.1,26.6,54.1,51.4,54.1h9.2v-21.7h14.9c1,0,1.8-0.8,1.8-1.8v-6.5c0-1-0.8-1.8-1.8-1.8h-38.8v-2.3h39.9
		c1.1,0,2.1-0.9,2.1-2.1V216.2z M184.1,127.6c-39.7,0-17.1,42.4,1.5,45.2c1.8,0.3,3.5,0.4,5.1,0.4c13.7,0,20.4-9.5,20.4-24.5
		C211,132,196.5,127.6,184.1,127.6L184.1,127.6z"/>
</g>
</svg>
