<?xml version="1.0" encoding="utf-8"?>
<!-- Generator: Adobe Illustrator 24.0.1, SVG Export Plug-In . SVG Version: 6.00 Build 0)  -->
<svg version="1.1" id="Layer_1" xmlns="http://www.w3.org/2000/svg" xmlns:xlink="http://www.w3.org/1999/xlink" x="0px" y="0px"
	 viewBox="0 0 300 300" style="enable-background:new 0 0 300 300;" xml:space="preserve">
<style type="text/css">
	.st0{fill:#FFFFFF;}
</style>
<g>
	<path class="st0" d="M0,0v300h300V0H0z M186.7,253.1c-6.7,0-10,0-18,0c-8.9,0-16.4-3.3-18.7-7.3c-2.3,4-9.8,7.3-18.8,7.3
		c-4.5,0-11.2,0-17.9,0c-17.1,0-31-13.9-31-31c0-5.9,5-52.5,5-52.5c0-6.7,2.8-12.4,6.6-14.1c-3.8-1.7-6.6-7.4-6.6-14.1V81.1
		c0-12.9,4.7-24.1,14-33.6c9.3-9.5,10.1,108.1,48.7,108.1s40.2-117.6,49.2-108.1c9,9.5,13.5,20.8,13.5,34v60
		c0,6.7-2.8,12.4-6.6,14.1c3.8,1.7,6.6,7.4,6.6,14.1c0,0,5,46.2,5,52.5C217.7,239.3,203.8,253.1,186.7,253.1z"/>
	<path class="st0" d="M166.4,239.6c3.9,0,16,0,18.9,0c11.4,0,20.8-9.3,20.8-20.8c0-3.2-2.1-22.4-3.6-38.1
		C203.6,205.6,199.4,234.7,166.4,239.6z"/>
</g>
</svg>
