<?xml version="1.0" encoding="utf-8"?>
<!-- Generator: Adobe Illustrator 24.0.1, SVG Export Plug-In . SVG Version: 6.00 Build 0)  -->
<svg version="1.1" id="Layer_1" xmlns="http://www.w3.org/2000/svg" xmlns:xlink="http://www.w3.org/1999/xlink" x="0px" y="0px"
	 viewBox="0 0 300 300" style="enable-background:new 0 0 300 300;" xml:space="preserve">
<style type="text/css">
	.st0{fill:#FFFFFF;}
</style>
<g>
	<path class="st0" d="M93.3,81.1c0,3.2,2.1,22.4,3.6,38.1c-1.1-24.9,3-54,36.1-58.9c-3.9,0-16,0-18.9,0
		C102.6,60.4,93.3,69.7,93.3,81.1z"/>
	<path class="st0" d="M0,0v300h300V0H0z M212,130.3c0,6.7-5.1,14.1-10.8,14.1c-9.3,0-27.1,0-45.6,0v9.3h37.5l-1.5,5.8l-36,7.5v11
		l31.8-1.7l-2,7.9l-29.8,7.9v12.2l25.3-2.2l-2.3,9.3l-23,6.6v12.8l18.5-1.8l-2.6,10.5l-15.9,4.6v12.8l11.8-1.2l-3,11.9l-28.3,8.1
		l-4.2-16.5l11-1.1v-10.4l-12.9,3.7l-4.4-17.7l17.3-1.7v-10.4l-19,5.5l-4.9-19.6l23.9-2.1v-9.9l-25.3,6.7l-5.5-21.9l30.8-1.6v-9.1
		l-31.8,6.7l-5.7-22.6H143v-9.3c-19.1,0-36.8,0-44.4,0c-7.7,0-12-7.4-12-14.1c0,0-5-46.2-5-52.5c0-17.1,13.9-31,31-31
		c6.7,0,10,0,18,0c8.9,0,16.4,3.3,18.7,7.3c2.3-4,9.8-7.3,18.8-7.3c4.5,0,11.2,0,17.9,0c17.1,0,31,13.9,31,31
		C217,83.8,212,130.3,212,130.3z"/>
</g>
</svg>
