<?xml version="1.0" encoding="utf-8"?>
<!-- Generator: Adobe Illustrator 24.0.2, SVG Export Plug-In . SVG Version: 6.00 Build 0)  -->
<svg version="1.1" id="Layer_1" xmlns="http://www.w3.org/2000/svg" xmlns:xlink="http://www.w3.org/1999/xlink" x="0px" y="0px"
	 viewBox="0 0 300 300" style="enable-background:new 0 0 300 300;" xml:space="preserve">
<style type="text/css">
	.st0{fill:#FFFFFF;}
</style>
<g>
	<polygon class="st0" points="163.9,193.6 156.3,137.3 148.7,193.7 	"/>
	<polygon class="st0" points="179.3,193.5 171.8,137.3 164.2,193.6 	"/>
	<path class="st0" d="M87.4,225.8c-8.9,0-9.4-7.3-9.4-16.2c0-7.3,0.3-13.4,5.3-15.5h3.4l-7.6-56.8h15.5h15.5h15.5h15.5h15.5h15.5
		h15.5h15.5h15.5l-7.5,56.1h0.8c18.3,0.1,26.9,16.2,61.2,16.2H300V0H0v300h300v-74.2H87.4z M121.8,67.4l32.7-2.5
		c48.5-3.7,73,5.5,73.6,50.8c-5.9-40.4-40-38.3-54.8-37.4c-11.9,0.7-29.2,2-50.9,3.2C96.7,82.8,81.6,70.3,75,56.2
		C82.2,66.1,91.7,69.7,121.8,67.4z M74.6,65.9c6.8,14,22,26.3,47.7,24.6c21.7-1.4,39-3,50.9-3.8c14.8-1,48.8-3.6,55.2,36.8
		c0,0.9,0.1,1.8,0.1,2.8c-0.2-0.3-0.4-0.6-0.7-0.9c-7.7-21.3-29.4-27.2-49.7-25.6c-22,1.7-32.7,2.8-53.7,4.2
		c-29.8,2-44.5-10.9-50.9-37.2c0-0.8,0-1.6-0.1-2.4C73.9,64.8,74.2,65.4,74.6,65.9z M124.4,112.7c21.1-1.4,31.7-2.4,53.7-4.2
		c20.3-1.6,42,4.3,49.7,25.6c-7.4-10.4-16.7-14.1-47.5-11.3l-32.7,2.9C99.1,130,74.5,121,73.4,75.5C80,101.8,94.7,114.7,124.4,112.7
		z"/>
	<polygon class="st0" points="148.4,193.7 140.8,137.3 133.2,193.8 	"/>
	<polygon class="st0" points="210.2,193.4 202.7,137.3 195.1,193.5 	"/>
	<polygon class="st0" points="194.8,193.5 187.2,137.3 179.7,193.5 	"/>
	<polygon class="st0" points="133,193.8 125.4,137.3 117.7,193.9 	"/>
	<polygon class="st0" points="117.5,193.9 109.9,137.3 102.3,194 	"/>
	<polygon class="st0" points="102,194 94.4,137.3 86.8,194.1 	"/>
</g>
</svg>
