<?xml version="1.0" encoding="utf-8"?>
<!-- Generator: Adobe Illustrator 27.5.0, SVG Export Plug-In . SVG Version: 6.00 Build 0)  -->
<svg version="1.1" id="Layer_1" xmlns="http://www.w3.org/2000/svg" xmlns:xlink="http://www.w3.org/1999/xlink" x="0px" y="0px"
	 viewBox="0 0 868.5 866.5" style="enable-background:new 0 0 868.5 866.5;" xml:space="preserve">
<style type="text/css">
	.st0{fill:#FFFFFF;}
</style>
<path class="st0" d="M640.8,722.1c15.4,4.6,29.7-9.2,25.9-24.7c-0.6-2.4-1.5-4.7-2.4-6.9c-8.2-20-16.3-40.1-24.8-60
	c-1.8-4.2-4.6-8.2-7.7-11.4c-13-13.4-26.3-26.5-39.6-39.7c-21.6-21.6-43.1-43.1-64.6-64.7c-1.7-1.8-4.4-3.1-4.2-7.1
	c2.9,0,5.6,0,8.2,0c16.5,0,32.9,0.2,49.4,0c61.7-0.9,108.9-48.8,109-110.4c0-43.3,0-86.5,0-129.8c0-54.5-38.3-99.7-92-108.3
	c-7.7-1.2-15.7-1.6-23.5-1.7c-19.7-0.2-39.3-0.1-59-0.1c-2.9,0-5.8-0.3-9.6-0.5c-0.1-10.5-0.3-20.4-0.4-30.8c-41.8,0-82.5,0-124.6,0
	c-1.8,10.3,0.4,20.6-1.5,31.3c-3.7,0-6.6,0-9.6,0c-19.9,0-39.8-0.4-59.7,0.2c-10.5,0.3-21.2,1.1-31.4,3.6
	c-48.4,11.6-82.7,55.5-82.8,105.5c-0.1,116,0,232.1,0,348.1c0,5.1,0.5,10.3,1.2,15.4c5.7,42.5,43.4,78.1,86.1,81.4
	c2.8,0.2,5.7,0,9.6,0c0-4.7,0-8.3,0-11.9c0-140.9,0-281.7,0-422.6c0-2.5,0-4.9,0-7.4c0.2-10.6,4.7-15.1,15.5-15.2
	c12.5-0.1,25.1-0.1,37.6,0c2.1,0,4.2,0.4,7.1,0.7c0.2,10.4,0.3,20.3,0.5,29.9c8.5,1.9,172.5,1.6,178.9-0.2c0.2-2.2,0.5-4.5,0.5-6.9
	c0.1-5.2,0-10.3,0-15.5c0.1-7.8,0.3-8,7.8-8c11.1-0.1,22.1,0,33.2,0c16,0,19.5,3.5,19.5,19.5c0,39.1,0,78.2,0,117.3
	c0,2,0.1,3.9-0.1,5.9c-0.7,8.5-5.1,13-13.6,13.5c-2.9,0.2-5.9,0.1-8.9,0.1c-55.8,0-111.6-0.1-167.4,0c-24.7,0-44.8,17.3-48.1,41.4
	c-2.3,16.7,3.3,30.9,15.2,42.8c64.4,64.3,128.6,128.7,193.1,192.9c3.2,3.2,7.4,5.7,11.6,7.5c17.2,7.4,34.5,14.4,51.8,21.5
	C631.6,718.7,636.1,720.7,640.8,722.1z M628.6,662.7c3.5,3.6,14.3,28.5,16.4,38.9c-13.5-5.6-25.9-10.7-38.3-15.8
	C609.6,680.4,621.2,668.3,628.6,662.7z"/>
</svg>
