<?xml version="1.0" encoding="utf-8"?>
<!-- Generator: Adobe Illustrator 24.0.1, SVG Export Plug-In . SVG Version: 6.00 Build 0)  -->
<svg version="1.1" id="Layer_1" xmlns="http://www.w3.org/2000/svg" xmlns:xlink="http://www.w3.org/1999/xlink" x="0px" y="0px"
	 viewBox="0 0 300 300" style="enable-background:new 0 0 300 300;" xml:space="preserve">
<style type="text/css">
	.st0{fill:#FFFFFF;}
</style>
<path class="st0" d="M186,46.9c-6.8,0-13.4,0-17.9,0c-9,0-16.4,3.2-18.8,7.3c-2.3-4-9.7-7.3-18.7-7.3c-8.1,0-11.3,0-18,0
	c-17.1,0-31,13.9-31,31c0,6.3,5,52.5,5,52.5c0,6.7,4.3,14.1,12,14.1c7.6,0,25.3,0,44.4,0v9.3h-37.5l5.7,22.6l31.8-6.7v9.1l-30.8,1.6
	l5.5,21.9l25.3-6.7v9.9l-23.9,2.1l4.9,19.6l19-5.5v10.4l-17.3,1.7l4.4,17.7l12.9-3.7v10.4l-11,1.1l4.2,16.5l28.3-8.1l3-11.9
	l-11.8,1.2v-12.8l15.9-4.6l2.6-10.5l-18.5,1.8v-12.8l23-6.6l2.3-9.3l-25.3,2.2v-12.2l29.8-7.9l2-7.9l-31.8,1.7v-11l36-7.5l1.5-5.8
	h-37.5v-9.3c18.5,0,36.3,0,45.6,0c5.7,0,10.8-7.4,10.8-14.1c0,0,5-46.6,5-52.5C217,60.7,203.1,46.9,186,46.9z M96.8,119.3
	c-1.4-15.8-3.6-34.9-3.6-38.1c0-11.4,9.3-20.8,20.8-20.8c2.9,0,15,0,18.9,0C99.9,65.3,95.7,94.4,96.8,119.3z"/>
</svg>
