<?xml version="1.0" encoding="utf-8"?>
<!-- Generator: Adobe Illustrator 24.1.0, SVG Export Plug-In . SVG Version: 6.00 Build 0)  -->
<svg version="1.1" id="Layer_1" xmlns="http://www.w3.org/2000/svg" xmlns:xlink="http://www.w3.org/1999/xlink" x="0px" y="0px"
	 viewBox="0 0 300 300" style="enable-background:new 0 0 300 300;" xml:space="preserve">
<style type="text/css">
	.st0{fill:#FFFFFF;}
</style>
<path class="st0" d="M192.6,167.8h79.3v8.8c0,5-4.1,9.1-9.1,9.1H145v-14.9h39.3c1.5,0,3-0.5,4.1-1.5
	C189.6,168.4,191,167.8,192.6,167.8z M271.8,37.3v127.8H145v-16.2h111.2V44.4H70.4V104H54.7V37.3c0-5,4.1-9.1,9.1-9.1h198.9
	C267.8,28.2,271.8,32.2,271.8,37.3z M165.7,36.3c0-1.3-1.1-2.4-2.4-2.4s-2.4,1.1-2.4,2.4c0,1.3,1.1,2.4,2.4,2.4
	S165.7,37.6,165.7,36.3z M90.7,247.9H37.3c-5,0-9.1-4.1-9.1-9.1V120.1c0-5,4.1-9.1,9.1-9.1h91.6c5,0,9.1,4.1,9.1,9.1v65.7h-15.6
	v-58.7H43.8v104.5h46.9V247.9z M80.7,119.1c0,1.3,1.1,2.4,2.4,2.4s2.4-1.1,2.4-2.4c0-1.3-1.1-2.4-2.4-2.4S80.7,117.7,80.7,119.1z
	 M150.2,197.2v69.3c0,2.9-2.4,5.3-5.3,5.3H102c-2.9,0-5.3-2.4-5.3-5.3v-69.3c0-2.9,2.4-5.3,5.3-5.3h42.8
	C147.8,191.8,150.2,194.2,150.2,197.2z M122,196.6c0,0.8,0.6,1.4,1.4,1.4s1.4-0.6,1.4-1.4c0-0.8-0.6-1.4-1.4-1.4
	S122,195.8,122,196.6z M141,201.3h-35.2v61.1H141V201.3z"/>
</svg>
