<?xml version="1.0" encoding="utf-8"?>
<!-- Generator: Adobe Illustrator 24.1.0, SVG Export Plug-In . SVG Version: 6.00 Build 0)  -->
<svg version="1.1" id="Layer_1" xmlns="http://www.w3.org/2000/svg" xmlns:xlink="http://www.w3.org/1999/xlink" x="0px" y="0px"
	 viewBox="0 0 207.7 165.3" style="enable-background:new 0 0 207.7 165.3;" xml:space="preserve">
<style type="text/css">
	.st0{fill:none;stroke:#FFFFFF;stroke-width:8;stroke-miterlimit:10;}
</style>
<g>
	<path class="st0" d="M90.7,139.1V55.6c0-4.5-3.6-8.1-8.1-8.1H26.3c-4.5,0-8.1,3.6-8.1,8.1v83.5c0,4.5,3.6,8.1,8.1,8.1h56.4
		C87.1,147.2,90.7,143.6,90.7,139.1z"/>
	<path class="st0" d="M90.7,123.9v13.8h85.1c7.6,0,13.8-6.2,13.8-13.8H90.7z"/>
	<path class="st0" d="M182.5,18.2H62.4c-3.9,0-7,3.1-7,7v22.3h27.2c4.5,0,8.1,3.6,8.1,8.1v58h98.9V25.2
		C189.5,21.3,186.4,18.2,182.5,18.2z"/>
</g>
</svg>
