<?xml version="1.0" encoding="utf-8"?>
<!-- Generator: Adobe Illustrator 19.2.1, SVG Export Plug-In . SVG Version: 6.00 Build 0)  -->
<!DOCTYPE svg PUBLIC "-//W3C//DTD SVG 1.1//EN" "http://www.w3.org/Graphics/SVG/1.1/DTD/svg11.dtd">
<svg version="1.1" id="Layer_1" xmlns="http://www.w3.org/2000/svg" xmlns:xlink="http://www.w3.org/1999/xlink" x="0px" y="0px"
	 viewBox="0 0 153 29.3" style="enable-background:new 0 0 153 29.3;" xml:space="preserve">
<style type="text/css">
	.st0{fill:#ED1C24;}
</style>
<path class="st0" d="M24.4,13.6c0.5-0.8,0.9-1.7,1.2-2.6c0.9-2.5,1.4-6.1-0.3-8.5c-0.9-1.2-2.8-2.2-4.4-2.4c-2.2-0.3-4.6,0.3-6,1.9
	c-0.9,0.9-1.5,1.2-2.2,1.2c-0.5,0-1.8-1.4-2.3-1.7c-0.7-0.4-1.5-0.8-2.3-1c-6.7-1.6-9.3,6-7.5,11C1.5,14,5.3,18.3,7.5,20
	c0.9,0.7,5.6,4.3,6.6,2.4c0.7-1.4-1.8-2.8-2.6-3.5c-1.4-1.2-3.1-2.7-4.1-4.3c-0.9-1.5-3.9-7.7,0.8-7.7c0.8,0,2,0.6,2.7,2.7
	c0.6,1.6,1.3,2.8,2.9,3H14c1.7,0,2.9-2.4,4-4.3c1-1.6,2.2-0.9,2.7,0.6c0.7,1.8-0.1,3.8-1,5.4c-0.5,0.8-1,1.5-1.7,2.1
	c-0.5,0.5-1.6,1.3-1.6,2.1c0.1,2,3.8-0.3,4.3-0.6C22.3,16.7,23.5,15.3,24.4,13.6 M44.7,15.5c0,2-0.9,2.7-1.8,2.7
	c-0.8,0-1.8-0.5-2.4-1.1c-0.7-0.7-1.4-1.1-2.3-1.1c-0.5,0-1.1,0.2-1.7,0.5c-1.1,0.5-2.9,1.3-4.7,1.3c-1,0-1.9-0.3-2.6-1
	c-1-0.9-1.4-2.1-1.4-3.3c0-4.3,5.2-9.4,8.9-9.9c0.2,0,0.3,0,0.4,0c0.7,0,1,0.3,1,0.8s-0.4,1.1-0.9,1.4c-2.3,1.6-3.6,4-3.6,5.7
	c0,0.9,0.3,1.5,1,1.8c0.2,0.1,0.5,0.1,0.7,0.1c1.3,0,2.4-1.5,3.1-3.3C39.2,8.3,40,6.8,41,6.8c0.5,0,1.1,0.4,1.7,1.4
	c1.1,1.7,1.9,3.9,1.9,7L44.7,15.5L44.7,15.5z M75.3,14.6c-1.5,2.2-4,3.5-6.4,3.5c-1.2,0-2.3-0.3-3.3-1C64,16,63.2,14,63.2,12
	c0-1.7,0.5-3.4,1.6-4.9c1.5-2.2,4.1-3.5,6.5-3.5c1.2,0,2.4,0.3,3.4,1c1.5,1.1,2.2,2.8,2.2,4.7C77,11.2,76.4,13,75.3,14.6z M71.6,6.4
	c-0.2-0.1-0.3-0.1-0.5-0.1c-0.9,0-2,0.9-2.5,2.2c-0.2,0.5-0.3,1-0.3,1.5c0,1,0.4,1.8,1.1,2.1c0.2,0.1,0.3,0.1,0.5,0.1
	c0.9,0,2-0.9,2.5-2.2c0.2-0.5,0.3-1,0.3-1.5C72.7,7.5,72.3,6.6,71.6,6.4z M103.1,7.9c-0.8,3.5-2.8,7.4-4.7,9.4c-1,1-2,1.5-3.1,1.5
	c-1.5,0-2.9-0.9-4.3-2.5c-0.8-0.9-1.4-1.2-2-1.2c-1,0-1.7,1-2.3,2c-0.5,0.8-1.2,1.3-2.3,1.3c-0.7,0-1.5-0.2-2.3-0.8
	c-2.4-1.6-3.8-6.2-3.8-9.8c0-0.3,0-0.5,0-0.8c0.1-1.3,0.9-2,1.7-2c0.7,0,1.4,0.4,1.6,1.3c0.4,1.2,0.9,2.7,2,4.3c0.4,0.6,0.9,1,1.5,1
	c0.8,0,1.5-0.8,2.3-2.9c0.5-1.6,1.2-2.8,2.6-3h0.2c1.6,0,2.6,2.4,3.7,4.3c0.5,1,1.3,1.5,2.1,1.5c0.6,0,1.2-0.3,1.8-0.9
	c1.5-1.6,2.2-2.7,2.8-3.7c0.3-0.5,0.9-0.8,1.5-0.8c0.5,0,1,0.3,1,1.1C103.2,7.4,103.2,7.6,103.1,7.9z M110,18.4
	c-0.4,0.1-1,0.1-1.5,0.1c-0.9,0-1.7-0.2-1.9-0.7c0-0.1,0-0.2,0-0.2c0-0.5,0.5-1,1.3-1.5c0.7-0.4,1.7-1.4,1.7-2.7
	c0-1-0.7-2.2-2.7-3.5c-1.6-1-2.3-2.1-2.3-3.1c0-2.4,3.4-4.6,5.5-5c0.3-0.1,0.6-0.1,0.9-0.1c0.9,0,1.3,0.4,1.3,0.8
	c0,0.3-0.2,0.7-0.5,1c-0.5,0.5-1.9,1.2-1.9,2.4c0,0.8,0.7,1.9,3.1,3.2c2,1.1,2.8,2.5,2.8,3.8C115.7,15.6,113,17.9,110,18.4z
	 M131.3,16.9c-1.9,0.9-4.5,1.7-8.8,1.7c-0.8,0-1.6,0-2.5-0.1c-2-0.1-3.4-0.8-3.4-2.2c0-1.1,0.8-2.5,2.9-4.4c1.5-1.5,2.1-2.5,2.1-3.2
	c0-2.1-3.5-1.3-4.7-1.6c-0.4-0.1-1-0.4-1-1c0-0.4,0.5-0.9,1.5-1.3c3.1-1,6.8-1.4,9.8-1.5h0.2c1.4,0,2.8,0.5,2.8,1.7
	c0,0.5-0.3,1.2-1.1,2.1c-2.5,2.5-4.1,4.5-4.1,6c0,0.2,0,0.4,0.1,0.5c0.3,1.1,1.7,1.4,3.1,1.4c0.5,0,1.1,0,1.6-0.1
	c0.7-0.1,2.4-0.5,2.4,0.8C132.2,16.1,131.9,16.5,131.3,16.9z M61.9,16.9c-1.9,0.9-4.5,1.7-8.8,1.7c-0.8,0-1.6,0-2.5-0.1
	c-2-0.1-3.4-0.8-3.4-2.2c0-1.1,0.8-2.5,2.9-4.4c1.5-1.5,2.2-2.5,2.2-3.2c0-2.1-3.5-1.3-4.7-1.6c-0.4-0.1-1-0.4-1-1
	c0-0.4,0.5-0.9,1.5-1.3c3.1-1,6.8-1.4,9.8-1.5h0.2c1.4,0,2.8,0.5,2.8,1.7c0,0.5-0.3,1.2-1.1,2.1c-2.5,2.5-4.1,4.5-4.1,6
	c0,0.2,0,0.4,0.1,0.5c0.3,1.1,1.7,1.4,3.1,1.4c0.5,0,1.1,0,1.6-0.1c0.7-0.1,2.4-0.5,2.4,0.8C62.9,16.1,62.6,16.5,61.9,16.9z
	 M145.9,9.8c0.8-0.7,1.4-1.7,1.5-2.9c0.1-1-0.2-2.1-0.7-2.9c-2-3-7.5-1.6-9.6,0.2c-1.9,1.7-3.3,4.2-3.4,6.8
	c-0.1,1.9-0.1,4.3,1.1,5.9c0.8,1.1,2.2,1.6,3.4,1.8c0.7,0.1,1.4,0.2,2.2,0.1c0.7-0.1,1.4-0.3,2.1-0.6c1.8-0.9,3.3-2.3,4.3-4
	c0.1-0.2,0.2-0.4,0.3-0.6c0.2-0.4,0.3-0.7,0.3-1c0-0.4-0.3-0.6-0.7-0.5c-0.3,0-0.6,0.2-1.1,0.5c-1.1,0.7-2.1,1.6-3.6,1.8
	c-0.6,0.1-1.3,0.2-1.8-0.2c-0.4-0.3-0.8-1.1-0.2-1.2C142.7,12.1,144.7,10.9,145.9,9.8z M138.7,8.6c0-2.3,2.7-3.8,4.1-3
	c0.5,0.3,1.4,2.3-2,3.7C140,9.7,138.6,10.2,138.7,8.6z M152.7,17.9c-0.5,1.1-1.6,1.8-2.7,1.8c-0.3,0-0.6-0.1-0.8-0.2
	c-0.7-0.3-1.1-1-1.1-1.8c0-0.5,0.1-1,0.4-1.6c0.5-1.1,1.5-1.8,2.4-1.8c0.3,0,0.5,0.1,0.8,0.2c0.8,0.3,1.3,1.2,1.3,2.2
	C152.9,17.1,152.8,17.5,152.7,17.9z"/>
<path d="M102.2,28.6c0.2,0.1,0.6,0.3,1,0.3c0.7,0,1-0.4,1-0.8c0-0.5-0.3-0.7-0.9-1c-0.7-0.3-1.1-0.7-1.1-1.2c0-0.6,0.5-1.2,1.3-1.2
	c0.4,0,0.7,0.1,0.9,0.3l-0.2,0.3c-0.1-0.1-0.4-0.3-0.9-0.3s-0.8,0.3-0.8,0.7s0.3,0.6,0.9,0.9c0.7,0.3,1.1,0.6,1.1,1.3
	s-0.6,1.2-1.5,1.2c-0.4,0-0.8-0.1-1.1-0.3L102.2,28.6z M106.2,27c0,1.4,0.8,1.9,1.6,1.9c0.6,0,0.9-0.1,1.2-0.2l0.1,0.3
	c-0.2,0.1-0.6,0.3-1.4,0.3c-1.2,0-2-0.9-2-2.2c0-1.4,0.8-2.3,1.9-2.3c1.4,0,1.7,1.3,1.7,1.9c0,0.1,0,0.2,0,0.3H106.2z M108.9,26.6
	c0-0.6-0.2-1.5-1.3-1.5c-0.9,0-1.4,0.9-1.4,1.5H108.9z M110.9,26.2c0-0.4,0-0.9,0-1.3h0.4v0.9l0,0c0.2-0.5,0.6-1,1.2-1
	c0.1,0,0.1,0,0.2,0v0.4c-0.1,0-0.1,0-0.2,0c-0.6,0-1,0.5-1.1,1.2c0,0.1,0,0.3,0,0.4v2.4H111v-3H110.9z M116.9,29
	c-0.2,0.1-0.6,0.3-1.3,0.3c-1.2,0-2.1-0.9-2.1-2.2c0-1.4,0.9-2.3,2.2-2.3c0.5,0,1,0.2,1.1,0.3l-0.2,0.3c-0.2-0.1-0.5-0.3-1-0.3
	c-1.2,0-1.7,0.9-1.7,1.9c0,1.1,0.7,1.9,1.7,1.9c0.5,0,0.8-0.1,1.1-0.2L116.9,29z M118.4,27c0,1.4,0.8,1.9,1.6,1.9
	c0.6,0,0.9-0.1,1.2-0.2l0.1,0.3c-0.2,0.1-0.6,0.3-1.4,0.3c-1.2,0-2-0.9-2-2.2c0-1.4,0.8-2.3,1.9-2.3c1.4,0,1.7,1.3,1.7,1.9
	c0,0.1,0,0.2,0,0.3H118.4z M121.2,26.6c0-0.6-0.2-1.5-1.3-1.5c-0.9,0-1.4,0.9-1.4,1.5H121.2z M125.6,23.2c0.3-0.1,0.8-0.1,1.3-0.1
	c0.7,0,1.3,0.2,1.6,0.5c0.3,0.3,0.5,0.7,0.5,1.2s-0.2,0.9-0.4,1.2c-0.4,0.4-1,0.7-1.8,0.7c-0.3,0-0.5,0-0.7-0.1v2.6h-0.4v-6H125.6z
	 M126,26.2c0.2,0.1,0.5,0.1,0.8,0.1c1.1,0,1.7-0.5,1.7-1.5c0-0.9-0.7-1.4-1.6-1.4c-0.4,0-0.7,0-0.9,0.1V26.2z M133.9,27
	c0,1.6-1.1,2.3-2.1,2.3c-1.1,0-2-0.9-2-2.2c0-1.5,1-2.3,2-2.3C133.1,24.8,133.9,25.7,133.9,27z M130.3,27c0,1.1,0.7,1.9,1.6,1.9
	s1.6-0.8,1.6-1.9c0-0.8-0.4-1.9-1.6-1.9C130.8,25.1,130.3,26.1,130.3,27z M135.5,22.8h0.4v6.4h-0.4V22.8z M137.6,28.6
	c0.2,0.1,0.6,0.3,1,0.3c0.7,0,1-0.4,1-0.8c0-0.5-0.3-0.7-0.9-1c-0.7-0.3-1.1-0.7-1.1-1.2c0-0.6,0.5-1.2,1.3-1.2
	c0.4,0,0.7,0.1,0.9,0.3l-0.2,0.3c-0.1-0.1-0.4-0.3-0.8-0.3c-0.5,0-0.8,0.3-0.8,0.7s0.3,0.6,0.9,0.9c0.7,0.3,1.1,0.6,1.1,1.3
	s-0.6,1.2-1.5,1.2c-0.4,0-0.8-0.1-1.1-0.3L137.6,28.6z M142,26.9L142,26.9c0.1-0.1,0.3-0.3,0.4-0.5l1.5-1.6h0.5l-1.7,1.8l2,2.5h-0.5
	l-1.8-2.3l-0.4,0.5v1.8h-0.4v-6.3h0.4L142,26.9L142,26.9z M146.6,23.7c0,0.2-0.1,0.4-0.4,0.4c-0.2,0-0.3-0.2-0.3-0.4
	s0.2-0.4,0.3-0.4C146.5,23.3,146.6,23.4,146.6,23.7z M146,24.9h0.4v4.3H146V24.9z"/>
</svg>
