<?xml version="1.0" encoding="utf-8"?>
<!-- Generator: Adobe Illustrator 19.2.1, SVG Export Plug-In . SVG Version: 6.00 Build 0)  -->
<!DOCTYPE svg PUBLIC "-//W3C//DTD SVG 1.1//EN" "http://www.w3.org/Graphics/SVG/1.1/DTD/svg11.dtd">
<svg version="1.1" id="Layer_1" xmlns="http://www.w3.org/2000/svg" xmlns:xlink="http://www.w3.org/1999/xlink" x="0px" y="0px"
	 viewBox="0 0 161.5 36.8" style="enable-background:new 0 0 161.5 36.8;" xml:space="preserve">
<style type="text/css">
	.st0{fill:#00539F;}
	.st1{fill:#FFF200;}
</style>
<rect x="105.6" class="st0" width="55.9" height="36.8"/>
<polygon class="st1" points="145.3,20.3 145.9,18.8 144.6,17.8 146.2,17.8 146.7,16.3 147.1,17.8 148.8,17.8 147.4,18.8 147.9,20.3 
	146.7,19.4 "/>
<polygon class="st1" points="119.8,20.4 120.3,18.9 119,17.9 120.6,17.9 121.1,16.4 121.5,17.9 123.2,17.9 121.9,18.9 122.4,20.4 
	121.1,19.5 "/>
<polygon class="st1" points="143.7,14 144.2,12.4 142.9,11.4 144.5,11.4 145,10 145.4,11.4 147.1,11.4 145.8,12.4 146.3,13.9 
	145,13 "/>
<polygon class="st1" points="132.5,7.9 133.1,6.4 131.8,5.4 133.4,5.4 133.9,3.9 134.3,5.4 135.9,5.4 134.6,6.4 135.1,7.9 133.9,7 
	"/>
<polygon class="st1" points="126,9.6 126.5,8 125.2,7 126.8,7 127.3,5.6 127.8,7 129.4,7 128.1,8 128.6,9.5 127.3,8.6 "/>
<polygon class="st1" points="138.8,9.6 139.4,8 138.1,7 139.6,7 140.2,5.6 140.6,7 142.2,7 140.9,8 141.4,9.5 140.2,8.6 "/>
<polygon class="st1" points="121.3,14.3 121.8,12.7 120.5,11.7 122.1,11.7 122.6,10.3 123.1,11.7 124.7,11.7 123.4,12.7 123.9,14.2 
	122.6,13.3 "/>
<polygon class="st1" points="143.6,26.6 144.1,25 142.8,24 144.4,24 144.9,22.6 145.3,24.1 147,24.1 145.7,25 146.2,26.5 
	144.9,25.6 "/>
<polygon class="st1" points="121.4,26.6 121.9,25.1 120.6,24.1 122.2,24.1 122.7,22.6 123.1,24.1 124.8,24.1 123.5,25.1 124,26.6 
	122.7,25.7 "/>
<polygon class="st1" points="138.9,31 139.5,29.4 138.2,28.4 139.8,28.5 140.3,27 140.7,28.5 142.4,28.5 141,29.4 141.5,30.9 
	140.3,30 "/>
<polygon class="st1" points="126,31 126.6,29.5 125.3,28.5 126.8,28.5 127.4,27.1 127.8,28.5 129.4,28.5 128.1,29.5 128.6,31 
	127.3,30.1 "/>
<polygon class="st1" points="132.6,32.6 133.1,31 131.8,30 133.4,30.1 133.9,28.6 134.4,30.1 136,30.1 134.7,31 135.2,32.5 
	133.9,31.6 "/>
<path d="M13,5.6h1.3v3.6c0,0.6,0,0.9,0,1.1c0.1,0.3,0.2,0.5,0.4,0.7c0.2,0.2,0.5,0.2,0.9,0.2s0.7-0.1,0.9-0.2
	c0.2-0.2,0.3-0.3,0.4-0.6c0-0.2,0.1-0.6,0.1-1.1V5.6h1.3v3.5c0,0.8,0,1.4-0.1,1.7s-0.2,0.6-0.4,0.8c-0.2,0.2-0.5,0.4-0.8,0.5
	s-0.8,0.2-1.3,0.2c-0.6,0-1.1-0.1-1.5-0.2c-0.3-0.1-0.6-0.3-0.8-0.6c-0.2-0.2-0.3-0.5-0.4-0.7c-0.1-0.4-0.1-0.9-0.1-1.7V5.6H13z"/>
<polygon points="19.7,12.3 19.7,5.6 21,5.6 23.8,10.1 23.8,5.6 25,5.6 25,12.3 23.7,12.3 21,7.9 21,12.3 "/>
<rect x="26.4" y="5.6" width="1.3" height="6.7"/>
<path d="M32.6,9.6l-0.9-2.5l-0.9,2.5H32.6z M35.1,12.3h-1.5L33,10.8h-2.7l-0.6,1.5h-1.4l2.6-6.7h1.4L35.1,12.3z"/>
<polygon points="38,12.3 38,5.6 43,5.6 43,6.7 39.4,6.7 39.4,8.2 42.7,8.2 42.7,9.3 39.4,9.3 39.4,11.2 43.1,11.2 43.1,12.3 "/>
<path d="M44.3,5.6h1.3v3.6c0,0.6,0,0.9,0,1.1c0.1,0.3,0.2,0.5,0.4,0.7s0.5,0.2,0.9,0.2s0.7-0.1,0.9-0.2c0.2-0.2,0.3-0.3,0.4-0.6
	c0-0.2,0.1-0.6,0.1-1.1V5.6h1.3v3.5c0,0.8,0,1.4-0.1,1.7s-0.2,0.6-0.4,0.8s-0.5,0.4-0.8,0.5s-0.8,0.2-1.3,0.2
	c-0.6,0-1.1-0.1-1.5-0.2c-0.3-0.1-0.6-0.3-0.8-0.6c-0.2-0.2-0.3-0.5-0.4-0.7c-0.1-0.4-0.1-0.9-0.1-1.7L44.3,5.6L44.3,5.6z"/>
<path d="M52.4,8.4h1c0.6,0,1.1,0,1.2-0.1C54.8,8.2,54.9,8.2,55,8c0.1-0.1,0.1-0.3,0.1-0.5S55,7.1,54.9,7c-0.1-0.1-0.3-0.2-0.5-0.3
	c-0.1,0-0.4,0-1,0h-1.1L52.4,8.4L52.4,8.4z M51,12.3V5.6h2.8c0.7,0,1.2,0.1,1.6,0.2c0.3,0.1,0.6,0.3,0.8,0.6
	c0.2,0.3,0.3,0.7,0.3,1.1c0,0.5-0.1,0.9-0.4,1.2c-0.3,0.3-0.7,0.5-1.3,0.6c0.3,0.2,0.5,0.4,0.7,0.6s0.4,0.6,0.8,1.1l0.8,1.3h-1.6
	l-1-1.5c-0.3-0.5-0.6-0.8-0.7-1c-0.1-0.1-0.3-0.2-0.4-0.3c-0.1,0-0.4-0.1-0.7-0.1h-0.3v2.8L51,12.3L51,12.3z"/>
<path d="M58.9,8.9c0,0.8,0.2,1.3,0.5,1.7s0.8,0.6,1.3,0.6s1-0.2,1.3-0.6c0.3-0.4,0.5-1,0.5-1.7c0-0.8-0.2-1.3-0.5-1.7
	c-0.3-0.4-0.8-0.6-1.3-0.6c-0.6,0-1,0.2-1.3,0.6C59,7.6,58.9,8.2,58.9,8.9 M57.5,9c0-0.7,0.1-1.3,0.3-1.7C58,7,58.2,6.7,58.4,6.4
	c0.3-0.3,0.6-0.5,0.9-0.6c0.4-0.2,0.9-0.3,1.4-0.3c1,0,1.8,0.3,2.4,0.9C63.7,7,64,7.9,64,8.9c0,1.1-0.3,1.9-0.9,2.5
	c-0.6,0.6-1.4,0.9-2.4,0.9s-1.8-0.3-2.4-0.9C57.8,10.9,57.5,10,57.5,9z"/>
<path d="M66.4,6.7v1.9h0.7c0.5,0,0.9,0,1.1-0.1c0.2-0.1,0.3-0.2,0.4-0.3c0.1-0.1,0.2-0.3,0.2-0.5s-0.1-0.4-0.2-0.6
	c-0.1-0.2-0.3-0.3-0.5-0.3s-0.5,0-1,0h-0.7V6.7z M65,12.3V5.6h2.2c0.8,0,1.4,0,1.6,0.1c0.4,0.1,0.7,0.3,1,0.7
	c0.3,0.3,0.4,0.8,0.4,1.3c0,0.4-0.1,0.8-0.2,1c-0.1,0.3-0.3,0.5-0.6,0.7c-0.2,0.2-0.5,0.3-0.7,0.3c-0.3,0.1-0.8,0.1-1.4,0.1h-0.9
	v2.5H65z"/>
<polygon points="71.3,12.3 71.3,5.6 76.2,5.6 76.2,6.7 72.6,6.7 72.6,8.2 76,8.2 76,9.3 72.6,9.3 72.6,11.2 76.3,11.2 76.3,12.3 "/>
<path d="M79.9,5.6h1.3v4.2c0,0.6,0,1-0.1,1.3c-0.1,0.4-0.4,0.7-0.7,0.9s-0.8,0.4-1.4,0.4c-0.7,0-1.2-0.2-1.5-0.6
	c-0.4-0.4-0.5-0.9-0.5-1.6l1.3-0.1c0,0.4,0.1,0.7,0.2,0.8c0.1,0.2,0.4,0.4,0.7,0.4s0.5-0.1,0.6-0.3S80,10.5,80,9.9L79.9,5.6
	L79.9,5.6z"/>
<path d="M82.3,10.1l1.3-0.1c0.1,0.4,0.2,0.8,0.5,1c0.2,0.2,0.6,0.3,1,0.3s0.8-0.1,1-0.3s0.3-0.4,0.3-0.6c0-0.2,0-0.3-0.1-0.4
	S86,9.8,85.8,9.7c-0.2-0.1-0.5-0.2-1.1-0.3C84,9.2,83.5,9,83.2,8.7c-0.4-0.4-0.6-0.8-0.6-1.3c0-0.3,0.1-0.7,0.3-1s0.5-0.5,0.8-0.7
	c0.4-0.2,0.8-0.2,1.3-0.2c0.8,0,1.5,0.2,1.9,0.6s0.6,0.9,0.7,1.5l-1.3,0.1c-0.1-0.3-0.2-0.6-0.4-0.7c-0.2-0.2-0.5-0.2-0.9-0.2
	S84.3,6.9,84.1,7c-0.1,0.1-0.2,0.2-0.2,0.4c0,0.2,0.1,0.3,0.2,0.4c0.2,0.1,0.6,0.3,1.2,0.4c0.7,0.2,1.1,0.3,1.5,0.5
	c0.3,0.2,0.6,0.4,0.7,0.7c0.2,0.3,0.3,0.6,0.3,1.1c0,0.4-0.1,0.7-0.3,1.1c-0.2,0.3-0.5,0.6-0.9,0.7c-0.4,0.2-0.9,0.2-1.5,0.2
	c-0.8,0-1.5-0.2-1.9-0.6C82.7,11.4,82.4,10.9,82.3,10.1"/>
<polygon points="88.9,12.3 88.9,5.6 90.3,5.6 90.3,8.6 93,5.6 94.8,5.6 92.3,8.2 95,12.3 93.2,12.3 91.4,9.2 90.3,10.3 90.3,12.3 
	"/>
<path d="M99.2,9.6l-0.9-2.5l-0.9,2.5H99.2z M101.7,12.3h-1.5l-0.6-1.5h-2.7l-0.6,1.5h-1.4l2.6-6.7h1.4L101.7,12.3z"/>
<polygon points="15.7,21 15.7,15.6 19.6,15.6 19.6,16.2 16.4,16.2 16.4,17.9 19.4,17.9 19.4,18.5 16.4,18.5 16.4,20.4 19.7,20.4 
	19.7,21 "/>
<path d="M24.3,15.6H25v3.2c0,0.5-0.1,1-0.2,1.3s-0.3,0.6-0.7,0.8c-0.3,0.2-0.7,0.3-1.3,0.3c-0.5,0-0.9-0.1-1.3-0.3
	c-0.3-0.2-0.6-0.4-0.7-0.8c-0.1-0.3-0.2-0.8-0.2-1.4v-3.2h0.7v3.1c0,0.5,0,0.8,0.1,1s0.2,0.4,0.5,0.5c0.2,0.1,0.5,0.2,0.8,0.2
	c0.5,0,0.9-0.1,1.1-0.4c0.2-0.2,0.3-0.7,0.3-1.4v-2.9H24.3z"/>
<path d="M27,18h1.6c0.3,0,0.6,0,0.8-0.1s0.3-0.2,0.4-0.3c0.1-0.1,0.1-0.3,0.1-0.5c0-0.3-0.1-0.5-0.3-0.6c-0.2-0.2-0.5-0.2-0.9-0.2
	H27L27,18L27,18z M26.2,21v-5.5h2.4c0.5,0,0.9,0,1.1,0.1c0.3,0.1,0.5,0.3,0.6,0.5c0.2,0.2,0.2,0.5,0.2,0.8c0,0.4-0.1,0.7-0.4,1
	c-0.3,0.3-0.6,0.4-1.2,0.5c0.2,0.1,0.3,0.2,0.4,0.3c0.2,0.2,0.4,0.4,0.6,0.7l0.9,1.5h-0.7l-0.7-1.1c-0.2-0.3-0.4-0.6-0.5-0.8
	s-0.3-0.3-0.4-0.4c-0.1-0.1-0.2-0.1-0.3-0.1s-0.2,0-0.4,0H27v2.4L26.2,21L26.2,21z"/>
<path d="M32.3,18.4c0,0.7,0.2,1.2,0.5,1.6c0.4,0.4,0.8,0.6,1.3,0.6s1-0.2,1.3-0.6c0.4-0.4,0.5-0.9,0.5-1.6c0-0.4-0.1-0.8-0.2-1.2
	c-0.1-0.3-0.4-0.6-0.7-0.8s-0.6-0.3-1-0.3c-0.5,0-1,0.2-1.3,0.5C32.4,17,32.3,17.6,32.3,18.4 M31.5,18.4c0-0.9,0.2-1.6,0.7-2.1
	s1.1-0.8,1.9-0.8c0.5,0,1,0.1,1.4,0.4c0.4,0.2,0.7,0.6,0.9,1s0.3,0.9,0.3,1.5s-0.1,1-0.3,1.5c-0.2,0.4-0.5,0.8-0.9,1
	s-0.9,0.3-1.3,0.3c-0.5,0-1-0.1-1.4-0.4c-0.4-0.2-0.7-0.6-0.9-1C31.6,19.3,31.5,18.9,31.5,18.4z"/>
<path d="M38.4,18.2h1.4c0.5,0,0.8-0.1,1-0.3s0.3-0.4,0.3-0.7c0-0.2-0.1-0.4-0.2-0.6c-0.1-0.2-0.3-0.3-0.5-0.3c-0.1,0-0.3,0-0.7,0
	h-1.4v1.9H38.4z M37.7,21v-5.5h2.1c0.4,0,0.6,0,0.8,0.1c0.3,0,0.5,0.1,0.7,0.3c0.2,0.1,0.3,0.3,0.4,0.5c0.1,0.2,0.2,0.5,0.2,0.7
	c0,0.5-0.1,0.9-0.4,1.2c-0.3,0.3-0.8,0.5-1.6,0.5h-1.4V21H37.7z"/>
<polygon points="42.8,21 42.8,15.6 46.7,15.6 46.7,16.2 43.5,16.2 43.5,17.9 46.5,17.9 46.5,18.5 43.5,18.5 43.5,20.4 46.8,20.4 
	46.8,21 "/>
<path d="M47.5,19.5l0.7-0.1c0,0.4,0.1,0.7,0.2,0.9c0.1,0.2,0.3,0.2,0.6,0.2c0.2,0,0.3,0,0.5-0.1c0.1-0.1,0.2-0.2,0.3-0.3
	c0-0.1,0.1-0.4,0.1-0.7v-3.8h0.7v3.7c0,0.5-0.1,0.8-0.2,1.1c-0.1,0.3-0.3,0.4-0.5,0.6c-0.2,0.1-0.5,0.2-0.8,0.2
	c-0.5,0-0.8-0.1-1.1-0.4C47.6,20.5,47.5,20,47.5,19.5"/>
<path d="M51.4,19.3l0.7-0.1c0,0.3,0.1,0.5,0.2,0.7c0.1,0.2,0.3,0.3,0.5,0.4c0.2,0.1,0.5,0.2,0.8,0.2s0.5,0,0.7-0.1s0.4-0.2,0.5-0.3
	s0.2-0.3,0.2-0.5s0-0.3-0.1-0.4c-0.1-0.1-0.3-0.2-0.5-0.3c-0.1-0.1-0.5-0.1-1-0.3c-0.5-0.1-0.9-0.2-1.1-0.3
	c-0.3-0.1-0.5-0.3-0.6-0.5s-0.2-0.4-0.2-0.7s0.1-0.5,0.2-0.8c0.2-0.2,0.4-0.4,0.7-0.5s0.6-0.2,1-0.2s0.8,0.1,1.1,0.2
	c0.3,0.1,0.5,0.3,0.7,0.6s0.3,0.5,0.3,0.9l-0.7,0.1c0-0.3-0.2-0.6-0.4-0.8s-0.5-0.3-1-0.3c-0.4,0-0.8,0.1-1,0.2
	c-0.2,0.2-0.3,0.4-0.3,0.6c0,0.2,0.1,0.4,0.2,0.5c0.1,0.1,0.5,0.3,1.1,0.4c0.6,0.1,1,0.2,1.2,0.3c0.3,0.1,0.6,0.3,0.7,0.6
	c0.2,0.2,0.2,0.5,0.2,0.8s-0.1,0.6-0.2,0.8c-0.2,0.3-0.4,0.5-0.7,0.6s-0.7,0.2-1.1,0.2c-0.5,0-0.9-0.1-1.2-0.2
	c-0.3-0.1-0.6-0.4-0.8-0.6C51.5,20,51.4,19.7,51.4,19.3"/>
<polygon points="56.7,21 56.7,15.6 57.4,15.6 57.4,18.3 60.1,15.6 61.1,15.6 58.8,17.8 61.2,21 60.3,21 58.3,18.3 57.4,19.2 
	57.4,21 "/>
<rect x="61.9" y="15.6" width="0.7" height="5.5"/>
<polygon points="66.1,21 66.1,15.6 69.8,15.6 69.8,16.2 66.8,16.2 66.8,17.9 69.4,17.9 69.4,18.6 66.8,18.6 66.8,21 "/>
<path d="M74.3,15.6H75v3.2c0,0.5-0.1,1-0.2,1.3c-0.1,0.3-0.3,0.6-0.7,0.8c-0.3,0.2-0.7,0.3-1.3,0.3c-0.5,0-0.9-0.1-1.3-0.3
	c-0.3-0.2-0.6-0.4-0.7-0.8c-0.1-0.3-0.2-0.8-0.2-1.4v-3.2h0.7v3.1c0,0.5,0,0.8,0.1,1s0.2,0.4,0.5,0.5c0.2,0.1,0.5,0.2,0.8,0.2
	c0.5,0,0.9-0.1,1.1-0.4c0.2-0.2,0.3-0.7,0.3-1.4v-2.9H74.3z"/>
<polygon points="76.2,21 76.2,15.6 76.9,15.6 79.8,19.9 79.8,15.6 80.5,15.6 80.5,21 79.8,21 76.9,16.8 76.9,21 "/>
<path d="M82.4,20.4h1.2c0.4,0,0.6,0,0.8-0.1s0.4-0.2,0.5-0.3c0.2-0.2,0.3-0.4,0.4-0.7c0.1-0.3,0.1-0.6,0.1-1.1c0-0.6-0.1-1-0.3-1.3
	s-0.4-0.5-0.7-0.6c-0.2-0.1-0.5-0.1-0.9-0.1h-1.1V20.4z M81.7,21v-5.5h1.9c0.4,0,0.7,0,1,0.1s0.6,0.2,0.8,0.4
	c0.3,0.2,0.5,0.6,0.6,0.9c0.1,0.4,0.2,0.8,0.2,1.3c0,0.4,0,0.8-0.1,1.1s-0.2,0.6-0.4,0.8s-0.3,0.4-0.5,0.5s-0.4,0.2-0.7,0.3
	S84,21,83.6,21C83.6,21,81.7,21,81.7,21z"/>
<path d="M90.8,15.6h0.7v3.2c0,0.5-0.1,1-0.2,1.3c-0.1,0.3-0.3,0.6-0.7,0.8c-0.3,0.2-0.7,0.3-1.3,0.3c-0.5,0-0.9-0.1-1.3-0.3
	c-0.3-0.2-0.6-0.4-0.7-0.8c-0.1-0.3-0.2-0.8-0.2-1.4v-3.2h0.7v3.1c0,0.5,0,0.8,0.1,1s0.2,0.4,0.5,0.5c0.2,0.1,0.5,0.2,0.8,0.2
	c0.5,0,0.9-0.1,1.1-0.4c0.2-0.2,0.3-0.7,0.3-1.4v-2.9H90.8z"/>
<path d="M92.5,19.3l0.7-0.1c0,0.3,0.1,0.5,0.2,0.7c0.1,0.2,0.3,0.3,0.5,0.4c0.2,0.1,0.5,0.2,0.8,0.2s0.5,0,0.7-0.1s0.4-0.2,0.5-0.3
	s0.2-0.3,0.2-0.5s0-0.3-0.1-0.4c-0.1-0.1-0.3-0.2-0.5-0.3c-0.1-0.1-0.5-0.1-1-0.3c-0.5-0.1-0.9-0.2-1.1-0.3
	c-0.3-0.1-0.5-0.3-0.6-0.5s-0.2-0.4-0.2-0.7s0.1-0.5,0.2-0.8c0.2-0.2,0.4-0.4,0.7-0.5s0.6-0.2,1-0.2s0.8,0.1,1.1,0.2
	c0.3,0.1,0.5,0.3,0.7,0.6s0.3,0.5,0.3,0.9l-0.7,0.1c0-0.3-0.2-0.6-0.4-0.8s-0.5-0.3-1-0.3c-0.4,0-0.8,0.1-1,0.2
	c-0.2,0.2-0.3,0.4-0.3,0.6c0,0.2,0.1,0.4,0.2,0.5c0.1,0.1,0.5,0.3,1.1,0.4c0.6,0.1,1,0.2,1.2,0.3c0.3,0.1,0.6,0.3,0.7,0.6
	c0.2,0.2,0.2,0.5,0.2,0.8s-0.1,0.6-0.2,0.8c-0.2,0.3-0.4,0.5-0.7,0.6s-0.7,0.2-1.1,0.2c-0.5,0-0.9-0.1-1.2-0.2
	c-0.3-0.1-0.6-0.4-0.8-0.6C92.6,20,92.5,19.7,92.5,19.3"/>
<path d="M97.4,21v-0.7l2.8-3.5c0.2-0.2,0.4-0.5,0.6-0.6h-3v-0.6h3.9v0.6L98.6,20l-0.3,0.4h3.5V21H97.4z"/>
<path d="M0.7,26.8h1.6c0.3,0,0.6,0,0.8-0.1c0.2-0.1,0.3-0.2,0.4-0.3s0.1-0.3,0.1-0.5c0-0.3-0.1-0.5-0.3-0.6
	c-0.2-0.2-0.5-0.2-0.9-0.2H0.7V26.8z M0,29.9v-5.5h2.4c0.5,0,0.9,0,1.1,0.1C3.8,24.6,4,24.8,4.1,25c0.2,0.2,0.2,0.5,0.2,0.8
	c0,0.4-0.1,0.7-0.4,1s-0.6,0.4-1.2,0.5c0.2,0.1,0.3,0.2,0.4,0.3c0.2,0.2,0.4,0.4,0.6,0.7l0.9,1.5H3.7L3,28.7
	c-0.2-0.3-0.4-0.6-0.5-0.8s-0.3-0.3-0.4-0.4c-0.1-0.1-0.2-0.1-0.3-0.1c-0.1,0-0.2,0-0.4,0H0.6v2.4L0,29.9L0,29.9z"/>
<path d="M6,27.2c0,0.7,0.2,1.2,0.5,1.6c0.4,0.4,0.8,0.6,1.3,0.6s1-0.2,1.3-0.6c0.4-0.4,0.5-0.9,0.5-1.6c0-0.4-0.1-0.8-0.2-1.2
	c-0.1-0.3-0.4-0.6-0.7-0.8c-0.3-0.2-0.6-0.3-1-0.3c-0.5,0-1,0.2-1.3,0.5C6.2,25.8,6,26.4,6,27.2 M5.3,27.2c0-0.9,0.2-1.6,0.7-2.1
	s1.1-0.8,1.9-0.8c0.5,0,1,0.1,1.4,0.4c0.4,0.2,0.7,0.6,0.9,1c0.2,0.4,0.3,0.9,0.3,1.5s-0.1,1-0.3,1.5c-0.2,0.4-0.5,0.8-0.9,1
	S8.4,30,8,30c-0.5,0-1-0.1-1.4-0.4c-0.4-0.2-0.7-0.6-0.9-1C5.4,28.2,5.3,27.7,5.3,27.2z"/>
<path d="M11,29.9v-0.7l2.8-3.5c0.2-0.2,0.4-0.5,0.6-0.6h-3v-0.6h3.9v0.6l-3.1,3.8l-0.3,0.4h3.5v0.6H11z"/>
<path d="M17,29.9l-1.4-5.5h0.7l0.8,3.6c0.1,0.4,0.2,0.7,0.2,1.1c0.1-0.6,0.2-0.9,0.2-1l1-3.7h0.9l0.8,2.8c0.2,0.7,0.3,1.3,0.4,1.9
	c0.1-0.3,0.2-0.7,0.3-1.2l0.9-3.5h0.7L21,29.9h-0.7l-1.1-4.2c-0.1-0.3-0.2-0.6-0.2-0.6c-0.1,0.3-0.1,0.5-0.2,0.6l-1.2,4.2
	C17.6,29.9,17,29.9,17,29.9z"/>
<path d="M23.8,27.2c0,0.7,0.2,1.2,0.5,1.6c0.4,0.4,0.8,0.6,1.3,0.6s1-0.2,1.3-0.6c0.4-0.4,0.5-0.9,0.5-1.6c0-0.4-0.1-0.8-0.2-1.2
	c-0.2-0.3-0.4-0.6-0.7-0.8s-0.6-0.3-1-0.3c-0.5,0-1,0.2-1.3,0.5C24,25.8,23.8,26.4,23.8,27.2 M23,27.2c0-0.9,0.2-1.6,0.7-2.1
	s1.1-0.8,1.9-0.8c0.5,0,1,0.1,1.4,0.4c0.4,0.2,0.7,0.6,0.9,1s0.3,0.9,0.3,1.5s-0.1,1-0.3,1.5c-0.2,0.4-0.5,0.8-0.9,1
	S26.1,30,25.7,30c-0.5,0-1-0.1-1.4-0.4c-0.4-0.2-0.7-0.6-0.9-1C23.1,28.2,23,27.7,23,27.2z"/>
<path d="M28.8,28.3l0.7-0.1c0,0.4,0.1,0.7,0.2,0.9c0.1,0.2,0.3,0.2,0.6,0.2c0.2,0,0.3,0,0.5-0.1c0.1-0.1,0.2-0.2,0.3-0.3
	c0-0.1,0.1-0.4,0.1-0.7v-3.8h0.7v3.7c0,0.5-0.1,0.8-0.2,1.1c-0.1,0.3-0.3,0.4-0.5,0.6C31,29.9,30.7,30,30.4,30
	c-0.5,0-0.8-0.1-1.1-0.4C28.9,29.3,28.8,28.9,28.8,28.3"/>
<path d="M36.6,24.4h0.7v3.2c0,0.5-0.1,1-0.2,1.3c-0.1,0.3-0.3,0.6-0.7,0.8c-0.3,0.2-0.7,0.3-1.3,0.3c-0.5,0-0.9-0.1-1.3-0.3
	c-0.3-0.2-0.6-0.4-0.7-0.8c-0.1-0.3-0.2-0.8-0.2-1.4v-3.2h0.7v3.1c0,0.5,0,0.8,0.1,1s0.2,0.4,0.5,0.5c0.2,0.1,0.5,0.2,0.8,0.2
	c0.5,0,0.9-0.1,1.1-0.4c0.2-0.2,0.3-0.7,0.3-1.4v-2.9H36.6z"/>
<path d="M41.4,26.8H43c0.3,0,0.6,0,0.8-0.1s0.3-0.2,0.4-0.3c0.1-0.1,0.1-0.3,0.1-0.5c0-0.3-0.1-0.5-0.3-0.6
	c-0.2-0.2-0.5-0.2-0.9-0.2h-1.7L41.4,26.8L41.4,26.8z M40.6,29.9v-5.5H43c0.5,0,0.9,0,1.1,0.1c0.3,0.1,0.5,0.3,0.6,0.5
	c0.2,0.2,0.2,0.5,0.2,0.8c0,0.4-0.1,0.7-0.4,1c-0.3,0.3-0.6,0.4-1.2,0.5c0.2,0.1,0.3,0.2,0.4,0.3c0.2,0.2,0.4,0.4,0.6,0.7l0.9,1.5
	h-0.9l-0.7-1.1c-0.2-0.3-0.4-0.6-0.5-0.8s-0.3-0.3-0.4-0.4c-0.1-0.1-0.2-0.1-0.3-0.1s-0.2,0-0.4,0h-0.8v2.4L40.6,29.9L40.6,29.9z"/>
<polygon points="46.1,29.9 46.1,24.4 50.1,24.4 50.1,25.1 46.9,25.1 46.9,26.7 49.9,26.7 49.9,27.4 46.9,27.4 46.9,29.2 50.2,29.2 
	50.2,29.9 "/>
<path d="M53.8,27.7v-0.6h2.3v2c-0.4,0.3-0.7,0.5-1.1,0.6c-0.4,0.1-0.8,0.2-1.2,0.2c-0.5,0-1-0.1-1.5-0.3c-0.4-0.2-0.8-0.6-1-1
	S51,27.7,51,27.1c0-0.5,0.1-1,0.3-1.5s0.5-0.8,1-1c0.4-0.2,0.9-0.3,1.4-0.3c0.4,0,0.8,0.1,1.1,0.2c0.3,0.1,0.6,0.3,0.7,0.5
	c0.2,0.2,0.3,0.5,0.4,0.9l-0.7,0.2c-0.1-0.3-0.2-0.5-0.3-0.7s-0.3-0.3-0.5-0.4c-0.2-0.1-0.5-0.1-0.8-0.1S53,25,52.7,25.1
	c-0.2,0.1-0.4,0.2-0.6,0.4c-0.1,0.2-0.3,0.3-0.3,0.5c-0.1,0.3-0.2,0.7-0.2,1.1c0,0.5,0.1,0.9,0.3,1.2s0.4,0.6,0.7,0.7
	c0.3,0.2,0.7,0.2,1,0.2s0.6-0.1,0.9-0.2c0.3-0.1,0.5-0.2,0.7-0.4v-1L53.8,27.7L53.8,27.7z"/>
<rect x="57.3" y="24.4" width="0.7" height="5.5"/>
<path d="M59.8,27.2c0,0.7,0.2,1.2,0.5,1.6c0.4,0.4,0.8,0.6,1.3,0.6s1-0.2,1.3-0.6c0.4-0.4,0.5-0.9,0.5-1.6c0-0.4-0.1-0.8-0.2-1.2
	c-0.1-0.3-0.4-0.6-0.7-0.8s-0.6-0.3-1-0.3c-0.5,0-1,0.2-1.3,0.5C60,25.8,59.8,26.4,59.8,27.2 M59,27.2c0-0.9,0.2-1.6,0.7-2.1
	s1.1-0.8,1.9-0.8c0.5,0,1,0.1,1.4,0.4c0.4,0.2,0.7,0.6,0.9,1s0.3,0.9,0.3,1.5s-0.1,1-0.3,1.5c-0.2,0.4-0.5,0.8-0.9,1
	S62.1,30,61.7,30c-0.5,0-1-0.1-1.4-0.4c-0.4-0.2-0.7-0.6-0.9-1C59.1,28.2,59,27.7,59,27.2z"/>
<polygon points="65.2,29.9 65.2,24.4 65.9,24.4 68.8,28.7 68.8,24.4 69.5,24.4 69.5,29.9 68.7,29.9 65.9,25.6 65.9,29.9 "/>
<path d="M71.7,27.6h1.9L73,26.1c-0.2-0.5-0.3-0.8-0.4-1.1c-0.1,0.4-0.2,0.7-0.3,1L71.7,27.6z M70.1,29.9l2.1-5.5H73l2.2,5.5h-0.8
	l-0.6-1.7h-2.3l-0.6,1.7H70.1z"/>
<polygon points="75.7,29.9 75.7,24.4 76.5,24.4 76.5,29.2 79.2,29.2 79.2,29.9 "/>
<polygon points="80,29.9 80,24.4 80.7,24.4 83.6,28.7 83.6,24.4 84.3,24.4 84.3,29.9 83.6,29.9 80.7,25.6 80.7,29.9 "/>
<polygon points="85.5,29.9 85.5,24.4 89.5,24.4 89.5,25.1 86.3,25.1 86.3,26.7 89.3,26.7 89.3,27.4 86.3,27.4 86.3,29.2 89.6,29.2 
	89.6,29.9 "/>
<path d="M93.2,27.7v-0.6h2.3v2c-0.4,0.3-0.7,0.5-1.1,0.6c-0.4,0.1-0.8,0.2-1.2,0.2c-0.5,0-1-0.1-1.5-0.3c-0.4-0.2-0.8-0.6-1-1
	s-0.3-0.9-0.3-1.5c0-0.5,0.1-1,0.3-1.5s0.5-0.8,1-1c0.4-0.2,0.9-0.3,1.4-0.3c0.4,0,0.8,0.1,1.1,0.2c0.3,0.1,0.6,0.3,0.7,0.5
	c0.2,0.2,0.3,0.5,0.4,0.9l-0.7,0.2c-0.1-0.3-0.2-0.5-0.3-0.7S94,25.1,93.8,25c-0.2-0.1-0.5-0.1-0.8-0.1s-0.6,0.1-0.9,0.2
	c-0.2,0.1-0.4,0.2-0.6,0.4c-0.1,0.2-0.3,0.3-0.3,0.5c-0.1,0.3-0.2,0.7-0.2,1.1c0,0.5,0.1,0.9,0.3,1.2s0.4,0.6,0.7,0.7
	c0.3,0.2,0.7,0.2,1,0.2s0.6-0.1,0.9-0.2c0.3-0.1,0.5-0.2,0.7-0.4v-1L93.2,27.7L93.2,27.7z"/>
<path d="M97.1,27.2c0,0.7,0.2,1.2,0.5,1.6c0.4,0.4,0.8,0.6,1.3,0.6s1-0.2,1.3-0.6c0.4-0.4,0.5-0.9,0.5-1.6c0-0.4-0.1-0.8-0.2-1.2
	c-0.1-0.3-0.4-0.6-0.7-0.8s-0.6-0.3-1-0.3c-0.5,0-1,0.2-1.3,0.5C97.2,25.8,97.1,26.4,97.1,27.2 M96.3,27.2c0-0.9,0.2-1.6,0.7-2.1
	s1.1-0.8,1.9-0.8c0.5,0,1,0.1,1.4,0.4c0.4,0.2,0.7,0.6,0.9,1s0.3,0.9,0.3,1.5s-0.1,1-0.3,1.5c-0.2,0.4-0.5,0.8-0.9,1S99.4,30,99,30
	c-0.5,0-1-0.1-1.4-0.4c-0.4-0.2-0.7-0.6-0.9-1C96.4,28.2,96.3,27.7,96.3,27.2z"/>
</svg>
