<?xml version="1.0" encoding="utf-8"?>
<!-- Generator: Adobe Illustrator 19.2.1, SVG Export Plug-In . SVG Version: 6.00 Build 0)  -->
<!DOCTYPE svg PUBLIC "-//W3C//DTD SVG 1.1//EN" "http://www.w3.org/Graphics/SVG/1.1/DTD/svg11.dtd">
<svg version="1.1" id="Layer_1" xmlns="http://www.w3.org/2000/svg" xmlns:xlink="http://www.w3.org/1999/xlink" x="0px" y="0px"
	 viewBox="0 0 204.6 52.8" style="enable-background:new 0 0 204.6 52.8;" xml:space="preserve">
<style type="text/css">
	.st0{clip-path:url(#SVGID_2_);fill:url(#SVGID_3_);}
	.st1{clip-path:url(#SVGID_5_);fill:url(#SVGID_6_);}
	.st2{clip-path:url(#SVGID_8_);fill:url(#SVGID_9_);}
	.st3{clip-path:url(#SVGID_11_);fill:url(#SVGID_12_);}
	.st4{clip-path:url(#SVGID_14_);fill:url(#SVGID_15_);}
	.st5{clip-path:url(#SVGID_17_);fill:url(#SVGID_18_);}
	.st6{clip-path:url(#SVGID_20_);fill:url(#SVGID_21_);}
	.st7{clip-path:url(#SVGID_23_);fill:url(#SVGID_24_);}
	.st8{clip-path:url(#SVGID_26_);fill:url(#SVGID_27_);}
	.st9{clip-path:url(#SVGID_29_);fill:url(#SVGID_30_);}
	.st10{fill:#8B0304;}
</style>
<g>
	<g>
		<defs>
			<polygon id="SVGID_1_" points="32.2,52.8 6.7,48.3 6.7,8.5 32.2,0 			"/>
		</defs>
		<clipPath id="SVGID_2_">
			<use xlink:href="#SVGID_1_"  style="overflow:visible;"/>
		</clipPath>
		
			<linearGradient id="SVGID_3_" gradientUnits="userSpaceOnUse" x1="-295.4065" y1="127.1942" x2="-294.9465" y2="127.1942" gradientTransform="matrix(27.9569 -59.9537 -46.3644 -21.6201 14170.541 -14924.0244)">
			<stop  offset="0" style="stop-color:#007DC5"/>
			<stop  offset="1" style="stop-color:#03428E"/>
		</linearGradient>
		<polygon class="st0" points="27.6,62.5 52.4,9.4 11.3,-9.8 -13.5,43.3 		"/>
	</g>
</g>
<g>
	<g>
		<defs>
			<path id="SVGID_4_" d="M32.2,20.2c-0.9,0.6-1.7,1-2.4,1.2c-2,0.4-4.2-2-4.2-2s0.5,3.6-0.8,5.8c-1.4,2.3-5.7,5.2-5.7,5.2
				s4.8-1,5.8,0.6c1,1.7,1.1,7.4,1.1,7.4s2.5-6.9,4.7-7.9c0.4-0.2,1-0.4,1.6-0.5L32.2,20.2L32.2,20.2z"/>
		</defs>
		<clipPath id="SVGID_5_">
			<use xlink:href="#SVGID_4_"  style="overflow:visible;"/>
		</clipPath>
		
			<linearGradient id="SVGID_6_" gradientUnits="userSpaceOnUse" x1="-303.8335" y1="117.8929" x2="-303.6735" y2="117.8929" gradientTransform="matrix(8.0853 -21.9911 -18.3568 -6.7491 4645.8516 -5855.9355)">
			<stop  offset="0" style="stop-color:#B11116"/>
			<stop  offset="0.25" style="stop-color:#ED1C24"/>
			<stop  offset="1" style="stop-color:#ED1C24"/>
		</linearGradient>
		<polygon class="st1" points="30.6,42.5 38.3,21.5 20.6,15 12.9,36 		"/>
	</g>
</g>
<g>
	<g>
		<defs>
			<path id="SVGID_7_" d="M32.2,20.2c-0.9,0.6-1.7,1-2.4,1.2c-2,0.4-4.2-2-4.2-2s0.5,3.6-0.8,5.8c-1.4,2.3-5.7,5.2-5.7,5.2
				s4.8-1,5.8,0.6c1,1.7,1.1,7.4,1.1,7.4s2.5-6.9,4.7-7.9c0.4-0.2,1-0.4,1.6-0.5L32.2,20.2L32.2,20.2z"/>
		</defs>
		<clipPath id="SVGID_8_">
			<use xlink:href="#SVGID_7_"  style="overflow:visible;"/>
		</clipPath>
		
			<linearGradient id="SVGID_9_" gradientUnits="userSpaceOnUse" x1="-305.3369" y1="118.1981" x2="-305.1569" y2="118.1981" gradientTransform="matrix(5.9133 -22.0687 -17.517 -4.6937 3901.2524 -6153.3599)">
			<stop  offset="0" style="stop-color:#B11116"/>
			<stop  offset="0.65" style="stop-color:#ED1C24"/>
			<stop  offset="1" style="stop-color:#ED1C24"/>
		</linearGradient>
		<polygon class="st2" points="31.3,41.6 36.9,20.6 20,16 14.3,37 		"/>
	</g>
</g>
<g>
	<g>
		<defs>
			<path id="SVGID_10_" d="M0,41c0,0,4.5-4.9,5.6-7.5c1-2.5-1.8-6.6-1.8-6.6s4.5,2.4,6.5,1.1c2.1-1.3,5.2-5.2,5.2-5.2
				s-1.6,4.2-1,5.7c0.7,1.6,4.5,1.7,4.5,1.7s-4.4,2.8-6.4,4.6C10.5,36.7,9,43.6,9,43.6S7.9,39,6.6,38.2C5.4,37.5,0,41,0,41"/>
		</defs>
		<clipPath id="SVGID_11_">
			<use xlink:href="#SVGID_10_"  style="overflow:visible;"/>
		</clipPath>
		
			<linearGradient id="SVGID_12_" gradientUnits="userSpaceOnUse" x1="-289.2673" y1="146.6214" x2="-288.8473" y2="146.6214" gradientTransform="matrix(-26.7152 18.7061 18.7877 26.8318 -10469.4189 1507.6665)">
			<stop  offset="0" style="stop-color:#FFE600"/>
			<stop  offset="1" style="stop-color:#F58220"/>
		</linearGradient>
		<polygon class="st3" points="12.8,13.8 -9.8,29.6 6.3,52.6 28.9,36.8 		"/>
	</g>
</g>
<g>
	<g>
		<defs>
			<path id="SVGID_13_" d="M7.3,38.8L7.3,38.8H7.2c0.1,0.2,0.2,0.3,0.3,0.5l0,0c0,0.1,0.1,0.1,0.1,0.2l0,0c0,0.1,0.1,0.1,0.1,0.2
				l0,0c0,0.1,0.1,0.1,0.1,0.2l0,0c0,0.1,0.1,0.1,0.1,0.2l0,0c0,0.1,0.1,0.1,0.1,0.2v0.1v0.1c0,0,0,0.1,0.1,0.1c0,0,0,0,0,0.1
				s0,0.1,0.1,0.2c0,0,0,0,0,0.1s0,0.1,0.1,0.2l0,0C8.7,42.3,9,43.3,9,43.6l0,0l0,0l0,0l0,0l0,0c0,0,0-0.1,0-0.2l0,0c0,0,0,0,0-0.1
				c0-0.2,0.1-0.4,0.2-0.7C8.9,41.3,8.1,39.3,7.3,38.8 M15.4,29.4L15.4,29.4c0.6,0.7,2,1.1,3,1.2c0.1,0,0.1-0.1,0.1-0.1
				c0.3-0.2,0.5-0.3,0.5-0.3S16.8,30.2,15.4,29.4z M10.4,28c-2.1,1.3-6.5-1.1-6.5-1.1s2.9,4.1,1.8,6.6C4.6,36.1,0.1,41,0.1,41
				s1-0.7,2.2-1.3c1.4-1.7,3.3-4.1,4-5.7c1-2.5-1.8-6.6-1.8-6.6S9,29.8,11,28.5c1.2-0.8,2.8-2.4,3.9-3.7c0.3-1.1,0.7-2,0.7-2
				S12.4,26.7,10.4,28z"/>
		</defs>
		<clipPath id="SVGID_14_">
			<use xlink:href="#SVGID_13_"  style="overflow:visible;"/>
		</clipPath>
		
			<linearGradient id="SVGID_15_" gradientUnits="userSpaceOnUse" x1="-294.5223" y1="120.2827" x2="-294.4023" y2="120.2827" gradientTransform="matrix(23.5856 -19.7907 -19.9078 -23.7252 9350.2471 -2941.5769)">
			<stop  offset="0" style="stop-color:#FFE600"/>
			<stop  offset="1" style="stop-color:#F58220"/>
		</linearGradient>
		<polygon class="st4" points="7.9,53 29.3,35 11.2,13.4 -10.2,31.4 		"/>
	</g>
</g>
<g>
	<g>
		<defs>
			<path id="SVGID_16_" d="M26.1,44.1L26.1,44.1c0,0-0.4-0.7,0.5-0.7c0.8-0.1,2.7-0.1,2.7-0.1s-2.1-0.3-2.7-0.5
				c-0.6-0.2-0.4-0.6-0.4-0.6s-1.1,0.2-2,0.2c-1,0-2.9-0.4-2.9-0.4s1.3,0.4,1.1,0.7c-0.1,0.2-2.1,0.5-2.1,0.5s2.7,0,3.6,0.2
				C24.7,43.5,26.1,44.1,26.1,44.1 M18.8,43.9L18.8,43.9c-0.1-0.3,1.5-0.7,1.5-0.7s-2.3,0.1-3.6,0c-1.3-0.1-2.6-0.7-2.6-0.7
				s0.2,0.6-0.8,0.8s-4.2,0.3-4.2,0.3s3.4,0.2,4,0.5s0.4,1.2,0.4,1.2s1.9-0.8,3.3-0.8s4.2,0.2,4.2,0.2S18.8,44.2,18.8,43.9z
				 M29.6,46c0.2-0.4,2-0.7,2-0.7S29.2,45.2,28,45c-1.2-0.2-1.9-0.9-1.9-0.9s-0.3,0.6-1.3,0.8c-1.1,0.2-3.9,0-3.9,0s2.7,0.6,3,0.9
				c0.3,0.4-0.6,1.3-0.6,1.3s2.4-0.7,3.7-0.5s4,0.8,4,0.8S29.4,46.4,29.6,46z"/>
		</defs>
		<clipPath id="SVGID_17_">
			<use xlink:href="#SVGID_16_"  style="overflow:visible;"/>
		</clipPath>
		
			<linearGradient id="SVGID_18_" gradientUnits="userSpaceOnUse" x1="-298.8779" y1="206.0845" x2="-298.3379" y2="206.0845" gradientTransform="matrix(-25.0551 0 0 5.3178 -7460.062 -1051.2664)">
			<stop  offset="0" style="stop-color:#007DC5"/>
			<stop  offset="1" style="stop-color:#034EA2"/>
		</linearGradient>
		<rect x="9.1" y="42" class="st5" width="22.5" height="5.3"/>
	</g>
</g>
<g>
	<g>
		<defs>
			<path id="SVGID_19_" d="M15.6,22.8c0,0,2.5-4,2.3-5.4c-0.1-1.3-2.7-1.8-2.7-1.8s3.3-0.8,4.8-2.2c1.4-1.3,2.6-4,2.6-4
				s0.3,2.2,1.6,2.6c1.3,0.3,4.7-1.1,4.7-1.1s-2.7,2.7-3.8,4.1c-1.1,1.5,0.5,4.4,0.5,4.4s-2.9-1-4.5-0.7
				C19.5,18.9,15.6,22.8,15.6,22.8"/>
		</defs>
		<clipPath id="SVGID_20_">
			<use xlink:href="#SVGID_19_"  style="overflow:visible;"/>
		</clipPath>
		
			<linearGradient id="SVGID_21_" gradientUnits="userSpaceOnUse" x1="-283.077" y1="152.0581" x2="-282.817" y2="152.0581" gradientTransform="matrix(-13.7107 16.3398 16.3357 13.7073 -6342.0566 2555.8318)">
			<stop  offset="0" style="stop-color:#FFFFFF"/>
			<stop  offset="1" style="stop-color:#BCBEC0"/>
		</linearGradient>
		<polygon class="st6" points="20.8,2.5 8.5,17.2 23.2,29.5 35.5,14.9 		"/>
	</g>
</g>
<g>
	<g>
		<defs>
			<path id="SVGID_22_" d="M20,13.3L20,13.3c-1.5,1.4-4.8,2.2-4.8,2.2s0.5,0.1,1.1,0.4c1-0.3,3.2-1,4.3-2.1c1-0.9,1.9-2.5,2.3-3.4
				c-0.2-0.6-0.3-1.1-0.3-1.1S21.4,12,20,13.3 M17.6,16.7L17.6,16.7c0.2,0.2,0.3,0.4,0.3,0.6c0.2,1.4-2.3,5.4-2.3,5.4
				s0.8-0.8,1.8-1.7c0.6-1.2,1.1-2.5,1.1-3.2C18.4,17.4,18,17,17.6,16.7z M24.2,11.9c-0.1,0-0.1,0-0.2-0.1c0.2,0.3,0.5,0.5,0.8,0.6
				c0.7,0.2,2-0.1,3-0.5c0.6-0.7,1.1-1.1,1.1-1.1S25.4,12.2,24.2,11.9z"/>
		</defs>
		<clipPath id="SVGID_23_">
			<use xlink:href="#SVGID_22_"  style="overflow:visible;"/>
		</clipPath>
		
			<linearGradient id="SVGID_24_" gradientUnits="userSpaceOnUse" x1="-294.5353" y1="112.0486" x2="-294.4753" y2="112.0486" gradientTransform="matrix(16.0808 -11.2599 -11.2064 -16.0044 6013.8315 -1507.009)">
			<stop  offset="0" style="stop-color:#FFFFFF"/>
			<stop  offset="1" style="stop-color:#BCBEC0"/>
		</linearGradient>
		<polygon class="st7" points="19.7,29.2 35.2,18.3 24.4,2.8 8.8,13.7 		"/>
	</g>
</g>
<g>
	<g>
		<defs>
			<path id="SVGID_25_" d="M24.8,30.8L24.8,30.8L24.8,30.8c1,1.7,1.1,7.5,1.1,7.5s0.2-0.5,0.5-1.3c-0.1-1.8-0.4-4.6-1-5.6
				C25.3,31.1,25.1,31,24.8,30.8 M29.8,21.3L29.8,21.3c-1.2,0.2-2.4-0.5-3.2-1.1c0.7,0.7,2.3,1.9,3.8,1.6c0.5-0.1,1.1-0.4,1.8-0.9
				v-0.7C31.3,20.7,30.4,21.2,29.8,21.3z M26.2,19.9c-0.4-0.3-0.6-0.6-0.6-0.6s0.5,3.6-0.8,5.8c-1.4,2.3-5.7,5.2-5.7,5.2
				s0.7-0.1,1.7-0.2c1.4-1,3.7-2.9,4.7-4.5C26.6,23.5,26.2,20.3,26.2,19.9z"/>
		</defs>
		<clipPath id="SVGID_26_">
			<use xlink:href="#SVGID_25_"  style="overflow:visible;"/>
		</clipPath>
		
			<linearGradient id="SVGID_27_" gradientUnits="userSpaceOnUse" x1="-284.6003" y1="149.0579" x2="-284.3603" y2="149.0579" gradientTransform="matrix(-16.8845 20.1221 19.528 16.3859 -7689.5557 3311.9299)">
			<stop  offset="0" style="stop-color:#B11116"/>
			<stop  offset="0.35" style="stop-color:#ED1C24"/>
			<stop  offset="1" style="stop-color:#ED1C24"/>
		</linearGradient>
		<polygon class="st8" points="24.5,12.8 9.7,30.4 26.8,44.7 41.5,27.1 		"/>
	</g>
</g>
<g>
	<g>
		<defs>
			<path id="SVGID_28_" d="M28,21.2c1.3,1.7,2.8,6.2,3.6,8.8c0.2-0.1,0.4-0.1,0.6-0.2v-8.9c-0.7,0.4-1.3,0.8-1.8,0.9
				C29.6,22,28.7,21.7,28,21.2"/>
		</defs>
		<clipPath id="SVGID_29_">
			<use xlink:href="#SVGID_28_"  style="overflow:visible;"/>
		</clipPath>
		
			<linearGradient id="SVGID_30_" gradientUnits="userSpaceOnUse" x1="-309.6392" y1="130.8191" x2="-309.1592" y2="130.8191" gradientTransform="matrix(-7.9636 -21.8799 -14.6727 5.3404 -516.6339 -7448.9922)">
			<stop  offset="0" style="stop-color:#9E0B0F"/>
			<stop  offset="0.35" style="stop-color:#ED1C24"/>
			<stop  offset="1" style="stop-color:#ED1C24"/>
		</linearGradient>
		<polygon class="st9" points="35.1,29 31.7,19.6 25.1,22 28.5,31.4 		"/>
	</g>
</g>
<path class="st10" d="M30.3,21.2c-0.1,0.1-0.3,0.1-0.5,0.1l0,0c-0.4,0.1-0.7,0.1-1.1,0c0,0,0,0-0.1,0c0,0,0,0-0.1,0
	c-0.3-0.1-0.5-0.2-0.8-0.3c0,0,0,0-0.1,0l0,0c0.1,0.1,0.2,0.2,0.3,0.3c0.7,0.4,1.6,0.7,2.4,0.6c0.5-0.1,1.1-0.4,1.8-0.9v-0.8
	C31.5,20.6,30.9,20.9,30.3,21.2"/>
<path d="M50.3,39.6l-2.2-3.5c-0.2-0.4-0.4-0.7-0.6-1c0,0.6,0.1,2.1,0.1,3v1.5h-0.5v-5h0.6l2.2,3.4c0.2,0.3,0.4,0.7,0.6,1
	c0-0.7-0.1-2.2-0.1-3.2v-1.3h0.5v5L50.3,39.6L50.3,39.6z"/>
<path d="M54.5,35.8L54.5,35.8c-0.1-0.2-0.2-0.5-0.2-0.7l0,0c-0.1,0.2-0.1,0.5-0.2,0.7l-0.8,2.1h2L54.5,35.8z M55.9,39.6l-0.4-1.3
	h-2.3l-0.5,1.3h-0.5l1.9-5h0.5l1.9,5C56.5,39.6,55.9,39.6,55.9,39.6z"/>
<path d="M58.7,34.9L58.7,34.9c-0.2,0-0.3,0-0.5,0v1.9c0.1,0,0.2,0,0.5,0c0.8,0,1.3-0.4,1.3-1C59.9,35.1,59.5,34.9,58.7,34.9
	 M60.1,39.6l-1.9-2.4l0,0v2.4h-0.5v-5c0.3,0,0.6,0,1.1,0c0.9,0,1.6,0.3,1.6,1.2s-0.8,1.4-1.7,1.4c0.1,0.2,0.3,0.4,0.5,0.5l1.6,1.9
	C60.8,39.6,60.1,39.6,60.1,39.6z"/>
<path d="M63.9,34.9L63.9,34.9c-0.9,0-1.8,0.8-1.8,2.1s0.6,2.2,1.7,2.2c0.9,0,1.8-0.8,1.8-2.1C65.7,35.7,65,34.9,63.9,34.9
	 M63.8,39.6c-1.5,0-2.2-1-2.2-2.5c0-1.7,1.1-2.6,2.3-2.6c1.4,0,2.2,0.9,2.2,2.5C66.2,38.7,65.1,39.6,63.8,39.6z"/>
<path d="M69,34.9L69,34.9c-0.3,0-0.7,0-0.9,0v4.2c0.2,0,0.6,0.1,0.8,0.1c1.3,0,2.3-0.7,2.3-2.1C71.1,35.6,70.4,34.9,69,34.9
	 M68.8,39.6c-0.5,0-0.8,0-1.2,0v-5c0.4,0,0.9,0,1.4,0c1.6,0,2.6,0.8,2.6,2.5C71.6,38.7,70.4,39.6,68.8,39.6z"/>
<path d="M75,34.9L75,34.9c-0.9,0-1.8,0.8-1.8,2.1s0.6,2.2,1.7,2.2c0.9,0,1.8-0.8,1.8-2.1C76.7,35.7,76.1,34.9,75,34.9 M74.9,39.6
	c-1.5,0-2.2-1-2.2-2.5c0-1.7,1.1-2.6,2.3-2.6c1.4,0,2.2,0.9,2.2,2.5C77.3,38.7,76.2,39.6,74.9,39.6z"/>
<path d="M83.3,39.6h-0.6l-1.1-3.8c-0.1-0.3-0.1-0.5-0.2-0.8l0,0c0,0.2-0.1,0.5-0.2,0.8l-1.1,3.8h-0.6l-1.4-5h0.5l1,3.6
	c0.1,0.3,0.2,0.6,0.2,0.9l0,0c0.1-0.3,0.1-0.6,0.2-0.9l1-3.7h0.6l1.1,3.7c0.1,0.3,0.1,0.5,0.2,0.8l0,0c0-0.3,0.1-0.5,0.2-0.7l1-3.8
	h0.5L83.3,39.6z"/>
<path d="M87.4,35.8L87.4,35.8c-0.1-0.2-0.2-0.5-0.2-0.7l0,0c-0.1,0.2-0.1,0.5-0.2,0.7l-0.8,2.1h2L87.4,35.8z M88.8,39.6l-0.5-1.3H86
	l-0.5,1.3H85l1.9-5h0.5l1.9,5H88.8z"/>
<path d="M93.1,39.6c-0.4,0-0.7,0-1-0.1V39c0.3,0.1,0.7,0.2,1,0.2c0.7,0,1.3-0.3,1.3-1c0-1.2-2.4-0.8-2.4-2.4c0-0.8,0.6-1.4,1.7-1.4
	c0.3,0,0.6,0,0.9,0.1v0.4c-0.3-0.1-0.6-0.1-0.9-0.1c-0.8,0-1.2,0.4-1.2,0.9c0,1.2,2.4,0.8,2.4,2.3C94.8,39,94.2,39.6,93.1,39.6"/>
<polygon points="97.3,34.9 97.3,39.6 96.8,39.6 96.8,34.9 95.2,34.9 95.2,34.6 98.8,34.6 98.8,34.9 "/>
<path d="M100.7,34.9L100.7,34.9c-0.2,0-0.3,0-0.5,0v1.9c0.1,0,0.2,0,0.5,0c0.8,0,1.3-0.4,1.3-1C101.9,35.1,101.5,34.9,100.7,34.9
	 M102.1,39.6l-1.9-2.4l0,0v2.4h-0.5v-5c0.3,0,0.6,0,1.1,0c0.9,0,1.6,0.3,1.6,1.2s-0.7,1.4-1.7,1.4c0.1,0.2,0.3,0.4,0.5,0.5l1.6,1.9
	C102.8,39.6,102.1,39.6,102.1,39.6z"/>
<path d="M105.4,35.8L105.4,35.8c-0.1-0.2-0.2-0.5-0.2-0.7l0,0c-0.1,0.2-0.1,0.5-0.2,0.7l-0.8,2.1h2L105.4,35.8z M106.8,39.6
	l-0.5-1.3H104l-0.5,1.3H103l1.9-5h0.5l1.9,5H106.8z"/>
<polygon points="109.2,34.9 109.2,39.6 108.7,39.6 108.7,34.9 107.1,34.9 107.1,34.6 110.7,34.6 110.7,34.9 "/>
<polygon points="111.6,39.6 111.6,34.6 114,34.6 114,34.9 112,34.9 112,36.8 113.9,36.8 113.9,37.2 112,37.2 112,39.2 114,39.2 
	114,39.6 "/>
<path d="M119,35.2c-0.4-0.2-0.9-0.3-1.3-0.3c-1.1,0-2.1,0.7-2.1,2.2c0,1.4,0.8,2.2,2,2.2c0.4,0,0.7-0.1,1.1-0.2v-2h0.5v2.3
	c-0.5,0.2-1.1,0.3-1.6,0.3c-1.5,0-2.5-0.9-2.5-2.5c0-1.5,1-2.7,2.6-2.7c0.5,0,0.9,0.1,1.4,0.2L119,35.2z"/>
<rect x="120.6" y="34.6" width="0.5" height="5"/>
<path d="M124.3,35.8L124.3,35.8c-0.1-0.2-0.2-0.5-0.2-0.7l0,0c-0.1,0.2-0.1,0.5-0.2,0.7l-0.8,2.1h2L124.3,35.8z M125.7,39.6
	l-0.5-1.3h-2.3l-0.5,1.3h-0.5l1.9-5h0.5l1.9,5H125.7z"/>
<path d="M130.4,39.6c-0.4,0-0.7,0-1-0.1V39c0.3,0.1,0.7,0.2,1,0.2c0.7,0,1.3-0.3,1.3-1c0-1.2-2.4-0.8-2.4-2.4c0-0.8,0.6-1.4,1.7-1.4
	c0.3,0,0.6,0,0.9,0.1v0.4c-0.3-0.1-0.6-0.1-0.9-0.1c-0.8,0-1.2,0.4-1.2,0.9c0,1.2,2.4,0.8,2.4,2.3C132.2,39,131.5,39.6,130.4,39.6"
	/>
<path d="M134.5,34.9L134.5,34.9c-0.2,0-0.4,0-0.6,0v2.2c0.1,0,0.3,0,0.5,0c0.9,0,1.4-0.5,1.4-1.2C135.8,35.3,135.3,34.9,134.5,34.9
	 M134.3,37.6c-0.2,0-0.3,0-0.5,0v2h-0.5v-5c0.3,0,0.7,0,1.1,0c1.1,0,1.7,0.6,1.7,1.4C136.3,36.9,135.4,37.6,134.3,37.6z"/>
<path d="M138.9,34.1L138.9,34.1l-0.2-0.3l0.9-0.8l0.3,0.3L138.9,34.1z M139.2,34.9L139.2,34.9c-0.9,0-1.8,0.8-1.8,2.1
	s0.6,2.2,1.7,2.2c0.9,0,1.8-0.8,1.8-2.1C140.9,35.7,140.3,34.9,139.2,34.9z M139.1,39.6c-1.5,0-2.2-1-2.2-2.5c0-1.7,1.1-2.6,2.3-2.6
	c1.4,0,2.2,0.9,2.2,2.5C141.4,38.7,140.4,39.6,139.1,39.6z"/>
<path d="M142.3,39.6c-0.2,0-0.4,0-0.5-0.1v-0.4c0.1,0.1,0.4,0.1,0.5,0.1c0.4,0,0.7-0.2,0.7-0.9v-3.7h0.5v3.8
	C143.5,39.2,143.1,39.6,142.3,39.6"/>
<path d="M148.3,39.6l-2.2-3.5c-0.2-0.4-0.4-0.7-0.6-1c0,0.6,0.1,2.1,0.1,3v1.5h-0.5v-5h0.6l2.2,3.4c0.2,0.3,0.4,0.7,0.6,1
	c0-0.7-0.1-2.2-0.1-3.2v-1.3h0.5v5L148.3,39.6L148.3,39.6z"/>
<path d="M152.4,34.9L152.4,34.9c-0.9,0-1.8,0.8-1.8,2.1s0.6,2.2,1.7,2.2c0.9,0,1.8-0.8,1.8-2.1C154.1,35.7,153.5,34.9,152.4,34.9
	 M152.3,39.6c-1.5,0-2.2-1-2.2-2.5c0-1.7,1.1-2.6,2.3-2.6c1.4,0,2.2,0.9,2.2,2.5C154.6,38.7,153.6,39.6,152.3,39.6z"/>
<path d="M156.5,34.1L156.5,34.1l-0.2-0.3l0.9-0.8l0.3,0.3L156.5,34.1z M156.4,39.6c-0.4,0-0.7,0-1-0.1V39c0.3,0.1,0.7,0.2,1,0.2
	c0.7,0,1.3-0.3,1.3-1c0-1.2-2.4-0.8-2.4-2.4c0-0.8,0.6-1.4,1.7-1.4c0.3,0,0.6,0,0.9,0.1v0.4c-0.3-0.1-0.6-0.1-0.9-0.1
	c-0.8,0-1.2,0.4-1.2,0.9c0,1.2,2.4,0.8,2.4,2.3C158.2,39,157.5,39.6,156.4,39.6z"/>
<path d="M161.3,39.6c-1.5,0-2.2-0.9-2.2-2.5c0-1.5,0.7-2.7,2.4-2.7c0.4,0,0.8,0.1,1.2,0.2l-0.1,0.4c-0.4-0.1-0.8-0.2-1.2-0.2
	c-1.3,0-1.8,1-1.8,2.2c0,1.3,0.6,2.1,1.9,2.1c0.4,0,0.9-0.1,1.2-0.3l0.1,0.4C162.3,39.5,161.8,39.6,161.3,39.6"/>
<rect x="164" y="34.6" width="0.5" height="5"/>
<path d="M49.5,21.5L49.5,21.5c-0.3,0-0.6,0-0.8,0v3.7c0.2,0,0.5,0.1,0.7,0.1c1.4,0,2.2-0.8,2.2-1.9C51.6,22.2,50.9,21.5,49.5,21.5
	 M49.4,26.6c-0.2,0-0.5,0-0.7,0v3.7h-1.6V20.2c0.8,0,1.6-0.1,2.6-0.1c2.4,0,3.7,1.2,3.7,3C53.3,25.1,51.7,26.6,49.4,26.6z"/>
<path d="M57.5,21.5L57.5,21.5c-0.3,0-0.6,0-0.8,0v3.2c0.1,0,0.4,0,0.8,0c1.3,0,2.1-0.7,2.1-1.7S58.9,21.5,57.5,21.5 M59.9,30.3
	L56.8,26h-0.1v4.3h-1.6V20.2c0.7,0,1.6-0.1,2.7-0.1c2.1,0,3.5,0.7,3.5,2.7c0,1.6-1.2,2.6-2.8,2.8c0.3,0.4,0.6,0.7,0.8,1.1l2.6,3.5
	h-2V30.3z"/>
<path d="M67.5,21.4L67.5,21.4c-1.5,0-2.9,1.2-2.9,3.7c0,2.3,0.9,3.8,2.9,3.8c1.5,0,3-1.2,3-3.7S69.4,21.4,67.5,21.4 M67.4,30.3
	c-3,0-4.5-2-4.5-5.1c0-3.3,2.2-5.3,4.8-5.3c2.7,0,4.5,1.7,4.5,5C72.2,28.3,70,30.3,67.4,30.3z"/>
<path d="M81.7,21.9c-0.8-0.3-1.8-0.5-2.7-0.5c-2,0-3.6,1.3-3.6,3.8c0,2.3,1.3,3.7,3.5,3.7c0.6,0,1.1-0.1,1.5-0.2v-3.6H82v4.7
	c-1,0.4-2.2,0.6-3.4,0.6c-3.1,0-5-1.9-5-4.9c0-3.1,2.1-5.4,5.5-5.4c1,0,1.9,0.1,2.8,0.4L81.7,21.9z"/>
<path d="M87,21.5L87,21.5c-0.3,0-0.6,0-0.8,0v3.2c0.1,0,0.4,0,0.8,0c1.3,0,2.1-0.7,2.1-1.7C89,22,88.3,21.5,87,21.5 M89.3,30.3
	L86.2,26h-0.1v4.3h-1.6V20.2c0.7,0,1.6-0.1,2.7-0.1c2.1,0,3.5,0.7,3.5,2.7c0,1.6-1.2,2.6-2.8,2.8c0.3,0.4,0.6,0.7,0.8,1.1l2.6,3.5
	h-2V30.3z"/>
<path d="M96.8,23.6L96.8,23.6c-0.2-0.5-0.3-1-0.4-1.5l0,0c-0.1,0.5-0.3,1.1-0.5,1.6l-1.1,3.1H98L96.8,23.6z M99.1,30.3l-0.8-2.2
	h-4.1l-0.8,2.2h-1.6l3.6-10h1.8l3.6,10H99.1z"/>
<path d="M112.1,30.3l-0.8-5.3c-0.2-1.1-0.2-1.8-0.3-2.5l0,0c-0.1,0.6-0.3,1.2-0.5,2l-1.9,5.8h-1.7l-1.8-5.4
	c-0.3-0.8-0.5-1.6-0.6-2.4l0,0c-0.1,0.9-0.1,1.6-0.3,2.6l-0.6,5.2H102l1.5-10h1.9l1.9,5.8c0.2,0.7,0.4,1.4,0.6,2l0,0
	c0.1-0.7,0.3-1.2,0.5-2l2-5.9h1.9l1.5,10h-1.7V30.3z"/>
<path d="M121.5,21.5L121.5,21.5c-0.3,0-0.6,0-0.8,0v3.2c0.1,0,0.4,0,0.8,0c1.3,0,2.1-0.7,2.1-1.7C123.5,22,122.8,21.5,121.5,21.5
	 M123.8,30.3l-3.1-4.3h-0.1v4.3H119V20.2c0.7,0,1.6-0.1,2.7-0.1c2.1,0,3.5,0.7,3.5,2.7c0,1.6-1.2,2.6-2.8,2.8
	c0.3,0.4,0.6,0.7,0.8,1.1l2.6,3.5h-2V30.3z"/>
<polygon points="127.7,30.3 127.7,20.2 133,20.2 133,21.6 129.3,21.6 129.3,24.4 132.8,24.4 132.8,25.8 129.3,25.8 129.3,28.9 
	133,28.9 133,30.3 "/>
<path d="M142.8,21.9c-0.8-0.3-1.8-0.5-2.7-0.5c-2,0-3.6,1.3-3.6,3.8c0,2.3,1.3,3.7,3.5,3.7c0.6,0,1.1-0.1,1.5-0.2v-3.6h1.6v4.7
	c-1,0.4-2.2,0.6-3.4,0.6c-3.1,0-5-1.9-5-4.9c0-3.1,2.1-5.4,5.5-5.4c1,0,1.9,0.1,2.8,0.4L142.8,21.9z"/>
<rect x="145.6" y="20.2" width="1.6" height="10"/>
<path d="M153.8,21.4L153.8,21.4c-1.5,0-2.9,1.2-2.9,3.7c0,2.3,0.9,3.8,2.9,3.8c1.5,0,3-1.2,3-3.7S155.7,21.4,153.8,21.4 M153.7,30.3
	c-3,0-4.5-2-4.5-5.1c0-3.3,2.2-5.3,4.8-5.3c2.7,0,4.5,1.7,4.5,5C158.5,28.3,156.4,30.3,153.7,30.3z"/>
<path d="M166.5,30.3l-3.4-5.7c-0.4-0.7-0.8-1.4-1.1-2.1c0.1,1,0.1,3,0.1,4.4v3.4h-1.6V20.2h2.1l3.3,5.5c0.4,0.7,0.8,1.5,1.2,2.3
	c-0.1-1.1-0.1-3.3-0.1-4.8v-3h1.6v10L166.5,30.3L166.5,30.3z"/>
<path d="M175,23.6L175,23.6c-0.2-0.5-0.3-1-0.4-1.5l0,0c-0.1,0.5-0.3,1.1-0.5,1.6l-1.1,3.1h3.2L175,23.6z M177.3,30.3l-0.8-2.2h-4
	l-0.8,2.2h-1.6l3.6-10h1.8l3.6,10H177.3z"/>
<polygon points="180.6,30.3 180.6,20.2 182.2,20.2 182.2,28.8 185.6,28.8 185.6,30.3 "/>
<path d="M193.2,30.3l-3.4-5.7c-0.4-0.7-0.8-1.4-1.1-2.1c0.1,1,0.1,3,0.1,4.4v3.4h-1.6V20.2h2.1l3.3,5.5c0.4,0.7,0.8,1.5,1.2,2.3
	c-0.1-1.1-0.1-3.3-0.1-4.8v-3h1.6v10L193.2,30.3L193.2,30.3z"/>
<path d="M201.4,26.7v3.6h-1.6v-3.6l-3.1-6.4h1.8l1.5,3.2c0.3,0.6,0.5,1.2,0.7,1.7l0,0c0.2-0.6,0.5-1.2,0.8-1.9l1.4-3h1.7L201.4,26.7
	z"/>
</svg>
