<svg width="100" height="100" viewBox="0 0 100 100" fill="none" xmlns="http://www.w3.org/2000/svg">
<g clip-path="url(#clip0_1112_60)">
<path fill-rule="evenodd" clip-rule="evenodd" d="M50 0C63.8102 0 76.3102 5.59896 85.3516 14.6484C94.401 23.6979 100 36.1979 100 50C100 63.8021 94.401 76.3102 85.3516 85.3516C76.3021 94.401 63.8021 100 50 100C36.1898 100 23.6898 94.401 14.6484 85.3516C5.59896 76.3102 0 63.8102 0 50C0 36.1898 5.59896 23.6898 14.6484 14.6484C23.6898 5.59896 36.1898 0 50 0ZM39.1439 45.7275C40.7715 48.6572 42.6432 51.473 45.0765 54.0365C47.5098 56.6162 50.5453 58.9681 54.4759 60.9619C54.7607 61.1084 55.0456 61.1084 55.2897 61.0026C55.6641 60.8561 56.0384 60.555 56.4209 60.1807C56.7057 59.8958 57.0719 59.4238 57.4544 58.9193C58.96 56.9336 60.8317 54.4678 63.4684 55.6966C63.5254 55.721 63.5742 55.7536 63.6312 55.7861L72.4284 60.848C72.4528 60.8643 72.4854 60.8887 72.5179 60.9049C73.6816 61.7025 74.1618 62.9313 74.1699 64.3229C74.1699 65.7471 73.6491 67.3421 72.8841 68.693C71.8669 70.4753 70.3776 71.6471 68.6523 72.4365C67.0166 73.1852 65.1855 73.6003 63.4359 73.8525C60.6852 74.2594 58.1055 73.999 55.4606 73.1852C52.8809 72.3877 50.2767 71.0693 47.4447 69.3115L47.2412 69.1813C45.9391 68.3675 44.5313 67.4967 43.1478 66.4714C38.0941 62.6628 32.9427 57.1533 29.598 51.0905C26.7822 45.9961 25.2523 40.5029 26.0824 35.2702C26.5462 32.3975 27.7832 29.7852 29.9235 28.068C31.7952 26.5625 34.318 25.7324 37.5814 26.0254C37.9557 26.0498 38.2894 26.2695 38.4684 26.5951L44.1162 36.1328C44.9382 37.207 45.0439 38.265 44.5964 39.3229C44.222 40.1937 43.4652 40.9912 42.4316 41.748C42.1305 42.0085 41.7643 42.2689 41.3818 42.5456C40.1204 43.457 38.68 44.515 39.1764 45.7682L39.1439 45.7275Z" fill="white"/>
</g>
<defs>
<clipPath id="clip0_1112_60">
<rect width="100" height="100" fill="white"/>
</clipPath>
</defs>
</svg>
