<svg width="800" height="800" viewBox="0 0 800 800" fill="none" xmlns="http://www.w3.org/2000/svg">
<g clip-path="url(#clip0_1113_64)">
<path d="M400 0C620.914 0 800 179.086 800 400C800 620.914 620.914 800 400 800C179.086 800 0 620.914 0 400C0 179.086 179.086 0 400 0ZM277.502 105C248.659 105 225 128.66 225 157.551V642.214C225 671.057 248.66 694.716 277.551 694.668H522.498C551.34 694.668 575 671.056 575 642.166V157.502C575 128.659 551.34 105 522.449 105H277.502ZM399.976 585.393C418.74 585.393 434.002 600.605 434.002 619.418C434.002 638.183 418.74 653.443 399.976 653.443C381.163 653.443 365.95 638.23 365.95 619.418C365.95 600.654 381.211 585.393 399.976 585.393ZM528.688 208.325C533.391 208.325 537.23 212.212 537.23 216.867V552.854C537.23 557.509 533.343 561.396 528.688 561.396H271.312C266.657 561.396 262.77 557.557 262.77 552.854V216.819C262.77 212.164 266.608 208.325 271.312 208.325H528.688ZM454.206 147.521C454.974 147.521 455.646 148.192 455.646 148.96V164.797C455.646 165.565 454.974 166.236 454.206 166.236H345.794C345.026 166.236 344.354 165.613 344.354 164.797V148.96C344.354 148.144 344.978 147.521 345.794 147.521H454.206Z" fill="white"/>
</g>
<defs>
<clipPath id="clip0_1113_64">
<rect width="800" height="800" fill="white"/>
</clipPath>
</defs>
</svg>
