<?xml version="1.0" encoding="utf-8"?>
<!-- Generator: Adobe Illustrator 24.1.3, SVG Export Plug-In . SVG Version: 6.00 Build 0)  -->
<svg version="1.1" id="Layer_1" xmlns="http://www.w3.org/2000/svg" xmlns:xlink="http://www.w3.org/1999/xlink" x="0px" y="0px"
	 viewBox="0 0 68.03 68.03" style="enable-background:new 0 0 68.03 68.03;" xml:space="preserve">
<style type="text/css">
	.st0{fill:#FFFFFF;}
</style>
<polygon class="st0" points="33.74,13.43 35.94,14.96 35.16,12.4 37.3,10.78 34.62,10.72 33.74,8.19 32.86,10.72 30.18,10.78 
	32.32,12.4 31.54,14.96 "/>
<polygon class="st0" points="44.87,16.44 47.06,17.97 46.29,15.4 48.42,13.78 45.75,13.73 44.87,11.2 43.99,13.73 41.31,13.78 
	43.44,15.4 42.67,17.97 "/>
<polygon class="st0" points="52.99,24.53 55.19,26.06 54.41,23.5 56.54,21.88 53.87,21.82 52.99,19.29 52.11,21.82 49.43,21.88 
	51.56,23.5 50.79,26.06 "/>
<polygon class="st0" points="56.02,35.73 58.21,37.26 57.44,34.7 59.57,33.08 56.9,33.02 56.02,30.49 55.14,33.02 52.46,33.08 
	54.59,34.7 53.82,37.26 "/>
<polygon class="st0" points="53.01,46.88 55.21,48.41 54.43,45.85 56.57,44.23 53.89,44.17 53.01,41.64 52.13,44.17 49.45,44.23 
	51.59,45.85 50.81,48.41 "/>
<polygon class="st0" points="44.84,55 47.04,56.53 46.26,53.97 48.4,52.35 45.72,52.29 44.84,49.76 43.96,52.29 41.28,52.35 
	43.42,53.97 42.64,56.53 "/>
<polygon class="st0" points="33.74,57.98 35.94,59.51 35.16,56.95 37.3,55.33 34.62,55.27 33.74,52.74 32.86,55.27 30.18,55.33 
	32.32,56.95 31.54,59.51 "/>
<polygon class="st0" points="22.57,55.08 24.77,56.61 23.99,54.04 26.12,52.42 23.45,52.37 22.57,49.84 21.69,52.37 19.01,52.42 
	21.14,54.04 20.37,56.61 "/>
<polygon class="st0" points="14.39,46.88 16.59,48.41 15.82,45.85 17.95,44.23 15.27,44.17 14.39,41.64 13.51,44.17 10.84,44.23 
	12.97,45.85 12.19,48.41 "/>
<polygon class="st0" points="11.39,35.76 13.59,37.29 12.81,34.72 14.95,33.1 12.27,33.05 11.39,30.52 10.51,33.05 7.83,33.1 
	9.97,34.72 9.19,37.29 "/>
<polygon class="st0" points="14.45,24.56 16.64,26.09 15.87,23.52 18,21.9 15.32,21.85 14.45,19.32 13.57,21.85 10.89,21.9 
	13.02,23.52 12.25,26.09 "/>
<polygon class="st0" points="22.59,16.36 24.79,17.89 24.01,15.32 26.15,13.71 23.47,13.65 22.59,11.12 21.71,13.65 19.03,13.71 
	21.17,15.32 20.39,17.89 "/>
</svg>
