<?xml version="1.0" encoding="utf-8"?>
<!-- Generator: Adobe Illustrator 24.1.0, SVG Export Plug-In . SVG Version: 6.00 Build 0)  -->
<svg version="1.1" id="Layer_1" xmlns="http://www.w3.org/2000/svg" xmlns:xlink="http://www.w3.org/1999/xlink" x="0px" y="0px"
	 viewBox="0 0 207.7 165.3" style="enable-background:new 0 0 207.7 165.3;" xml:space="preserve">
<style type="text/css">
	.st0{fill:none;stroke:#FFFFFF;stroke-width:8;stroke-miterlimit:10;}
	.st1{fill:#FFFFFF;}
</style>
<circle class="st0" cx="135.8" cy="72.5" r="45.3"/>
<path class="st0" d="M103.6,104.3c-5.9,2.8-12.5,4.4-19.5,4.4c-25,0-45.3-20.3-45.3-45.3c0-0.6,0-1.1,0-1.6
	c-14.4,7.6-24.1,22.7-24.1,40.1c0,25,20.3,45.3,45.3,45.3c23.7,0,43.2-18.2,45.1-41.4C104.5,105.3,104,104.8,103.6,104.3z"/>
<path class="st0" d="M90.5,72.5c0-18,10.5-33.6,25.7-40.9C108,23.3,96.6,18.2,84,18.2c-25,0-45.3,20.3-45.3,45.3S59,108.8,84,108.8
	c7,0,13.6-1.6,19.6-4.4C95.5,96.2,90.5,84.9,90.5,72.5z"/>
<g>
	<path class="st1" d="M111.9,82.8c0-0.6,0.1-1.1,0.2-1.6c0.1-0.5,0.4-0.9,0.7-1.4l11-15.6c0.3-0.5,0.6-0.9,0.9-1.3
		c0.3-0.3,0.5-0.6,0.8-0.9c0.3-0.3,0.5-0.5,0.7-0.7v-0.1c-0.2,0-0.4,0.1-0.7,0.1c-0.2,0-0.5,0-0.8,0c-0.3,0-0.6,0-0.9,0h-9
		c-1.6,0-2.4-0.8-2.4-2.4v-1.7c0-1.6,0.8-2.4,2.4-2.4h18.6c1.6,0,2.4,0.8,2.4,2.3V58c0,0.6-0.1,1.1-0.2,1.6
		c-0.1,0.5-0.4,0.9-0.7,1.4l-11,15.7c-0.6,0.9-1.2,1.6-1.7,2.1c-0.3,0.3-0.5,0.5-0.7,0.7v0.1c0.2,0,0.4,0,0.6,0c0.2,0,0.5,0,0.8-0.1
		c0.3,0,0.6,0,1,0h9.8c1.6,0,2.4,0.8,2.4,2.4v1.7c0,1.6-0.8,2.4-2.4,2.4h-19.4c-1.6,0-2.4-0.8-2.4-2.4V82.8z"/>
	<path class="st1" d="M140.6,77.1l-0.3,0.1c-0.5,0.2-0.9,0.2-1.4-0.2c-0.4-0.3-0.6-1-0.6-1.9v-2c0-1.3,0.4-2.1,1.1-2.6l1.1-0.6V57.4
		c0-1.6,0.8-2.4,2.4-2.4h2.8c1.6,0,2.4,0.8,2.4,2.4v8.2l1.5-0.9c0.8-0.5,1.5-0.6,2.1-0.3c0.5,0.3,0.8,1,0.8,1.9v2
		c0,1.3-0.5,2.2-1.6,2.9l-2.7,1.6v6.7h10.3c1.6,0,2.4,0.8,2.4,2.4v1.7c0,1.6-0.8,2.4-2.4,2.4H143c-1.6,0-2.4-0.8-2.4-2.4V77.1z"/>
</g>
</svg>
