<svg width="800" height="800" fill="none" xmlns="http://www.w3.org/2000/svg"><g clip-path="url(#a)"><path d="M400 0c220.914 0 400 179.086 400 400S620.914 800 400 800 0 620.914 0 400 179.086 0 400 0Z" fill="#fff"/><path d="m647.242 204 .733.005c30.965.394 56.025 25.729 56.025 56.808v278.374C704 570.511 678.544 596 647.242 596H152.758C121.456 596 96 570.511 96 539.187V260.813C96 229.489 121.456 204 152.758 204h494.484ZM436.728 424.086a62.595 62.595 0 0 1-36.731 11.916 62.579 62.579 0 0 1-35.696-11.183l-1.035-.733-6.208-4.491-213.319 154.27a35.649 35.649 0 0 0 9.019 1.156h494.477a35.662 35.662 0 0 0 9.017-1.156l-213.317-154.27-6.207 4.491ZM119.439 247.755a35.645 35.645 0 0 0-2.467 13.065v278.373c0 8.477 2.959 16.273 7.904 22.418l214.279-154.963-219.716-158.893Zm341.405 158.893 214.279 154.963c4.945-6.145 7.905-13.94 7.905-22.418V260.82a35.62 35.62 0 0 0-2.468-13.065L460.844 406.648ZM152.758 224.985a35.533 35.533 0 0 0-20.259 6.316l243.062 175.778.001.001a41.62 41.62 0 0 0 48.89 0l.001-.001L667.5 231.308a35.53 35.53 0 0 0-20.258-6.316h-4v-.007H152.758Z" fill="#000" stroke="#000" stroke-width="8"/></g><defs><clipPath id="a"><path fill="#fff" d="M0 0h800v800H0z"/></clipPath></defs></svg>