<svg xmlns="http://www.w3.org/2000/svg" viewBox="0 0 148.5 61.2" style="enable-background:new 0 0 148.5 61.2" xml:space="preserve"><path d="M15 24.7c-.9.2-1.7.4-2.4.7-.7.2-1.3.4-1.7.6-.4.2-.8.3-1.2.5-.4.2-.9.3-1.6.3s-1.3-.1-1.7-.2c-.5-.1-1.1-.2-1.9-.3-.8-.1-1.4-.1-1.7-.1-.3 0-.6.1-.8.3-.2.1-.4.2-.7.2-.3 0-.5 0-.7-.1-.2-.1-.3-.2-.5-.4-.1-.2-.1-.5-.1-1 .1-.4.2-.7.4-.9.2-.2.5-.3.8-.5.3-.2 1-.7 2-1.5s1.7-1.5 2.3-2.1c.6-.5 1.2-1.1 1.9-1.7.7-.6 1.2-1 1.4-1.4.3-.3.1-.4-.3-.4-.5.1-1.2.3-2.2.7-1 .4-1.6.7-1.8 1-.2.3-.5.4-.7.3-.2-.1-.4-.2-.5-.4-.1-.2-.1-.5-.1-1 .1-.4.4-.8 1-1.3.6-.4 1.3-.8 2.1-1.1.8-.3 1.5-.5 2.1-.7.6 0 1-.2 1.3-.2.3 0 .6 0 1.1.2.5.2.8.3.9.5.1.1.2.3.2.6v.9c0 .4-.2.8-.4 1.2-.2.4-.8 1-1.6 1.8-.8.7-1.5 1.4-2.1 2l-1.3 1.3c-.3.3-.7.6-1.2 1s-.5.5 0 .6c.5 0 1.2.1 2.3.3 1 .2 2 .4 2.7.5.8.1 1.5.2 2 .1s1.3-.2 2.4-.5c1.1 0 1.2-.1.3.2zm5.5-9.2c.4.3 1.1.5 2 .6.9.1 1.1.9.5 2.3-.6 1.4-1 2.5-1.2 3.3-.2.8-.3 1.4-.2 1.8.1.4.3.7.6.9.3.2.7.3 1.1.2.4-.1.8-.1 1.2-.3.4-.1.9-.4 1.6-.9.7-.4 1.3-1 1.9-1.6.6-.6 1.1-1.1 1.5-1.6.4-.5.6-.5.5-.1 0 .4-.1 1-.3 1.6-.1.6-.1 1.2.1 1.6.2.4.4.8.7 1.1.3.3.7.5 1.2.6.3.1.6.1.9 0-.1.1-.1.3-.1.4.1.6.4 1 .9 1.2.5.2.9.3 1.3.3s.9-.1 1.5-.2 1.1-.4 1.4-.7c.4-.3.8-.8 1.1-1.5.3-.7.4-1.5.3-2.4-.1-1-.3-1.6-.4-1.9-.1-.2-.1-.4-.1-.7.5-.3 1.1-.8 2-1.4 2.9-2 4.2-2.8 4-2.4-.2.4-.5 1.5-1 3.1s-.9 2.9-1.2 3.7c-.3.8-.4 1.3-.4 1.6.1.3.3.5.9.6.5.2.9.2 1 .1.2-.1.3-.3.5-.5l.6-1.2c.3-.5.9-1.3 1.9-2.2 1-1 1.7-1.4 2.1-1.4.4 0 .6.4.6 1 0 .7-.1 1.2-.2 1.8-.1.5-.2 1.1-.3 1.7-.1.6-.1 1 0 1.2.1.2.3.4.7.5.3.1.6-.1 1-.4.3-.4.5-.7.6-.9.1-.2.3-.7.7-1.4.4-.7 1-1.4 1.6-2 .7-.7 1.3-1.2 1.7-1.5.4-.3.8-.5 1.2-.6.4-.1.7.1.9.5.3.4.7 1 1.2 1.7.6.8 1.1 1.3 1.5 1.6.4.3.8.6 1.2.8.4.2.9.3 1.4.1.5-.1.9-.2 1.1-.4h.1c-.1.6-.1.9.1 1 .1.1.4.1.7 0 .3-.1.7-.4 1.1-1 .3-.4.5-.8.7-1.3.2-.1.5-.3.7-.4.6-.4.4-.3-.7.3.1-.2.2-.4.3-.7.3-.8.7-1.9 1-3.2.3-1.3.7-2.3 1-3.2.3-.8.2-1.3-.2-1.4-.5-.1-.9-.1-1.2-.1-.3.1-.8.3-1.4.7-.6.4-.7.6-.4.6.3 0 .3.5 0 1.6-.3 1-.7 2.2-1 3.7-.3 1.2-.5 2.1-.7 2.8h-.1c-.5-.1-1-.4-1.7-.9-.6-.5-1.2-1.3-1.8-2.4-.6-1.1-1.1-1.9-1.4-2.5-.4-.6-.8-1-1.3-1.2-.5-.2-1.1-.1-1.8.2s-1.6 1-2.6 2.1c-1 1-1.5 1.5-1.6 1.5-.1-.1-.2-.3-.2-.8 0-.4-.1-.9-.2-1.2-.1-.3-.4-.7-1-.9-.5-.3-1.1-.3-1.6 0-.6.3-1.3.9-2.2 1.9-.8 1-.9.9-.2-.5s1.1-2.3 1-2.8c-.1-.5-.2-.8-.2-1.1-.1-.3-.2-.5-.3-.8-.1-.3-.4-.4-.8-.5-.4 0-.9.4-1.5 1.2-.6.8-1.5 1.7-2.8 2.6-1.1.8-2.2 1.6-3.3 2.5 0-.2 0-.5.1-.8.1-.9.4-1.6.9-2.2.5-.6 1-1 1.5-1s.8-.2 1.1-.5c.3-.3.3-.7.2-1-.1-.3-.5-.5-1.2-.4-.7.1-1.3.3-2 .6s-1.2.7-1.7 1.2-.8 1-1 1.6c-.2.6-.2 1.6 0 2.8.2 1.3.3 2.1.4 2.4 0 .4 0 .8-.2 1.2-.1.4-.3.8-.6 1.1-.3.3-.6.5-1.1.7-.5.2-.9.1-1.2-.3-.1-.1-.1-.2-.1-.3l.7-.7c.5-.5 1-1.2 1.6-1.9.6-.7.5-.7-.3.1-.4.4-.8.8-1.2 1 .3-.3.6-.7 1.1-1.2 1.5-1.5 1.4-1.5-.4.1-.5.5-1 .9-1.3 1.3h-.2c-.6.1-1.1 0-1.4-.4-.3-.3-.3-1-.2-1.8.1-.9.3-1.9.6-3.1.3-1.2.4-1.9.3-2.1-.1-.2-.3-.3-.5-.3-.3-.1-.5 0-.9.2-.3.2-1.3 1.1-3.1 2.8-1.7 1.7-2.9 2.7-3.6 2.9-.7.2-.7-.5.1-2.2.7-1.7 1.1-2.7 1.2-3.1.1-.4.1-.7.1-1-.1-.3-.3-.5-.6-.6-.3-.1-.6-.1-1-.1-.3.1-.7.3-1.1.8-.4.4-1.1.5-2.1.1-.9.3-1.1.3-.7.6zm56.1 8.2c-.4.3-1 .5-1.6.8-.7.2-1.3.3-2 .2-.7-.1-1.1-.2-1.5-.4-.3-.2-.6-.5-.9-.8-.3-.3-.5-.6-.7-1-.2-.4-.3-1-.3-1.6 0-.7.1-1.4.5-2.2.3-.8.7-1.5 1.1-2 .4-.5 1-1.1 1.7-1.6.6-.4 1.3-.8 2-1-.1 0-.1-.1-.2-.1-.7-.4-1.5-1.1-2.3-2-.8-.9-1.4-1.5-1.8-2-.4-.4-.6-.7-.8-.7-.1-.1-.3-.1-.4-.1-.1 0-.3-.2-.7-.5-.4-.3-.5-.7-.4-1.1.1-.4.2-.8.4-1 .2-.2.5-.4.9-.5.4-.1.9 0 1.2.3.3.3.6.9.7 1.9.1 1 .4 1.9 1 2.9.6.9 1.3 1.7 2.1 2.2.2.2.5.3.7.5 1-.1 1.7.1 1.9.5.2.4.3 1 .3 1.7s-.3 1.3-1 1.7c-.6.5-1.5 1-2.5 1.4-.3.1-.5.2-.8.2h-.6c-.1 0-.3-.1-.4-.1H72c-.3.5-.4 1-.4 1.4 0 .5.1.9.5 1.3.3.4.7.6 1.1.7.4.1.8.1 1.2 0 .4-.1 1.2-.4 2.3-.8 1.1-.5 1.9-.9 2.4-1.3l.8-.8c.1-.5.2-1 .4-1.4.3-.7.8-1.4 1.4-2 .6-.7 1.7-1.3 3.2-1.9 1.6-.6 2.6-.8 3.2-.5.6.3.9.8.8 1.4 0 .6-.6 1-1.7 1s-2.1.3-2.9.9c-.8.5-1.3 1.3-1.6 2.4-.2 1 0 1.8.6 2.4.7.5 1.3.8 2 .7.7 0 1.2-.1 1.8-.3.5-.2 1.1-.4 1.8-.8.5-.3 1-.6 1.5-1 .2-.9.5-2 1-3.3 1-3.2 2.1-6.4 3.3-9.4 1.2-3.1 2-4.9 2.2-5.6.2-.7.6-1.4 1.2-2.2.8-.2 1.5-.1 2.1.3.5.4.4 1.1-.3 2.1S98.1 5.8 96.8 9c-1.3 3.3-2.2 5.6-2.6 7-.4 1.4-.4 1.9-.1 1.5.3-.4.7-.7 1-1 .3-.3.7-.6 1.1-.9.4-.3.8-.5 1.1-.7.3-.1.7-.3 1.1-.3.4-.1.8 0 1.1.2.3.2.6.4.8.7.2.3.3.8.3 1.6s0 1.6-.1 2.4c-.1.8-.1 1.5 0 1.9.1.4.3.8.6 1.1.3.3.8.4 1.5.2.6-.1 1.2-.4 1.5-.7-.1-.3-.1-.6-.1-1 0-.7.1-1.4.5-2.2.3-.8.7-1.5 1.1-2 .4-.5 1-1.1 1.7-1.6s1.5-.9 2.5-1.1c1.1-.1 1.7.1 2 .5.2.4.3 1 .3 1.7s-.3 1.3-1 1.7c-.6.5-1.5 1-2.5 1.4-.3.1-.5.2-.8.2h-.6c-.1 0-.3-.1-.4-.1h-.2c-.3.5-.4 1-.4 1.4 0 .5.1.9.5 1.3.3.4.7.6 1.1.7.4.1.8.1 1.2 0 .4-.1 1.2-.4 2.3-.8 1.1-.5 1.9-.9 2.4-1.3.4-.4.9-.8 1.3-1.2.4-.4.5-.4.2 0s-.7.9-1.1 1.4c-.4.5-1 1.1-1.6 1.6-.6.5-1.2 1-1.6 1.2-.4.3-1 .5-1.6.8-.7.2-1.3.3-2 .2-.7-.1-1.1-.2-1.5-.4-.3-.2-.6-.5-.9-.8-.3-.3-.5-.6-.7-1 0 0 0-.1-.1-.1-.2.3-.4.5-.7.8-.4.4-1 .7-1.6 1-.6.3-1.1.4-1.5.4-.4 0-.8-.1-1.2-.5-.4-.3-.7-.8-.8-1.4-.1-.6-.2-1.6-.1-2.9.1-1.3 0-2.1-.3-2.3-.3-.3-1 0-2.1.9-1.1.8-2 1.8-2.5 2.8-.6 1-1 1.9-1.3 2.6-.3.7-.6 1-1 .9-.4-.1-.7-.3-1-.5-.2-.3-.3-.6-.3-1.1 0-.2.1-.8.3-1.7-.5.5-1.1 1-1.6 1.4-.7.6-1.4 1.1-2 1.3-.6.3-1.1.5-1.7.6-.5.1-1.2.1-2 .1-.8-.1-1.5-.4-2.2-1.2-.7-.7-1-1.6-1-2.6v-.6c-.1.2-.3.3-.4.5-.4.5-1 1.1-1.6 1.6 0 .3-.5.7-.9 1.1zm31.6-6.2c.1.1.4.1.8-.2.4-.2.8-.5 1-.7.3-.2.3-.5.1-.7-.1-.1-.4-.1-.8.2-.4.2-.8.5-1 .8-.2.3-.3.5-.1.6zm-34.6 0c.1.1.4.1.8-.2.4-.2.8-.5 1-.7.3-.2.3-.5.1-.7-.1-.1-.4-.1-.8.2-.4.2-.8.5-1 .8-.2.3-.2.5-.1.6zm39.9.8c2.9-2 4.2-2.8 4-2.4-.2.4-.5 1.5-1 3.1s-.9 2.9-1.2 3.7c-.3.8-.4 1.3-.4 1.6.1.3.3.5.9.6.5.2.9.2 1 .1.2-.1.3-.3.5-.5l.6-1.2c.3-.5.9-1.3 1.9-2.2 1-1 1.7-1.4 2.1-1.4.4 0 .6.4.6 1 0 .7-.1 1.2-.2 1.8-.1.6-.2 1.1-.3 1.7-.1.6-.1 1 0 1.2.1.2.3.4.7.5.3.1.6-.1 1-.4.3-.4.5-.7.6-.9.1-.2.3-.7.7-1.4.4-.7 1-1.4 1.6-2 .7-.7 1.3-1.2 1.7-1.5.4-.3.8-.5 1.2-.6.4-.1.7.1.9.5.3.4.7 1 1.2 1.7.6.8 1.1 1.3 1.5 1.6.4.3.8.6 1.2.8.4.2.9.3 1.4.1.5-.1.9-.2 1.1-.4.3-.1.7-.4 1.4-.7.7-.3 1.3-.6 2-1s.4-.3-.8.3c-1.2.6-2 .9-2.5.8-.5-.1-1-.4-1.7-.9-.6-.5-1.2-1.3-1.8-2.4-.6-1.1-1.1-1.9-1.4-2.5-.4-.6-.8-1-1.3-1.2-.5-.2-1.1-.1-1.8.2-.7.3-1.6 1-2.6 2.1-1 1-1.5 1.5-1.6 1.5-.1-.1-.2-.3-.2-.8 0-.4-.1-.9-.2-1.2-.1-.3-.4-.7-1-.9-.5-.3-1.1-.3-1.6 0-.6.3-1.3.9-2.2 1.9-.8 1-.9.9-.2-.5s1.1-2.3 1-2.8c-.1-.5-.2-.8-.2-1.1s-.2-.5-.3-.8c-.1-.3-.4-.4-.8-.5-.4 0-.9.4-1.5 1.2-.6.8-1.5 1.7-2.8 2.6-1.2.9-2.5 1.8-3.7 2.9-1.2 1.2-.4.7 2.5-1.3zM43.9 38.9c-.7-.2-1.4-.6-2.2-1.2-.8-.5-1.5-1.3-2.1-2.2-.6-.9-.9-1.9-1-2.9-.1-1-.3-1.6-.7-1.9-.3-.3-.8-.4-1.2-.3-.4.1-.8.3-.9.5-.2.2-.3.5-.4 1-.1.4 0 .8.4 1.1.4.3.6.5.7.5.1 0 .2.1.4.1.1.1.4.3.8.7.4.4 1 1.1 1.8 2 .8.9 1.6 1.5 2.3 2 .7.4 1.4.7 2.1.9.7 0 .7-.1 0-.3zm-8.6-.8c-.5-.1-.9-.1-1.3 0-.3.1-.8.3-1.4.7-.6.4-.7.6-.4.6.3 0 .3.5 0 1.6-.3 1-.6 2.1-1 3.4-.8.7-1.6 1.2-2.2 1.6-.7.4-1.3.6-1.8.8-.5.2-1.1.3-1.8.3s-1.3-.2-2-.7c-.5-.6-.7-1.4-.4-2.4.2-1 .8-1.8 1.6-2.4.8-.5 1.8-.8 2.9-.9 1.1-.1 1.7-.4 1.7-1s-.3-1.1-.8-1.4c-.6-.3-1.6-.1-3.2.5-1.5.6-2.5 1.2-3.2 1.9-.6.7-1.1 1.3-1.4 2-.3.7-.4 1.5-.5 2.5 0 1 .3 1.8 1 2.6.7.7 1.4 1.1 2.2 1.2.8.1 1.4 0 2-.1.5-.1 1.1-.3 1.7-.6.6-.3 1.2-.7 2-1.3.7-.6 1.5-1.3 2.3-2.2-.3 1.4-.6 2.4-.7 3-.1.7-.1 1.1 0 1.1.1.1.4.1.7 0s.7-.4 1.1-1c.4-.6.7-1.3 1.1-2.1.3-.8.7-1.9 1-3.2.3-1.3.7-2.3 1-3.2.3-.7.2-1.1-.2-1.3zm22.7 0c0 .3-.2.7-.5.9-.3.2-.6.3-.9.2-.3-.1-.6.4-1 1.3-.4 1-.9 1.9-1.4 2.9-.5.9-1.1 1.7-1.5 2.3-.4.6-1.1 1.3-1.9 2-.8.7-1.4 1.1-1.8 1.2-.4.1-.8.1-1.1 0-.3-.1-.6-.4-.9-.8-.3-.4-.4-1.3-.4-2.4 0-1.2.3-2.4 1.1-3.5.7-1.2 2-2.2 3.9-3.1 1.9-.9 2.5-1.2 1.9-1-.6.3-2.9.6-6.8 1s-3.8.3.5-.3 6.7-1.1 7.1-1.5c.4-.4.7-1.2.9-2.2.2-1 .3-1.9.3-2.8 0-.9 0-1.7-.2-2.6-.1-.9-.5-1.7-1.2-2.6-.6-.9-.9-1.5-.9-1.7.1-.3.2-.5.4-.8.2-.3.5-.4.8-.4.3 0 .7.2 1 .4.3.3.6.7.9 1.2.3.5.6 1.5.9 3 .3 1.5.3 3 .1 4.4-.2 1.4-.3 2.3-.4 2.6-.1.4.1.8.5 1.2.5.4.7.8.6 1.1zm-5.4 3.2c0-.2-.2-.3-.5-.1-.3.1-.8.5-1.5 1.2s-1.1 1.2-1.4 1.8c-.2.5-.3 1-.2 1.3.1.3.6.1 1.5-.8s1.4-1.6 1.7-2.2c.3-.6.4-1 .4-1.2zm15.5-1.1c-1.7.1-2.7.1-2.9.2-.2.1-.3.4-.3.9s.1 1 .1 1.5v1.8c0 .7-.1 1.2-.1 1.5-.1.3-.2.7-.4 1-.2.3-.4.7-.7 1.1-.3.4-.7.8-1.2 1.1-.5.3-.9.6-1.3.8-.4.2-.8.2-1.3 0-.4-.1-.8-.4-1.1-.7-.3-.3-.5-.7-.7-1-.2-.3-.2-1-.2-1.9 0-.9.1-1.6.3-2.2.2-.5.4-1.1.8-1.7.3-.6.5-.9.3-.8-.1 0-.2 0-.1-.1s.3-.4.8-1 .9-1.1 1.2-1.3c.3-.3.7-.5 1.1-.5.4-.1.8-.1 1.1.1.3.1.5.3.7.7.2.3.7.5 1.5.5h3-.6zm-5.6 3c-.3-.4-.8-.3-1.3.4s-.9 1.4-1 2.2c-.1.8-.1 1.3.1 1.6.2.3.4.5.6.5.2 0 .5-.1.9-.4.4-.3.7-1 .9-2.1.2-1 .2-1.7-.2-2.2zm73.3 7.1c.4-.2 1-.4 1.7-.6.7-.2 1.5-.4 2.4-.7.9-.2.7-.2-.4 0s-2 .4-2.4.5c-.5.1-1.2 0-2-.1s-1.7-.3-2.7-.5c-1-.2-1.8-.3-2.3-.3-.5 0-.5-.2 0-.6.5-.4.9-.7 1.2-1l1.3-1.3c.6-.6 1.3-1.2 2.1-2 .8-.7 1.4-1.3 1.6-1.8.2-.4.4-.9.4-1.2v-.9c0-.2-.1-.4-.2-.6-.1-.1-.4-.3-.9-.5s-.9-.2-1.1-.2c-.2 0-.7.1-1.2.3-.6.1-1.3.4-2.1.7-.8.3-1.5.7-2.1 1.1-.4.3-.7.5-.8.8-.9.2-1.6.2-2.2-.2-.6-.4-1.3-.7-2-.9-.7-.2-1.2-.3-1.4-.2-.2.1-.5.2-1 .3-.4.2-.8.4-1.2.7-.4.3-.8.4-1.1.5-.3 0-.2-.3.1-.9.3-.6.3-1.2.1-1.6-.3-.4-.7-.7-1.2-.7-.5-.1-1.1 1.1-1.7 3.3-.5 2-1 3.7-1.3 5-.6.6-1.2.9-1.6 1-.4.1-.8 0-1-.1-.3-.2-.5-.5-.6-.9-.2-.4-.2-.9 0-1.4.1-.5.3-.8.4-.9.1-.1.1-.3.1-.5s-.2-.5-.4-.8c-.2-.3-.5-.5-.8-.7-.3-.1-1.1.1-2.3.7-1.2.5-2.2 1.1-3 1.6-.8.5-1.4.9-1.7 1.2-.4.3-.5.3-.5.1.1-.2.4-.7 1-1.4s1.2-1.3 1.8-1.8c.6-.5 1.1-.8 1.5-1 .4-.2.8-.4 1.2-.7.4-.2.8-.1 1.2.2.4.3.8.4 1.2.2.5-.2.6-.6.3-1.2-.2-.6-.5-1-.8-1.2-.3-.2-.6-.3-1.1-.4-.4-.1-.9-.1-1.2.1-.4.1-1 .4-2 .9s-1.8 1.1-2.6 1.9c-.2.1-.3.3-.5.5-1.8.2-3 0-3.6-.6-.7-.7-1.3-.8-2-.4-.6.4-1.2.9-1.6 1.5-.4.6-.8 1.2-1 1.8-.2.6-.5 1.3-.8 2.1-.3.8-.4.4-.2-1.2s.1-2.8-.2-3.4c-.3-.6-.9-.8-1.6-.5-.7.3-1.7 1-2.8 2.2-1.2 1.1-1.7.8-1.7-1s-.1-2.8-.5-3c-.3-.2-.8-.3-1.3-.2-.5-.4-.7.1-.7.9 0 .3 0 .6.1.9-1 0-1.7-.1-2.3-.1-.7-.1-1.2-.3-1.5-.4-.3-.1-.3-.7-.1-1.7.3-1 .5-1.8.6-2.4.2-.6.3-1 .5-1.4.2-.3.2-.7.1-1-.1-.3-.3-.6-.5-.8-.2-.2-.5-.3-.9-.4-.4 0-.7.1-.9.3-.2.2-.4.7-.5 1.4-.1.7-.3 1.3-.3 1.7-.1.4-.3 1.2-.6 2.5s-.8 1.9-1.2 1.9c-.4 0-1 .2-1.6.4-.6.3-.9.7-.9 1.1 0 .5.2.7.5.7.4 0 .8-.1 1.2-.1.5-.1.7 0 .6.3-.1.3-.3 1.1-.9 2.4-.5 1.3-.9 2.4-1.2 3.3-.3.9-.3 1.4 0 1.6.3.1.6.1 1 .1.3-.1.7-.2.9-.4.2-.2.4-.6.7-1.2.2-.6.6-1.7 1.3-3.4.6-1.7 1.1-2.6 1.4-2.7.3-.1.8-.2 1.6-.4.7-.2 1.7-.4 3-.6 0 .1 0 .2.1.3.1.3.1.6.2 1s.1.9.2 1.7c0 .8 0 1.5-.3 2.3-.2.8-.2 1.3 0 1.7.2.4.5.5.9.6.4 0 1.2-.7 2.4-2.1 1.2-1.4 2.1-2.2 2.6-2.5.5-.3.7.3.6 1.8-.1 1.5.1 2.5.4 3.1.3.6.6 1 .9 1.1.2.1.5 0 .9-.3s.9-1.1 1.6-2.3c.7-1.2 1.2-2.1 1.4-2.8.2-.7.5-1.3.9-2s1.2-1 2.4-1.1c.8 0 1.7-.1 2.6-.3-.6.6-1.2 1.3-1.9 2.1-.9 1.2-1.4 1.9-1.6 2.3-.1.4-.2.8-.2 1.1 0 .4.1.7.3 1 .2.3.4.5.5.5.2.1.5 0 1.1-.2.6-.1 1.2-.4 2-.8.7-.4 1.5-.9 2.4-1.5.9-.6 1.4-1 1.8-1.1.3-.1.6-.1.9.2.2.2.4.5.4.7.1.2.2.5.4.9s.4.8.8 1.1c.3.3.7.5 1 .7.4.1.7.2.9.2.2 0 .5-.1 1-.3.4-.2.9-.7 1.6-1.6-.4 1.3-.6 2-.7 2.2-.1.1-.1.4.1.8s.5.6 1 .6.9-.2 1-.7c.2-.4.4-1 .6-1.6.2-.7.5-1.4 1-2.4.4-1 .9-1.6 1.4-2 .5-.4 1.1-.8 1.8-1.1.7-.3 1.7-.5 3-.5s2.5-.2 3.7-.7c0 .1-.1.1-.1.2-.1.4-.1.7.1 1 .1.2.3.3.5.4.2.1.4-.1.7-.3.2-.3.8-.6 1.8-1s1.7-.6 2.2-.7c.5-.1.6.1.3.4-.3.3-.7.8-1.4 1.4-.7.6-1.3 1.2-1.9 1.7-.6.5-1.3 1.2-2.3 2.1-1 .8-1.6 1.3-2 1.5-.3.2-.6.3-.8.5-.2.2-.3.5-.4.9-.1.4 0 .8.1.9.1.2.3.3.5.4.2.1.4.1.7.1.3 0 .5-.1.7-.2.2-.1.5-.2.8-.3.3 0 .9 0 1.7.1.8.1 1.5.2 1.9.3.5.1 1 .2 1.7.2s1.2-.1 1.6-.3c.4-.7.8-.9 1.2-1zm12.5-10c-.2-.3-.5-.4-.9-.5-.4-.1-.8 0-1.1.3-.3.3-.8 1-1.6 2.2-.8 1.1-1.4 1.8-1.7 2.2-.3.3-.6.6-1 .9-.3.3-.7.5-1.1.6-.4.1-.6 0-.7-.5-.1-.5.1-1.2.3-2.1.3-.9.5-1.6.7-2 .2-.4.2-.7.1-1-.1-.3-.3-.4-.6-.4s-.6.1-1 .3c-.4.2-.8.9-1.2 2.2-.3 1.3-.6 2.1-.7 2.3-.1.2-.1.6-.1 1.2 0 .5.1 1 .3 1.4.2.4.5.7 1 .9.5.2.9.3 1.4.3s1.1-.3 1.8-.8 1.3-1 1.6-1.3c.3-.3.7-.6 1-.9.3-.3.6-.6.9-.8.3-.2.4-.2.4-.1v1.2c0 .7-.2 1.7-.5 3.1-.3 1.4-.8 2.6-1.4 3.7-.6 1.1-1.1 1.9-1.6 2.5-.5.5-1.2 1.2-2.1 2-.9.8-1.7 1.3-2.4 1.7-.7.4-1.5.5-2.5.4-1-.1-1.3-.7-.8-1.8s.3-1-.3.2c-.7 1.2-.9 2.1-.5 2.7.3.6.8 1 1.3 1.1.5.1 1 .1 1.5 0s1.2-.3 2.1-.7c.9-.4 1.9-1 3.1-1.7 1.2-.8 2.1-1.7 3-2.8.8-1.1 1.5-2.2 2-3.4.5-1.2.9-2.3 1-3.2.1-.9.3-2.1.4-3.5.1-1.4.2-2.4.2-3.2v-1.5c-.1-.7-.1-.9-.3-1.2zM39.4 12.2c.3-.1.8-.4 1.4-1 .6-.5.9-1.1 1-1.6.1-.5.1-1-.1-1.5s-.3-.9-.5-1.2c-.2-.3-.3-.5-.5-.6-.1-.1-.3-.1-.6-.1-.2 0-.4.1-.5.2-.1.1-.2.3-.3.4-.1.1-.1.3-.1.5s.1.3.2.5c.1.1.2.3.3.4l.3.6c.1.2.1.4.1.7 0 .2-.2.6-.4 1.2-.3.6-.5.9-.6 1-.1.1-.2.2-.1.4-.2.1 0 .2.4.1z" style="fill:#515353"/></svg>