<svg xmlns="http://www.w3.org/2000/svg" viewBox="0 0 300 300" style="enable-background:new 0 0 300 300" xml:space="preserve"><path d="m118.8 183.2-.4-8.1c-.4-15.5 4.7-30.7 17.7-46.3 8.4-10 16.7-19.3 16.7-28.3 0-8.4-5.9-14.2-19.5-14.9-10.2 0-22.4 3.4-30.7 9l-11.8-40c11.8-6.3 30.5-12.8 55.3-12.8 43.1 0 63 23 63 49.4 0 25.2-16.1 40.4-26.7 51.8-10.2 10.8-14.9 22-14.9 35.4l-.4 4.8h-48.3zm-8.7 42.9c0-18.9 13-31.9 31.7-32.3 18.9 0 31.7 13.4 31.9 32.3 0 18.3-12.8 31.9-31.9 31.9-18.9.1-31.7-13.6-31.7-31.9z" style="fill:#fff"/></svg>