<svg version="1.1" id="Layer_1" xmlns="http://www.w3.org/2000/svg" x="0" y="0" viewBox="0 0 300 300" style="enable-background:new 0 0 300 300" xml:space="preserve"><style>.st0{fill:#fff}</style><path class="st0" d="M149.2 196.2c-19.9 0-38.6-7.9-52.5-22.1-14-14.3-21.4-33.1-20.9-53.1v-.5c-19.2 11.6-32.1 32.7-32.1 56.7V219c0 21.1-11.5 24.4-11.5 24.4h17c14.7 0 20.5-13.6 21.1-13.1 11 8.2 24.7 13.1 39.5 13.1h40.9c31.6 0 58-22.1 64.6-51.7-8 3-16.6 4.5-25.3 4.5h-40.8z"/><path class="st0" d="M256.2 164.5v-41.7c0-37.1-30.5-67.1-67.8-66.2h-40.9c-35.1.8-63.7 29.5-64.6 64.6C82 158.5 112 189 149.1 189H190c14.8 0 28.5-4.9 39.5-13.1.7-.5 6.4 13.1 21.1 13.1h17c.2 0-11.4-3.4-11.4-24.5zM151.5 83c1.8-1.8 4.5-1.8 6.3 0 1.8 1.8 1.8 4.5 0 6.3-1.8 1.8-4.5 1.8-6.3 0-1.8-1.7-1.8-4.6 0-6.3zm-6.8 10.3c3.6 0 6.5 2.9 6.5 6.5s-2.9 6.5-6.5 6.5-6.5-2.9-6.5-6.5 2.9-6.5 6.5-6.5zm-11.6 27.8c0-5 4-9 9-9s9 4 9 9-4 9-9 9-9-4.1-9-9zm69.6 11.6c-.9.2-1.5.9-1.8 1.7 0 0-1.5 7.1-2.7 11.8-1.4 5.2-4.6 6.9-10.2 6.9-6.2 0-6.8-1.1-10.7-1.1-1.4 0-2.5 1.1-2.5 2.5 0 7.1 2.8 10.7 10.6 10.7v1.9h-31.5v-1.9c7.8 0 10.6-3.6 10.6-10.7 0-1.4-1.1-2.5-2.5-2.5-2.6 0-5.4 2.4-11.5 2.4-5.4 0-9.7-4.4-9.7-9.7 0-5.4 4.4-9.7 9.7-9.7 2.6 0 5 1 6.8 2.7.9.8 2 1.3 3.2 1.3 2.7 0 4.8-2.1 4.8-4.8 0-2-1.2-3.7-2.9-4.4-3.4-1.4-5.7-4.7-5.7-8.6 0-5.1 4.2-9.2 9.2-9.2 1.1 0 2.2.2 3.2.6.4.2.9.2 1.3.2 2.2 0 4-1.8 4-4s-1.8-4-4-4c-.9 0-1.7.3-2.4.8-1.1.9-2.6 1.4-4.2 1.4-3.8 0-6.9-3.1-6.9-6.9 0-3.8 3.1-6.9 6.9-6.9 1.5 0 2.8.5 4 1.3.7.5 1.5.8 2.4.8 2.3 0 4.1-1.9 4.1-4.1 0-2.3-1.9-4.1-4.1-4.1-.2 0-.3 0-.5.1s-.4.1-.7.1c-2.3 0-4.1-1.9-4.1-4.1 0-2.3 1.9-4.1 4.1-4.1 20.6 0 32.7 17.9 30.7 32.6-.2 1-.4 2.1-.4 3.1 0 .8.2 1.5.5 2.1l5.7 10.4c.3.6.5 1.3.5 2 0 1.3-1.4 3-3.3 3.4z"/></svg>