<svg version="1.1" id="Layer_1" xmlns="http://www.w3.org/2000/svg" x="0" y="0" viewBox="0 0 300 300" style="enable-background:new 0 0 300 300" xml:space="preserve"><style>.st0{fill:#fff}</style><path class="st0" d="M163.8 128.1c6.1 0 11.3-3.4 14.1-8.3-2.2 2.9-5.8 4.9-9.8 4.9-6.8 0-12.4-5.5-12.4-12.4 0-6.8 5.5-12.4 12.4-12.4 4.8 0 8.9 2.7 11 6.7-2.2-6.3-8.2-10.9-15.3-10.9-8.9 0-16.1 7.3-16.1 16.3 0 8.9 7.2 16.1 16.1 16.1zM85.5 115c4.8 0 8.9 2.7 11 6.7-2.2-6.3-8.2-10.9-15.3-10.9-8.9 0-16.1 7.2-16.1 16.1 0 8.9 7.2 16.1 16.1 16.1 6 .2 11.4-3.2 14.1-8.1-2.2 2.9-5.8 4.9-9.8 4.9-6.8 0-12.4-5.5-12.4-12.4S78.6 115 85.5 115z"/><path class="st0" d="M0 0v300h300V0H0zm32.7 127.2c0-26.7 21.7-48.4 48.4-48.4 14.8 0 28 6.7 36.9 17.2 6.7-18.8 24.6-32.3 45.6-32.3 26.7 0 48.4 21.7 48.4 48.4s-21.7 48.4-48.4 48.4c-14.8 0-28-6.7-36.9-17.2-6.5 18.7-24.4 32.3-45.6 32.3-26.7 0-48.4-21.7-48.4-48.4zm173.5 78.1c0 9.3-7.5 17-17 17h-76.9c-9.3 0-17-7.5-17-17v-27.1c16.1-3.1 29.9-13.8 37-28.7 9.5 9.2 22.4 14.5 35.8 14.5 13.6 0 26-5.2 35.1-13.9 1.8 2.8 3 6.1 3 9.7v45.5zm8.9-3.5c0 2.2-1.8 4-4 4v-38.3c0-2.2 1.8-4 4-4 2.1 0 4 1.9 4 4l-4 34.3zm10.2 0c0 2.2-1.8 4-4 4v-38.3c0-2.2 1.8-4 4-4 2.1 0 3.9 1.9 4 4l-4 34.3zm40.8 29.2-32.6-25.7c-1.2-.7-2-1.9-2-3.4v-34.2c0-1.5.8-2.9 2.1-4 1.1-1.2 32.4-29.3 32.5-29.3V231z"/></svg>