<svg xmlns="http://www.w3.org/2000/svg" viewBox="0 0 300 300" style="enable-background:new 0 0 300 300" xml:space="preserve"><path d="m209.1 164.6-3.4 29.4c0 1.9-1.5 3.4-3.4 3.4v-32.8c0-1.9 1.5-3.4 3.4-3.4 1.8 0 3.4 1.6 3.4 3.4zm5.3-3.4c-1.9 0-3.4 1.5-3.4 3.4v32.8c1.9 0 3.4-1.5 3.4-3.4l3.4-29.4c0-1.8-1.6-3.4-3.4-3.4zm7.1.1c-1.1.9-1.8 2.1-1.8 3.4V194c0 1.3.7 2.3 1.7 2.9l27.9 22v-82.8c0 .1-26.8 24.2-27.8 25.2zM90.9 171.5c-22.9 0-41.5-18.6-41.5-41.5S68 88.5 90.9 88.5c12.7 0 24 5.7 31.6 14.7 5.7-16.1 21.1-27.7 39.1-27.7 22.9 0 41.5 18.6 41.5 41.5s-18.6 41.5-41.5 41.5c-12.7 0-24-5.7-31.6-14.7-5.6 16.1-21 27.7-39.1 27.7zm57-54.5c0 7.6 6.2 13.8 13.8 13.8 5.2 0 9.7-2.9 12.1-7.1-1.9 2.5-5 4.2-8.4 4.2-5.8 0-10.6-4.7-10.6-10.6 0-5.8 4.7-10.6 10.6-10.6 4.1 0 7.6 2.3 9.4 5.7-1.9-5.4-7-9.3-13.1-9.3-7.6 0-13.8 6.2-13.8 13.9zM103 136.7c-1.9 2.5-5 4.2-8.4 4.2-5.8 0-10.6-4.7-10.6-10.6s4.7-10.6 10.6-10.6c4.1 0 7.6 2.3 9.4 5.7-1.9-5.4-7-9.3-13.1-9.3-7.6 0-13.8 6.2-13.8 13.8 0 7.6 6.2 13.8 13.8 13.8 5.2.1 9.8-2.8 12.1-7zm62.4 24.9c-11.5 0-22.5-4.5-30.7-12.4a44.64 44.64 0 0 1-31.7 24.6V197c0 8.1 6.6 14.6 14.6 14.6h65.9c8.1 0 14.6-6.6 14.6-14.6v-39c0-3.1-1-5.9-2.6-8.3-7.8 7.4-18.4 11.9-30.1 11.9z" style="fill:#fff"/></svg>