<svg version="1.1" id="Layer_1" xmlns="http://www.w3.org/2000/svg" x="0" y="0" viewBox="0 0 300 300" style="enable-background:new 0 0 300 300" xml:space="preserve"><style>.st0{fill:#fff}</style><path class="st0" d="M139.1 49.5c-18.7 0-33.8 15.1-33.8 33.8s15.1 33.8 33.8 33.8 33.8-15.1 33.8-33.8c0-18.7-15.1-33.8-33.8-33.8zm0 65.1c-17.3 0-31.4-14-31.4-31.4 0-17.3 14-31.4 31.4-31.4 17.3 0 31.4 14 31.4 31.4s-14.1 31.4-31.4 31.4z"/><path class="st0" d="M0 0v300h60.1V196.7h18.4V300H130V196.7h18.4V300H300V0H0zm87.7 83.1c-2.2 2.6-16 19.4-16 19.4h2.1v92h-8.7l.1-92h1.7s-1.5-2.6 1.8-6.2c3.5-3.7 16.8-17.7 16.8-17.7L64.7 45.1s21.9 26.7 23.9 29.2c2.8 3.3 1.8 5.5-.9 8.8zM143 122v72.3h-7.8V122c-19.7-2-35.1-18.6-35.1-38.8 0-21.5 17.4-39 39-39s39 17.4 39 39c0 20.3-15.4 36.9-35.1 38.8zm71 174.5h-36.5v-2.8H214v2.8zm0-6.2h-36.5v-2.8H214v2.8zm0-6.3h-36.5v-2.8H214v2.8zm0-6.2h-36.5V275H214v2.8zm0-6.2h-36.5v-2.8H214v2.8zm0-6.3h-36.5v-2.8H214v2.8zm0-6.2h-36.5v-2.8H214v2.8zm0-6.2h-36.5v-2.8H214v2.8zm0-6.3h-36.5v-2.8H214v2.8zm0-6.2h-36.5v-2.8H214v2.8zm0-6.3h-36.5v-2.8H214v2.8zm0-6.2h-36.5v-2.8H214v2.8zm61.5-127.5c-6.6 17.3-14.7 22.7-14.7 22.7l-13-7.8-35.7 103.9v2.6l-32.4-.2 41.9-120.7-14-9 3.6-12.5-18.2-8.8 19.6 5.2 5.2-11.8 60.8 12.1c.1.1 3.5 7-3.1 24.3z"/></svg>