<svg version="1.1" id="Layer_1" xmlns="http://www.w3.org/2000/svg" x="0" y="0" viewBox="0 0 300 300" style="enable-background:new 0 0 300 300" xml:space="preserve"><style>.st0{fill:#fff}</style><path class="st0" d="M89.4 170.2v46.3c0 14.2 27.4 25.8 61.2 25.8s61.2-11.5 61.2-25.8v-46.3l-61.7 40.1-60.7-40.1z"/><path class="st0" d="M260.4 108 150 57.7 39.6 108v9.1l109.9 71 61.2-39.2V138c-15.9-6.7-57.1-28.5-57.1-28.5s59.7 9.9 71.3 12.9c7 1.9 10.3 5.7 10.3 13.4s.4 43.3.4 43.3c-3.8 2.1-6.4 6.1-6.4 10.8 0 4 1.9 7.5 4.8 9.8-4 6.5-8.2 15.1-8.2 22.5 0 14.5 15.6 19.5 15.6 19.5s15.6-4.9 15.6-19.5c0-7.5-4.1-16-8.2-22.5 2.9-2.3 4.8-5.8 4.8-9.8 0-4.6-2.6-8.7-6.4-10.8l.4-43.3c0-4.5-.8-7.9-1.9-10.5l14.4-8.2V108h.3z"/></svg>