<svg version="1.1" id="Layer_1" xmlns="http://www.w3.org/2000/svg" x="0" y="0" viewBox="0 0 300 300" style="enable-background:new 0 0 300 300" xml:space="preserve"><style>.st1{fill:#fff}</style><path style="fill:#40b4a6" d="M0 0h300v300H0z"/><path class="st1" d="M175.3 188c-.9.4-2.2 1-3 1.7-1.2 1.2-2 2.9-2 4.7 0 1.8.7 3.5 1.9 4.6 1.3 1.3 2.1 3.1 2.1 5 0 3.4-2.4 6.2-5.5 6.9 1.6 1.3 2.6 3.3 2.6 5.5 0 2-1.1 4.1-2.1 5-2.8 2.5-5 4.5-4.8 9.7.6 15.7-9.6 19.6-22.6 19.8-18 .3-24.6-3-35.6-4.8l-21.1 24.2V38c48.1 0 87.2 48.5 81.5 90.3-.7 5-2.4 9.6 0 13.7l16.1 29.6c.7 1.1 1.1 2.3 1.4 3.6 1.2 5.3-2.5 10.2-8.9 12.8z"/><path class="st1" d="M235.6 188c-.9.4-2.2 1-3 1.7-1.2 1.2-2 2.9-2 4.7 0 1.8.7 3.5 1.9 4.6 1.3 1.3 2.1 3.1 2.1 5 0 3.4-2.4 6.2-5.5 6.9 1.6 1.3 2.6 3.3 2.6 5.5 0 2-1.1 4.1-2.1 5-2.8 2.5-5 4.5-4.8 9.7.6 15.7-9.6 19.6-22.6 19.8-8.4.1-14.4-.5-19.4-1.4 7.4-2.2 12.2-7.4 11.8-18.3-.2-5.2 2-7.2 4.8-9.7 1-.9 2.1-3.1 2.1-5 0-2.2-1-4.2-2.6-5.5 3.2-.7 5.5-3.6 5.5-6.9 0-2-.8-3.8-2.1-5a6.42 6.42 0 0 1-1.9-4.6c0-1.9.8-3.5 2-4.7.8-.7 2.1-1.3 3-1.7 6.4-2.6 10.1-7.5 9-12.8-.3-1.3-.7-2.5-1.4-3.6L196.9 142c-2.5-4.1-.7-8.7 0-13.7 5.7-41.8-33.4-90.3-81.5-90.3h30.2c48.1 0 87.2 48.5 81.5 90.3-.7 5-2.4 9.6 0 13.7l16.1 29.6c.7 1.1 1.1 2.3 1.4 3.6 1.1 5.3-2.6 10.2-9 12.8z"/></svg>