<svg version="1.1" id="Layer_1" xmlns="http://www.w3.org/2000/svg" x="0" y="0" viewBox="0 0 300 300" style="enable-background:new 0 0 300 300" xml:space="preserve"><style>.st0{fill:#fff}</style><path class="st0" d="M88.7 74.3c-2.1-2.5-23.9-29.2-23.9-29.2l20.8 33.5S72.2 92.5 68.8 96.3c-3.3 3.6-1.8 6.2-1.8 6.2h-1.7l-.1 92h8.7v-92h-2.1s13.8-16.7 16-19.4c2.6-3.3 3.6-5.5.9-8.8zM60.1 196.7h18.4V300H60.1zm79-144.8c-17.3 0-31.4 14-31.4 31.4 0 17.3 14 31.4 31.4 31.4 17.3 0 31.4-14 31.4-31.4 0-17.3-14.1-31.4-31.4-31.4z"/><path class="st0" d="M139.1 44.3c-21.5 0-39 17.4-39 39 0 20.2 15.4 36.8 35.1 38.8v72.3h7.8V122c19.7-2 35.1-18.6 35.1-38.8 0-21.5-17.4-38.9-39-38.9zm0 72.7c-18.7 0-33.8-15.1-33.8-33.8 0-18.7 15.1-33.8 33.8-33.8s33.8 15.1 33.8 33.8c0 18.7-15.1 33.8-33.8 33.8zm-9.2 79.7h18.4V300h-18.4zm47.6 28.4H214v2.8h-36.5zm0 6.3H214v2.8h-36.5zm0 6.2H214v2.8h-36.5zm0 6.2H214v2.8h-36.5zm0 6.3H214v2.8h-36.5zm0 6.2H214v2.8h-36.5zm0 6.3H214v2.8h-36.5zm0 6.2H214v2.8h-36.5zm0 6.2H214v2.8h-36.5zm0 6.3H214v2.8h-36.5zm0 6.2H214v2.8h-36.5zm0 6.2H214v2.8h-36.5zM278.7 76.2 217.9 64l-5.2 11.8-19.6-5.2 18.2 8.8-3.6 12.5 14 9-41.9 120.7 32.4.2v-2.6l35.7-103.9 13 7.8s8.1-5.4 14.7-22.7c6.5-17.3 3.1-24.2 3.1-24.2z"/></svg>