<svg xmlns="http://www.w3.org/2000/svg" viewBox="0 0 300 300" style="enable-background:new 0 0 300 300" xml:space="preserve"><path d="M0 0v300h300V0H0zm211.8 216.5c0 14.3-27.4 25.8-61.2 25.8-33.8 0-61.2-11.6-61.2-25.8v-46.3l60.7 40.1 61.7-40.1v46.3zM260.1 108v9.1l-14.4 8.2c1.1 2.6 1.9 6 1.9 10.5l-.4 43.3c3.8 2.1 6.4 6.2 6.4 10.8 0 4-1.9 7.5-4.8 9.8 4.1 6.5 8.2 15 8.2 22.5 0 14.6-15.6 19.5-15.6 19.5s-15.6-5-15.6-19.5c0-7.4 4.2-16 8.2-22.5-2.9-2.3-4.8-5.8-4.8-9.8 0-4.7 2.6-8.7 6.4-10.8 0 0-.4-35.6-.4-43.3 0-7.7-3.3-11.5-10.3-13.4-11.6-3-71.3-12.9-71.3-12.9s41.2 21.8 57.1 28.5v10.9l-61.2 39.2-109.9-71V108L150 57.7 260.4 108h-.3z" style="fill:#fff"/></svg>