<svg xmlns="http://www.w3.org/2000/svg" viewBox="0 0 300 300" style="enable-background:new 0 0 300 300" xml:space="preserve"><path d="M265.1 86.7v-.6s0-.1-.1-.1c0 0 0-.1-.1-.1v-.1l-.1-.1-.1-.1-.1-.1-.1-.1-.1-.1h-.1l-.1-.1s-.1 0-.1-.1l-71.9-36h-.1s-.1 0-.1-.1h-1.1l-18.5 6.7v96.6l-7.1-.4V58.4l-8.8 3.2v89.8l-7.1-.4V64.2l-8.8 3.2v83.1l-7.1-.4V70l-8.8 3.2v76.3l-7.1-.4V75.8l-8.8 3.2v69.6l-7.1-.4V81.6L93 84.8v62.9l-7.1-.4v-43.9l-53.3 15.5v66.7c9.3 2.6 47.2 14.5 47.2 14.5v11.4s0 .1.1.1v.1s0 .1.1.1l.1.1v.1l.1.1.1.1h.1l.1.1.1.1h.1s.1 0 .1.1c.1 0 .1 0 .2.1L190.8 251h.2c.1 0 .3.1.4.1.2 0 .3 0 .5-.1h.1s.1 0 .2-.1l71.9-34.1s.1 0 .1-.1c.1 0 .1-.1.1-.1l.1-.1.1-.1.1-.1.1-.1s0-.1.1-.1c0 0 0-.1.1-.1V86.8c.2 0 .2-.1.2-.1zm-16.9 120.8-51.6 20.6v-98.9l34.7 2 16.9-.8v77.1zM218 116.3V91.5l27.9 8.9v19.9l-27.9-4zm30.2-16.5-30.6-11.3-21 4.5V72.8l51.6 21.7v5.3z" style="fill:#fff"/></svg>