<svg xmlns="http://www.w3.org/2000/svg" viewBox="0 0 300 300" style="enable-background:new 0 0 300 300" xml:space="preserve"><path d="M192.6 167.8h79.3v8.8c0 5-4.1 9.1-9.1 9.1H145v-14.9h39.3c1.5 0 3-.5 4.1-1.5 1.2-.9 2.6-1.5 4.2-1.5zm79.2-130.5v127.8H145v-16.2h111.2V44.4H70.4V104H54.7V37.3c0-5 4.1-9.1 9.1-9.1h198.9c5.1 0 9.1 4 9.1 9.1zm-106.1-1c0-1.3-1.1-2.4-2.4-2.4s-2.4 1.1-2.4 2.4c0 1.3 1.1 2.4 2.4 2.4s2.4-1.1 2.4-2.4zm-75 211.6H37.3c-5 0-9.1-4.1-9.1-9.1V120.1c0-5 4.1-9.1 9.1-9.1h91.6c5 0 9.1 4.1 9.1 9.1v65.7h-15.6v-58.7H43.8v104.5h46.9v16.3zm-10-128.8c0 1.3 1.1 2.4 2.4 2.4s2.4-1.1 2.4-2.4c0-1.3-1.1-2.4-2.4-2.4s-2.4 1-2.4 2.4zm69.5 78.1v69.3c0 2.9-2.4 5.3-5.3 5.3H102c-2.9 0-5.3-2.4-5.3-5.3v-69.3c0-2.9 2.4-5.3 5.3-5.3h42.8c3-.1 5.4 2.3 5.4 5.3zm-28.2-.6c0 .8.6 1.4 1.4 1.4s1.4-.6 1.4-1.4c0-.8-.6-1.4-1.4-1.4s-1.4.6-1.4 1.4zm19 4.7h-35.2v61.1H141v-61.1z" style="fill:#fff"/></svg>