<svg version="1.1" id="Layer_1" xmlns="http://www.w3.org/2000/svg" x="0" y="0" viewBox="0 0 300 300" style="enable-background:new 0 0 300 300" xml:space="preserve"><style>.st0{fill:#fff}</style><path class="st0" d="M0 0v300h300V0H0zm186.7 253.1h-18c-8.9 0-16.4-3.3-18.7-7.3-2.3 4-9.8 7.3-18.8 7.3h-17.9c-17.1 0-31-13.9-31-31 0-5.9 5-52.5 5-52.5 0-6.7 2.8-12.4 6.6-14.1-3.8-1.7-6.6-7.4-6.6-14.1V81.1c0-12.9 4.7-24.1 14-33.6s10.1 108.1 48.7 108.1S190.2 38 199.2 47.5s13.5 20.8 13.5 34v60c0 6.7-2.8 12.4-6.6 14.1 3.8 1.7 6.6 7.4 6.6 14.1 0 0 5 46.2 5 52.5 0 17.1-13.9 30.9-31 30.9z"/><path class="st0" d="M166.4 239.6h18.9c11.4 0 20.8-9.3 20.8-20.8 0-3.2-2.1-22.4-3.6-38.1 1.1 24.9-3.1 54-36.1 58.9z"/></svg>