<svg version="1.1" id="Layer_1" xmlns="http://www.w3.org/2000/svg" x="0" y="0" viewBox="0 0 300 300" style="enable-background:new 0 0 300 300" xml:space="preserve"><style>.st0{fill:#fff}</style><path class="st0" d="m163.9 193.6-7.6-56.3-7.6 56.4zm15.4-.1-7.5-56.2-7.6 56.3z"/><path class="st0" d="M87.4 225.8c-8.9 0-9.4-7.3-9.4-16.2 0-7.3.3-13.4 5.3-15.5h3.4l-7.6-56.8h139.5l-7.5 56.1h.8c18.3.1 26.9 16.2 61.2 16.2H300V0H0v300h300v-74.2H87.4zm34.4-158.4 32.7-2.5c48.5-3.7 73 5.5 73.6 50.8-5.9-40.4-40-38.3-54.8-37.4-11.9.7-29.2 2-50.9 3.2C96.7 82.8 81.6 70.3 75 56.2c7.2 9.9 16.7 13.5 46.8 11.2zm-47.2-1.5c6.8 14 22 26.3 47.7 24.6 21.7-1.4 39-3 50.9-3.8 14.8-1 48.8-3.6 55.2 36.8 0 .9.1 1.8.1 2.8-.2-.3-.4-.6-.7-.9-7.7-21.3-29.4-27.2-49.7-25.6-22 1.7-32.7 2.8-53.7 4.2-29.8 2-44.5-10.9-50.9-37.2 0-.8 0-1.6-.1-2.4.5.4.8 1 1.2 1.5zm49.8 46.8c21.1-1.4 31.7-2.4 53.7-4.2 20.3-1.6 42 4.3 49.7 25.6-7.4-10.4-16.7-14.1-47.5-11.3l-32.7 2.9C99.1 130 74.5 121 73.4 75.5c6.6 26.3 21.3 39.2 51 37.2z"/><path class="st0" d="m148.4 193.7-7.6-56.4-7.6 56.5zm61.8-.3-7.5-56.1-7.6 56.2zm-15.4.1-7.6-56.2-7.5 56.2zm-61.8.3-7.6-56.5-7.7 56.6zm-15.5.1-7.6-56.6-7.6 56.7zm-15.5.1-7.6-56.7-7.6 56.8z"/></svg>