<svg version="1.1" id="Layer_1" xmlns="http://www.w3.org/2000/svg" x="0" y="0" viewBox="0 0 300 300" style="enable-background:new 0 0 300 300" xml:space="preserve"><style>.st0{fill:#fff}</style><path class="st0" d="M93.3 81.1c0 3.2 2.1 22.4 3.6 38.1-1.1-24.9 3-54 36.1-58.9h-18.9c-11.5.1-20.8 9.4-20.8 20.8z"/><path class="st0" d="M0 0v300h300V0H0zm212 130.3c0 6.7-5.1 14.1-10.8 14.1h-45.6v9.3h37.5l-1.5 5.8-36 7.5v11l31.8-1.7-2 7.9-29.8 7.9v12.2l25.3-2.2-2.3 9.3-23 6.6v12.8l18.5-1.8-2.6 10.5-15.9 4.6v12.8l11.8-1.2-3 11.9-28.3 8.1-4.2-16.5 11-1.1v-10.4l-12.9 3.7-4.4-17.7 17.3-1.7v-10.4l-19 5.5-4.9-19.6 23.9-2.1v-9.9l-25.3 6.7-5.5-21.9 30.8-1.6v-9.1l-31.8 6.7-5.7-22.6H143v-9.3H98.6c-7.7 0-12-7.4-12-14.1 0 0-5-46.2-5-52.5 0-17.1 13.9-31 31-31h18c8.9 0 16.4 3.3 18.7 7.3 2.3-4 9.8-7.3 18.8-7.3H186c17.1 0 31 13.9 31 31 0 6-5 52.5-5 52.5z"/></svg>