<svg xmlns="http://www.w3.org/2000/svg" viewBox="0 0 300 300" style="enable-background:new 0 0 300 300" xml:space="preserve"><path d="M73.5 66.6c0-.8 0-1.6-.1-2.4.4.6.8 1.1 1.2 1.7 6.8 14 22 26.3 47.7 24.6 21.7-1.4 39-3 50.9-3.8 14.8-1 48.8-3.6 55.2 36.8 0 .9.1 1.8.1 2.8-.2-.3-.4-.6-.7-.9-7.7-21.3-29.4-27.2-49.7-25.6-22 1.7-32.7 2.8-53.7 4.2-29.7 1.8-44.4-11.1-50.9-37.4zm48.9 14.8c21.7-1.2 39-2.5 50.9-3.2 14.8-.8 48.9-3 54.8 37.4-.6-45.3-25.1-54.5-73.6-50.8l-32.7 2.5C91.7 69.7 82.2 66.1 75 56.2c6.6 14.1 21.7 26.6 47.4 25.2zm25.3 44.4 32.7-2.9c30.8-2.7 40.1 1 47.5 11.3-7.7-21.3-29.4-27.2-49.7-25.6-22 1.7-32.7 2.8-53.7 4.2-29.8 2-44.5-10.9-50.9-37.2 1 45.5 25.6 54.5 74.1 50.2zm124.9 83.8c-34.3 0-42.9-16.1-61.2-16.2h-.8l7.5-56.1h-15.5l7.5 56.1-15.1.1 7.6-56.2h-15.5l7.6 56.2-15.1.1 7.6-56.3h-15.5l7.6 56.3-15.1.1 7.6-56.3h-15.5l7.6 56.3-15.2.1 7.6-56.4h-15.5l7.6 56.4-15.2.1 7.6-56.5h-15.5l7.6 56.5-15.2.1 7.6-56.6h-15.5l7.6 56.6-15.2.1 7.6-56.7H94.4L102 194l-15.3.1 7.6-56.8H78.9l7.6 56.8h-3.4c-4.9 2-5.3 8.2-5.3 15.5 0 8.9.5 16.2 9.4 16.2h212.5v-16.2h-27.1z" style="fill:#fff"/></svg>