<svg version="1.1" id="Layer_1" xmlns="http://www.w3.org/2000/svg" x="0" y="0" viewBox="0 0 300 300" style="enable-background:new 0 0 300 300" xml:space="preserve"><style>.st0{fill:#fff}</style><path class="st0" d="M184.1 127.6c-39.7 0-17.1 42.4 1.5 45.2 1.8.3 3.5.4 5.1.4 13.7 0 20.4-9.5 20.4-24.5-.1-16.7-14.6-21.1-27-21.1zm16.1 34.4c-2 2.6-5.2 3.8-9.5 3.8-1.3 0-2.6-.1-4-.3-3.4-.5-7.9-3.9-11.5-8.6-3.7-4.9-5.9-10.5-5.6-14.5.1-1.8.5-7.3 14.5-7.3 5.8 0 10.9 1.1 14.2 3.2 3.6 2.2 5.3 5.6 5.3 10.5 0 5.8-1.2 10.4-3.4 13.2z"/><path class="st0" d="M167.6 214.1h-16.1v-25.7c2.5 0 8.5 0 11.6-4.1 1.9-2.4 2.3-5.5 1.3-9.3-.3-1-.6-2.3-.9-3.6-2.2-9.7-4.8-20.7-12-20.7V40.1h-20c-33.1 0-60 26.9-60 60 0 0-1.1 25.7 4 30.7-3.6 0-7.1 5-7.1 14.5 0 8.7 4.2 33.2 12.1 33.2.8 0 1.5-.2 2.4-.7l8 28c7.1 24.1 26.6 54.1 51.4 54.1h9.2v-21.7h14.9c1 0 1.8-.8 1.8-1.8v-6.5c0-1-.8-1.8-1.8-1.8h-38.8v-2.3h39.9c1.1 0 2.1-.9 2.1-2.1v-7.6c.1-1-.8-2-2-2zm-51-53.7c-5.5 0-10-4.5-10-10s4.5-10 10-10c2.1 0 4.1.7 5.7 1.8l-5.7 8.2h10c0 5.5-4.5 10-10 10zm18.1-15.6c-1.5.8-3.4.2-4.2-1.4-2.7-5.3-8-8.6-13.9-8.6s-11.3 3.3-13.9 8.6c-.6 1.1-1.7 1.7-2.8 1.7-.5 0-1-.1-1.4-.3-1.5-.8-2.2-2.7-1.4-4.2 3.7-7.4 11.2-12 19.5-12s15.8 4.6 19.5 12c.8 1.5.2 3.4-1.4 4.2zm11.2 35c-.3-.5-.3-1.5 0-2.9.3-1.1.6-2.4.9-3.8.8-3.5 2.8-12.3 4.8-14.6 1.9 2.3 4 11.1 4.8 14.6.3 1.4.6 2.7.9 3.8.4 1.4.4 2.5 0 2.9-.4.5-1.7 1.2-5.7 1.2s-5.3-.7-5.7-1.2z"/><path class="st0" d="M0 0v300h300V0H0zm231.6 148.1c0 17.5-7.5 33.2-19.4 44.1l-6.6 22.8c-7.1 24.1-20.1 44.9-44.9 44.9H159c0 4.1-3.3 7.4-7.4 7.4h-9.2c-13.5 0-26.6-7.1-38-20.6-8.9-10.5-16.4-24.7-20.5-38.8v-.1l-6.4-22.3c-8.5-2.4-11.9-14.2-13-18.3C62 159 61 150.1 61 145.3c0-5.7 1.1-10.6 3.1-14.4.6-1.1 1.3-2.1 2-2.9-1-3.6-1.6-8.2-1.9-14.1-.3-6.8-.1-12.9-.1-14 .1-37.1 30.3-67.3 67.4-67.3h20c4.1 0 7.4 3.3 7.4 7.4h12.6c33.1 0 60 26.9 60 60v48.1z"/></svg>