<svg xmlns="http://www.w3.org/2000/svg" viewBox="0 0 300 300" style="enable-background:new 0 0 300 300" xml:space="preserve"><path d="M212.7 169.7c0-6.7-2.8-12.4-6.6-14.1 3.8-1.7 6.6-7.4 6.6-14.1v-60c0-13.2-4.5-24.5-13.5-34S188.6 155.6 150 155.6 110.6 37.9 101.3 47.5c-9.3 9.5-14 20.7-14 33.6v60.3c0 6.7 2.8 12.4 6.6 14.1-3.8 1.7-6.6 7.4-6.6 14.1 0 0-5 46.6-5 52.5 0 17.1 13.9 31 31 31h17.9c9 0 16.4-3.2 18.8-7.3 2.3 4 9.7 7.3 18.7 7.3h18c17.1 0 31-13.9 31-31 0-6.2-5-52.4-5-52.4zm-27.4 69.9h-18.9c33.1-4.9 37.2-34 36.1-58.9 1.4 15.8 3.6 34.9 3.6 38.1-.1 11.5-9.4 20.8-20.8 20.8z" style="fill:#fff"/></svg>