<svg xmlns="http://www.w3.org/2000/svg" viewBox="0 0 300 300" style="enable-background:new 0 0 300 300" xml:space="preserve"><path d="M186 46.9h-17.9c-9 0-16.4 3.2-18.8 7.3-2.3-4-9.7-7.3-18.7-7.3h-18c-17.1 0-31 13.9-31 31 0 6.3 5 52.5 5 52.5 0 6.7 4.3 14.1 12 14.1H143v9.3h-37.5l5.7 22.6 31.8-6.7v9.1l-30.8 1.6 5.5 21.9 25.3-6.7v9.9l-23.9 2.1 4.9 19.6 19-5.5v10.4l-17.3 1.7 4.4 17.7 12.9-3.7v10.4l-11 1.1 4.2 16.5 28.3-8.1 3-11.9-11.8 1.2v-12.8l15.9-4.6 2.6-10.5-18.5 1.8v-12.8l23-6.6 2.3-9.3-25.3 2.2v-12.2l29.8-7.9 2-7.9-31.8 1.7v-11l36-7.5 1.5-5.8h-37.5v-9.3h45.6c5.7 0 10.8-7.4 10.8-14.1 0 0 5-46.6 5-52.5-.1-17.2-14-31-31.1-31zm-89.2 72.4c-1.4-15.8-3.6-34.9-3.6-38.1 0-11.4 9.3-20.8 20.8-20.8h18.9c-33 4.9-37.2 34-36.1 58.9z" style="fill:#fff"/></svg>