<svg xmlns="http://www.w3.org/2000/svg" viewBox="0 0 868.5 866.5" style="enable-background:new 0 0 868.5 866.5" xml:space="preserve"><path d="M640.8 722.1c15.4 4.6 29.7-9.2 25.9-24.7-.6-2.4-1.5-4.7-2.4-6.9-8.2-20-16.3-40.1-24.8-60-1.8-4.2-4.6-8.2-7.7-11.4-13-13.4-26.3-26.5-39.6-39.7-21.6-21.6-43.1-43.1-64.6-64.7-1.7-1.8-4.4-3.1-4.2-7.1h8.2c16.5 0 32.9.2 49.4 0 61.7-.9 108.9-48.8 109-110.4V267.4c0-54.5-38.3-99.7-92-108.3-7.7-1.2-15.7-1.6-23.5-1.7-19.7-.2-39.3-.1-59-.1-2.9 0-5.8-.3-9.6-.5-.1-10.5-.3-20.4-.4-30.8H380.9c-1.8 10.3.4 20.6-1.5 31.3h-9.6c-19.9 0-39.8-.4-59.7.2-10.5.3-21.2 1.1-31.4 3.6-48.4 11.6-82.7 55.5-82.8 105.5-.1 116 0 232.1 0 348.1 0 5.1.5 10.3 1.2 15.4 5.7 42.5 43.4 78.1 86.1 81.4 2.8.2 5.7 0 9.6 0V269.6c.2-10.6 4.7-15.1 15.5-15.2 12.5-.1 25.1-.1 37.6 0 2.1 0 4.2.4 7.1.7.2 10.4.3 20.3.5 29.9 8.5 1.9 172.5 1.6 178.9-.2.2-2.2.5-4.5.5-6.9.1-5.2 0-10.3 0-15.5.1-7.8.3-8 7.8-8 11.1-.1 22.1 0 33.2 0 16 0 19.5 3.5 19.5 19.5v117.3c0 2 .1 3.9-.1 5.9-.7 8.5-5.1 13-13.6 13.5-2.9.2-5.9.1-8.9.1-55.8 0-111.6-.1-167.4 0-24.7 0-44.8 17.3-48.1 41.4-2.3 16.7 3.3 30.9 15.2 42.8 64.4 64.3 128.6 128.7 193.1 192.9 3.2 3.2 7.4 5.7 11.6 7.5 17.2 7.4 34.5 14.4 51.8 21.5 4.6 1.9 9.1 3.9 13.8 5.3zm-12.2-59.4c3.5 3.6 14.3 28.5 16.4 38.9-13.5-5.6-25.9-10.7-38.3-15.8 2.9-5.4 14.5-17.5 21.9-23.1z" style="fill:#fff"/></svg>