<svg version="1.1" id="Layer_1" xmlns="http://www.w3.org/2000/svg" x="0" y="0" viewBox="0 0 207.7 165.3" style="enable-background:new 0 0 207.7 165.3" xml:space="preserve"><style>.st0{fill:none;stroke:#fff;stroke-width:8;stroke-miterlimit:10}</style><path class="st0" d="M90.7 139.1V55.6c0-4.5-3.6-8.1-8.1-8.1H26.3c-4.5 0-8.1 3.6-8.1 8.1v83.5c0 4.5 3.6 8.1 8.1 8.1h56.4c4.4 0 8-3.6 8-8.1zm0-15.2v13.8h85.1c7.6 0 13.8-6.2 13.8-13.8H90.7z"/><path class="st0" d="M182.5 18.2H62.4c-3.9 0-7 3.1-7 7v22.3h27.2c4.5 0 8.1 3.6 8.1 8.1v58h98.9V25.2c-.1-3.9-3.2-7-7.1-7z"/></svg>