<svg data-name="Layer 1" xmlns="http://www.w3.org/2000/svg" viewBox="0 0 211.8 304.8"><path d="M65.7 24a9.9 9.9 0 0 1 13.9-14 10 10 0 0 1 0 14 9.9 9.9 0 0 1-13.9 0ZM50.8 61.5a14.4 14.4 0 1 0-14.4-14.4 14.3 14.3 0 0 0 14.4 14.4ZM65 94.4a20 20 0 1 0-19.9 20 19.9 19.9 0 0 0 19.9-20Zm29.4 74.1Zm91.2-61.8-12.8-23.2a9.1 9.1 0 0 1-1.3-4.6c.1-2.1.7-4.4 1-6.7C176.9 39.7 150.1 0 104.4 0a9.2 9.2 0 0 0 0 18.3l1.5-.2h1.1a9.1 9.1 0 1 1 0 18.2 9 9 0 0 1-5.3-1.7 15.6 15.6 0 0 0-8.8-2.8 15.3 15.3 0 1 0 9.2 27.5 8.8 8.8 0 0 1 5.3-1.7 9 9 0 1 1 0 18 9.2 9.2 0 0 1-2.9-.4 18.7 18.7 0 0 0-7.1-1.3 20.6 20.6 0 0 0-7.8 39.6 10.6 10.6 0 0 1-4.2 20.4 10.7 10.7 0 0 1-7.2-2.7 21.5 21.5 0 1 0-15.1 36.9c13.8 0 19.9-5.2 25.7-5.2a5.6 5.6 0 0 1 5.6 5.5c0 15.7-6.2 23.7-23.4 23.7v4.1h69.8v-4.1c-17.2 0-23.4-8-23.4-23.7a5.5 5.5 0 0 1 5.6-5.5c8.7 0 10 2.5 23.8 2.5s19.6-3.7 22.7-15.3 6.1-26.1 6.1-26.1a5.2 5.2 0 0 1 3.8-3.8 9.1 9.1 0 0 0 7.3-9 9.7 9.7 0 0 0-1.1-4.5ZM0 292.8c0-7.3 5.5-12 12.2-12 4.2 0 8.1 1.8 10.1 5.5l-5.2 3.1a1.1 1.1 0 0 1-1.5-.2 4 4 0 0 0-3.1-1.3c-2.3 0-4.3 1.8-4.3 4.9s2 5 4.5 5a3.7 3.7 0 0 0 2.9-1.4 1.2 1.2 0 0 1 1.5-.2l5.2 3.1c-2 3.7-5.9 5.5-10.1 5.5-6.8 0-12.2-4.8-12.2-12Zm189.5 0c0-7.3 5.5-12 12.2-12a11.2 11.2 0 0 1 10.1 5.5l-5.3 3.1a1.1 1.1 0 0 1-1.5-.2 3.8 3.8 0 0 0-3-1.3c-2.3 0-4.3 1.8-4.3 4.9s2 5 4.4 5a3.5 3.5 0 0 0 2.9-1.4 1.2 1.2 0 0 1 1.5-.2l5.3 3.1c-2.1 3.7-6 5.5-10.2 5.5-6.7 0-12.1-4.8-12.1-12ZM52.2 281.5v15a1.1 1.1 0 0 0 1 1h8.2l-.9 6.7H49.6a4.7 4.7 0 0 1-4.8-4.8v-17.9Zm38.7 0v22.7h-7.5v-22.7Zm23.3 0h8l4 6.3c.8 1.2 1.6 2.4 3 4.9a24.3 24.3 0 0 1-.6-5.6v-5.6h7.5v22.7h-7.4l-4.5-6.6c-.8-1.2-1.7-2.5-3.2-5a25.1 25.1 0 0 1 .6 5.7v5.9h-7.4Zm52.7 0v22.7h-7.5v-22.7ZM30.3 216.7l1.1 10.1H15a2.4 2.4 0 0 0-2.4 2.4v7.5h16.8v9.6H12.6v19.1H.8v-39a9.6 9.6 0 0 1 9.6-9.7Zm48.1 39.8H60.8l-2.9 8.9H44.1l17.7-45.6a4.9 4.9 0 0 1 4.5-3.1h7a4.9 4.9 0 0 1 4.4 3.1l17.6 45.6H81.4Zm-2.9-8.9-3.2-9.3a92.7 92.7 0 0 1-2.6-10.4h-.3a63.1 63.1 0 0 1-2.6 10.4l-3.1 9.3Zm134.4-30.9 1.1 10.1h-17.2a2.4 2.4 0 0 0-2.4 2.4v6.6H209v9.7h-17.6v7.5a2.4 2.4 0 0 0 2.4 2.4H211l-1.1 10h-20.7a9.6 9.6 0 0 1-9.6-9.6v-29.4a9.6 9.6 0 0 1 9.6-9.7Zm-99.6 24.4c0-15.3 11.3-25.7 25.8-25.7 9.3 0 17.3 4 21.8 12.3l-7.8 4.7a2.4 2.4 0 0 1-3.2-.6 12.3 12.3 0 0 0-10.4-5.2c-7.4 0-13.3 5.8-13.3 14.5s5.9 14.4 13.5 14.4a11.9 11.9 0 0 0 10.4-5.1 2.3 2.3 0 0 1 3.2-.7l7.8 4.8c-4.8 8.2-12.6 12.2-22.1 12.2-14.5 0-25.7-10.5-25.7-25.6Z" style="fill:#515353"/></svg>