<svg xmlns="http://www.w3.org/2000/svg" viewBox="0 0 161.5 36.8" style="enable-background:new 0 0 161.5 36.8" xml:space="preserve"><path style="fill:#00539f" d="M105.6 0h55.9v36.8h-55.9z"/><path d="m145.3 20.3.6-1.5-1.3-1h1.6l.5-1.5.4 1.5h1.7l-1.4 1 .5 1.5-1.2-.9zm-25.5.1.5-1.5-1.3-1h1.6l.5-1.5.4 1.5h1.7l-1.3 1 .5 1.5-1.3-.9zm23.9-6.4.5-1.6-1.3-1h1.6l.5-1.4.4 1.4h1.7l-1.3 1 .5 1.5-1.3-.9zm-11.2-6.1.6-1.5-1.3-1h1.6l.5-1.5.4 1.5h1.6l-1.3 1 .5 1.5-1.2-.9zM126 9.6l.5-1.6-1.3-1h1.6l.5-1.4.5 1.4h1.6l-1.3 1 .5 1.5-1.3-.9zm12.8 0 .6-1.6-1.3-1h1.5l.6-1.4.4 1.4h1.6l-1.3 1 .5 1.5-1.2-.9zm-17.5 4.7.5-1.6-1.3-1h1.6l.5-1.4.5 1.4h1.6l-1.3 1 .5 1.5-1.3-.9zm22.3 12.3.5-1.6-1.3-1h1.6l.5-1.4.4 1.5h1.7l-1.3.9.5 1.5-1.3-.9zm-22.2 0 .5-1.5-1.3-1h1.6l.5-1.5.4 1.5h1.7l-1.3 1 .5 1.5-1.3-.9zm17.5 4.4.6-1.6-1.3-1 1.6.1.5-1.5.4 1.5h1.7l-1.4.9.5 1.5-1.2-.9zM126 31l.6-1.5-1.3-1h1.5l.6-1.4.4 1.4h1.6l-1.3 1 .5 1.5-1.3-.9zm6.6 1.6.5-1.6-1.3-1 1.6.1.5-1.5.5 1.5h1.6l-1.3.9.5 1.5-1.3-.9z" style="fill:#fff200"/><path d="M13 5.6h1.3v4.7c.1.3.2.5.4.7.2.2.5.2.9.2s.7-.1.9-.2c.2-.2.3-.3.4-.6 0-.2.1-.6.1-1.1V5.6h1.3v3.5c0 .8 0 1.4-.1 1.7s-.2.6-.4.8c-.2.2-.5.4-.8.5s-.8.2-1.3.2c-.6 0-1.1-.1-1.5-.2-.3-.1-.6-.3-.8-.6-.2-.2-.3-.5-.4-.7-.1-.4-.1-.9-.1-1.7V5.6h.1zm6.7 6.7V5.6H21l2.8 4.5V5.6H25v6.7h-1.3L21 7.9v4.4zm6.7-6.7h1.3v6.7h-1.3zm6.2 4-.9-2.5-.9 2.5h1.8zm2.5 2.7h-1.5l-.6-1.5h-2.7l-.6 1.5h-1.4l2.6-6.7h1.4l2.8 6.7zm2.9 0V5.6h5v1.1h-3.6v1.5h3.3v1.1h-3.3v1.9h3.7v1.1zm6.3-6.7h1.3v4.7c.1.3.2.5.4.7s.5.2.9.2.7-.1.9-.2c.2-.2.3-.3.4-.6 0-.2.1-.6.1-1.1V5.6h1.3v3.5c0 .8 0 1.4-.1 1.7s-.2.6-.4.8-.5.4-.8.5-.8.2-1.3.2c-.6 0-1.1-.1-1.5-.2-.3-.1-.6-.3-.8-.6-.2-.2-.3-.5-.4-.7-.1-.4-.1-.9-.1-1.7l.1-3.5zm8.1 2.8h1c.6 0 1.1 0 1.2-.1.2-.1.3-.1.4-.3.1-.1.1-.3.1-.5s-.1-.4-.2-.5c-.1-.1-.3-.2-.5-.3h-2.1l.1 1.7zM51 12.3V5.6h2.8c.7 0 1.2.1 1.6.2.3.1.6.3.8.6.2.3.3.7.3 1.1 0 .5-.1.9-.4 1.2-.3.3-.7.5-1.3.6.3.2.5.4.7.6s.4.6.8 1.1l.8 1.3h-1.6l-1-1.5c-.3-.5-.6-.8-.7-1-.1-.1-.3-.2-.4-.3-.1 0-.4-.1-.7-.1h-.3v2.8l-1.4.1zm7.9-3.4c0 .8.2 1.3.5 1.7s.8.6 1.3.6 1-.2 1.3-.6c.3-.4.5-1 .5-1.7 0-.8-.2-1.3-.5-1.7-.3-.4-.8-.6-1.3-.6-.6 0-1 .2-1.3.6-.4.4-.5 1-.5 1.7m-1.4.1c0-.7.1-1.3.3-1.7l.6-.9c.3-.3.6-.5.9-.6.4-.2.9-.3 1.4-.3 1 0 1.8.3 2.4.9.6.6.9 1.5.9 2.5 0 1.1-.3 1.9-.9 2.5-.6.6-1.4.9-2.4.9s-1.8-.3-2.4-.9c-.5-.5-.8-1.4-.8-2.4zm8.9-2.3v1.9h.7c.5 0 .9 0 1.1-.1.2-.1.3-.2.4-.3.1-.1.2-.3.2-.5s-.1-.4-.2-.6c-.1-.2-.3-.3-.5-.3h-1.7v-.1zM65 12.3V5.6h2.2c.8 0 1.4 0 1.6.1.4.1.7.3 1 .7.3.3.4.8.4 1.3 0 .4-.1.8-.2 1-.1.3-.3.5-.6.7-.2.2-.5.3-.7.3-.3.1-.8.1-1.4.1h-.9v2.5H65zm6.3 0V5.6h4.9v1.1h-3.6v1.5H76v1.1h-3.4v1.9h3.7v1.1zm8.6-6.7h1.3v4.2c0 .6 0 1-.1 1.3-.1.4-.4.7-.7.9s-.8.4-1.4.4c-.7 0-1.2-.2-1.5-.6-.4-.4-.5-.9-.5-1.6l1.3-.1c0 .4.1.7.2.8.1.2.4.4.7.4s.5-.1.6-.3.2-.5.2-1.1l-.1-4.3zm2.4 4.5 1.3-.1c.1.4.2.8.5 1 .2.2.6.3 1 .3s.8-.1 1-.3.3-.4.3-.6c0-.2 0-.3-.1-.4s-.3-.2-.5-.3c-.2-.1-.5-.2-1.1-.3-.7-.2-1.2-.4-1.5-.7-.4-.4-.6-.8-.6-1.3 0-.3.1-.7.3-1s.5-.5.8-.7c.4-.2.8-.2 1.3-.2.8 0 1.5.2 1.9.6s.6.9.7 1.5l-1.3.1c-.1-.3-.2-.6-.4-.7-.2-.2-.5-.2-.9-.2s-.7.1-.9.2c-.1.1-.2.2-.2.4s.1.3.2.4c.2.1.6.3 1.2.4.7.2 1.1.3 1.5.5.3.2.6.4.7.7.2.3.3.6.3 1.1 0 .4-.1.7-.3 1.1-.2.3-.5.6-.9.7-.4.2-.9.2-1.5.2-.8 0-1.5-.2-1.9-.6-.5-.5-.8-1-.9-1.8m6.6 2.2V5.6h1.4v3l2.7-3h1.8l-2.5 2.6 2.7 4.1h-1.8l-1.8-3.1-1.1 1.1v2z"/><path d="m99.2 9.6-.9-2.5-.9 2.5h1.8zm2.5 2.7h-1.5l-.6-1.5h-2.7l-.6 1.5h-1.4l2.6-6.7h1.4l2.8 6.7zm-86 8.7v-5.4h3.9v.6h-3.2v1.7h3v.6h-3v1.9h3.3v.6zm8.6-5.4h.7v3.2c0 .5-.1 1-.2 1.3s-.3.6-.7.8c-.3.2-.7.3-1.3.3-.5 0-.9-.1-1.3-.3-.3-.2-.6-.4-.7-.8-.1-.3-.2-.8-.2-1.4v-3.2h.7v3.1c0 .5 0 .8.1 1s.2.4.5.5c.2.1.5.2.8.2.5 0 .9-.1 1.1-.4.2-.2.3-.7.3-1.4v-2.9h.2zM27 18h1.6c.3 0 .6 0 .8-.1s.3-.2.4-.3c.1-.1.1-.3.1-.5 0-.3-.1-.5-.3-.6-.2-.2-.5-.2-.9-.2H27V18zm-.8 3v-5.5h2.4c.5 0 .9 0 1.1.1.3.1.5.3.6.5.2.2.2.5.2.8 0 .4-.1.7-.4 1-.3.3-.6.4-1.2.5.2.1.3.2.4.3.2.2.4.4.6.7l.9 1.5h-.7l-.7-1.1c-.2-.3-.4-.6-.5-.8s-.3-.3-.4-.4c-.1-.1-.2-.1-.3-.1H27v2.4l-.8.1zm6.1-2.6c0 .7.2 1.2.5 1.6.4.4.8.6 1.3.6s1-.2 1.3-.6c.4-.4.5-.9.5-1.6 0-.4-.1-.8-.2-1.2-.1-.3-.4-.6-.7-.8s-.6-.3-1-.3c-.5 0-1 .2-1.3.5-.3.4-.4 1-.4 1.8m-.8 0c0-.9.2-1.6.7-2.1s1.1-.8 1.9-.8c.5 0 1 .1 1.4.4.4.2.7.6.9 1s.3.9.3 1.5-.1 1-.3 1.5c-.2.4-.5.8-.9 1s-.9.3-1.3.3c-.5 0-1-.1-1.4-.4-.4-.2-.7-.6-.9-1-.3-.5-.4-.9-.4-1.4zm6.9-.2h1.4c.5 0 .8-.1 1-.3s.3-.4.3-.7c0-.2-.1-.4-.2-.6-.1-.2-.3-.3-.5-.3h-2.1v1.9h.1zm-.7 2.8v-5.5h2.1c.4 0 .6 0 .8.1.3 0 .5.1.7.3.2.1.3.3.4.5.1.2.2.5.2.7 0 .5-.1.9-.4 1.2-.3.3-.8.5-1.6.5h-1.4V21h-.8zm5.1 0v-5.4h3.9v.6h-3.2v1.7h3v.6h-3v1.9h3.3v.6zm4.7-1.5.7-.1c0 .4.1.7.2.9.1.2.3.2.6.2.2 0 .3 0 .5-.1l.3-.3c0-.1.1-.4.1-.7v-3.8h.7v3.7c0 .5-.1.8-.2 1.1-.1.3-.3.4-.5.6-.2.1-.5.2-.8.2-.5 0-.8-.1-1.1-.4-.4-.3-.5-.8-.5-1.3m3.9-.2.7-.1c0 .3.1.5.2.7.1.2.3.3.5.4.2.1.5.2.8.2s.5 0 .7-.1.4-.2.5-.3.2-.3.2-.5 0-.3-.1-.4c-.1-.1-.3-.2-.5-.3-.1-.1-.5-.1-1-.3-.5-.1-.9-.2-1.1-.3-.3-.1-.5-.3-.6-.5s-.2-.4-.2-.7.1-.5.2-.8c.2-.2.4-.4.7-.5s.6-.2 1-.2.8.1 1.1.2c.3.1.5.3.7.6s.3.5.3.9l-.7.1c0-.3-.2-.6-.4-.8s-.5-.3-1-.3c-.4 0-.8.1-1 .2-.2.2-.3.4-.3.6 0 .2.1.4.2.5.1.1.5.3 1.1.4.6.1 1 .2 1.2.3.3.1.6.3.7.6.2.2.2.5.2.8s-.1.6-.2.8c-.2.3-.4.5-.7.6s-.7.2-1.1.2c-.5 0-.9-.1-1.2-.2-.3-.1-.6-.4-.8-.6 0-.5-.1-.8-.1-1.2m5.3 1.7v-5.4h.7v2.7l2.7-2.7h1l-2.3 2.2 2.4 3.2h-.9l-2-2.7-.9.9V21zm5.2-5.4h.7v5.5h-.7zm4.2 5.4v-5.4h3.7v.6h-3v1.7h2.6v.7h-2.6V21zm8.2-5.4h.7v3.2c0 .5-.1 1-.2 1.3-.1.3-.3.6-.7.8-.3.2-.7.3-1.3.3-.5 0-.9-.1-1.3-.3-.3-.2-.6-.4-.7-.8-.1-.3-.2-.8-.2-1.4v-3.2h.7v3.1c0 .5 0 .8.1 1s.2.4.5.5c.2.1.5.2.8.2.5 0 .9-.1 1.1-.4.2-.2.3-.7.3-1.4v-2.9h.2zm1.9 5.4v-5.4h.7l2.9 4.3v-4.3h.7V21h-.7l-2.9-4.2V21zm6.2-.6h1.2c.4 0 .6 0 .8-.1s.4-.2.5-.3c.2-.2.3-.4.4-.7.1-.3.1-.6.1-1.1 0-.6-.1-1-.3-1.3s-.4-.5-.7-.6c-.2-.1-.5-.1-.9-.1h-1.1v4.2zm-.7.6v-5.5h1.9c.4 0 .7 0 1 .1s.6.2.8.4c.3.2.5.6.6.9.1.4.2.8.2 1.3 0 .4 0 .8-.1 1.1s-.2.6-.4.8-.3.4-.5.5-.4.2-.7.3-.5.1-.9.1h-1.9zm9.1-5.4h.7v3.2c0 .5-.1 1-.2 1.3-.1.3-.3.6-.7.8-.3.2-.7.3-1.3.3-.5 0-.9-.1-1.3-.3-.3-.2-.6-.4-.7-.8-.1-.3-.2-.8-.2-1.4v-3.2h.7v3.1c0 .5 0 .8.1 1s.2.4.5.5c.2.1.5.2.8.2.5 0 .9-.1 1.1-.4.2-.2.3-.7.3-1.4v-2.9h.2zm1.7 3.7.7-.1c0 .3.1.5.2.7.1.2.3.3.5.4.2.1.5.2.8.2s.5 0 .7-.1.4-.2.5-.3.2-.3.2-.5 0-.3-.1-.4c-.1-.1-.3-.2-.5-.3-.1-.1-.5-.1-1-.3-.5-.1-.9-.2-1.1-.3-.3-.1-.5-.3-.6-.5s-.2-.4-.2-.7.1-.5.2-.8c.2-.2.4-.4.7-.5s.6-.2 1-.2.8.1 1.1.2c.3.1.5.3.7.6s.3.5.3.9l-.7.1c0-.3-.2-.6-.4-.8s-.5-.3-1-.3c-.4 0-.8.1-1 .2-.2.2-.3.4-.3.6 0 .2.1.4.2.5.1.1.5.3 1.1.4.6.1 1 .2 1.2.3.3.1.6.3.7.6.2.2.2.5.2.8s-.1.6-.2.8c-.2.3-.4.5-.7.6s-.7.2-1.1.2c-.5 0-.9-.1-1.2-.2-.3-.1-.6-.4-.8-.6 0-.5-.1-.8-.1-1.2m4.9 1.7v-.7l2.8-3.5c.2-.2.4-.5.6-.6h-3v-.6h3.9v.6L98.6 20l-.3.4h3.5v.6h-4.4zM.7 26.8h1.6c.3 0 .6 0 .8-.1.2-.1.3-.2.4-.3s.1-.3.1-.5c0-.3-.1-.5-.3-.6-.2-.2-.5-.2-.9-.2H.7v1.7zM0 29.9v-5.5h2.4c.5 0 .9 0 1.1.1.3.1.5.3.6.5.2.2.2.5.2.8 0 .4-.1.7-.4 1s-.6.4-1.2.5c.2.1.3.2.4.3.2.2.4.4.6.7l.9 1.5h-.9L3 28.7c-.2-.3-.4-.6-.5-.8s-.3-.3-.4-.4c-.1-.1-.2-.1-.3-.1H.6v2.4l-.6.1zm6-2.7c0 .7.2 1.2.5 1.6.4.4.8.6 1.3.6s1-.2 1.3-.6c.4-.4.5-.9.5-1.6 0-.4-.1-.8-.2-1.2-.1-.3-.4-.6-.7-.8-.3-.2-.6-.3-1-.3-.5 0-1 .2-1.3.5-.2.4-.4 1-.4 1.8m-.7 0c0-.9.2-1.6.7-2.1s1.1-.8 1.9-.8c.5 0 1 .1 1.4.4.4.2.7.6.9 1 .2.4.3.9.3 1.5s-.1 1-.3 1.5c-.2.4-.5.8-.9 1s-.9.3-1.3.3c-.5 0-1-.1-1.4-.4-.4-.2-.7-.6-.9-1-.3-.4-.4-.9-.4-1.4zm5.7 2.7v-.7l2.8-3.5c.2-.2.4-.5.6-.6h-3v-.6h3.9v.6l-3.1 3.8-.3.4h3.5v.6H11zm6 0-1.4-5.5h.7l.8 3.6c.1.4.2.7.2 1.1.1-.6.2-.9.2-1l1-3.7h.9l.8 2.8c.2.7.3 1.3.4 1.9.1-.3.2-.7.3-1.2l.9-3.5h.7L21 29.9h-.7l-1.1-4.2-.2-.6c-.1.3-.1.5-.2.6l-1.2 4.2H17zm6.8-2.7c0 .7.2 1.2.5 1.6.4.4.8.6 1.3.6s1-.2 1.3-.6c.4-.4.5-.9.5-1.6 0-.4-.1-.8-.2-1.2-.2-.3-.4-.6-.7-.8s-.6-.3-1-.3c-.5 0-1 .2-1.3.5-.2.4-.4 1-.4 1.8m-.8 0c0-.9.2-1.6.7-2.1s1.1-.8 1.9-.8c.5 0 1 .1 1.4.4.4.2.7.6.9 1s.3.9.3 1.5-.1 1-.3 1.5c-.2.4-.5.8-.9 1s-.9.3-1.3.3c-.5 0-1-.1-1.4-.4-.4-.2-.7-.6-.9-1-.3-.4-.4-.9-.4-1.4zm5.8 1.1.7-.1c0 .4.1.7.2.9.1.2.3.2.6.2.2 0 .3 0 .5-.1l.3-.3c0-.1.1-.4.1-.7v-3.8h.7v3.7c0 .5-.1.8-.2 1.1-.1.3-.3.4-.5.6-.2.1-.5.2-.8.2-.5 0-.8-.1-1.1-.4-.4-.3-.5-.7-.5-1.3m7.8-3.9h.7v3.2c0 .5-.1 1-.2 1.3-.1.3-.3.6-.7.8-.3.2-.7.3-1.3.3-.5 0-.9-.1-1.3-.3-.3-.2-.6-.4-.7-.8-.1-.3-.2-.8-.2-1.4v-3.2h.7v3.1c0 .5 0 .8.1 1s.2.4.5.5c.2.1.5.2.8.2.5 0 .9-.1 1.1-.4.2-.2.3-.7.3-1.4v-2.9h.2zm4.8 2.4H43c.3 0 .6 0 .8-.1s.3-.2.4-.3c.1-.1.1-.3.1-.5 0-.3-.1-.5-.3-.6-.2-.2-.5-.2-.9-.2h-1.7v1.7zm-.8 3.1v-5.5H43c.5 0 .9 0 1.1.1.3.1.5.3.6.5.2.2.2.5.2.8 0 .4-.1.7-.4 1-.3.3-.6.4-1.2.5.2.1.3.2.4.3.2.2.4.4.6.7l.9 1.5h-.9l-.7-1.1c-.2-.3-.4-.6-.5-.8s-.3-.3-.4-.4c-.1-.1-.2-.1-.3-.1h-1.2v2.4l-.6.1zm5.5 0v-5.5h4v.7h-3.2v1.6h3v.7h-3v1.8h3.3v.7zm7.7-2.2v-.6h2.3v2c-.4.3-.7.5-1.1.6-.4.1-.8.2-1.2.2-.5 0-1-.1-1.5-.3-.4-.2-.8-.6-1-1s-.3-.9-.3-1.5c0-.5.1-1 .3-1.5s.5-.8 1-1c.4-.2.9-.3 1.4-.3.4 0 .8.1 1.1.2.3.1.6.3.7.5.2.2.3.5.4.9l-.7.2c-.1-.3-.2-.5-.3-.7s-.3-.3-.5-.4c-.2-.1-.5-.1-.8-.1s-.6.1-.9.2c-.2.1-.4.2-.6.4-.1.2-.3.3-.3.5-.1.3-.2.7-.2 1.1 0 .5.1.9.3 1.2s.4.6.7.7c.3.2.7.2 1 .2s.6-.1.9-.2c.3-.1.5-.2.7-.4v-1l-1.4.1zm3.5-3.3h.7v5.5h-.7zm2.5 2.8c0 .7.2 1.2.5 1.6.4.4.8.6 1.3.6s1-.2 1.3-.6c.4-.4.5-.9.5-1.6 0-.4-.1-.8-.2-1.2-.1-.3-.4-.6-.7-.8s-.6-.3-1-.3c-.5 0-1 .2-1.3.5-.2.4-.4 1-.4 1.8m-.8 0c0-.9.2-1.6.7-2.1s1.1-.8 1.9-.8c.5 0 1 .1 1.4.4.4.2.7.6.9 1s.3.9.3 1.5-.1 1-.3 1.5c-.2.4-.5.8-.9 1s-.9.3-1.3.3c-.5 0-1-.1-1.4-.4-.4-.2-.7-.6-.9-1-.3-.4-.4-.9-.4-1.4zm6.2 2.7v-5.5h.7l2.9 4.3v-4.3h.7v5.5h-.8l-2.8-4.3v4.3zm6.5-2.3h1.9l-.6-1.5c-.2-.5-.3-.8-.4-1.1-.1.4-.2.7-.3 1l-.6 1.6zm-1.6 2.3 2.1-5.5h.8l2.2 5.5h-.8l-.6-1.7h-2.3l-.6 1.7h-.8zm5.6 0v-5.5h.8v4.8h2.7v.7zm4.3 0v-5.5h.7l2.9 4.3v-4.3h.7v5.5h-.7l-2.9-4.3v4.3zm5.5 0v-5.5h4v.7h-3.2v1.6h3v.7h-3v1.8h3.3v.7zm7.7-2.2v-.6h2.3v2c-.4.3-.7.5-1.1.6-.4.1-.8.2-1.2.2-.5 0-1-.1-1.5-.3-.4-.2-.8-.6-1-1s-.3-.9-.3-1.5c0-.5.1-1 .3-1.5s.5-.8 1-1c.4-.2.9-.3 1.4-.3.4 0 .8.1 1.1.2.3.1.6.3.7.5.2.2.3.5.4.9l-.7.2c-.1-.3-.2-.5-.3-.7s-.3-.3-.5-.4c-.2-.1-.5-.1-.8-.1s-.6.1-.9.2c-.2.1-.4.2-.6.4-.1.2-.3.3-.3.5-.1.3-.2.7-.2 1.1 0 .5.1.9.3 1.2s.4.6.7.7c.3.2.7.2 1 .2s.6-.1.9-.2c.3-.1.5-.2.7-.4v-1l-1.4.1zm3.9-.5c0 .7.2 1.2.5 1.6.4.4.8.6 1.3.6s1-.2 1.3-.6c.4-.4.5-.9.5-1.6 0-.4-.1-.8-.2-1.2-.1-.3-.4-.6-.7-.8s-.6-.3-1-.3c-.5 0-1 .2-1.3.5-.3.4-.4 1-.4 1.8m-.8 0c0-.9.2-1.6.7-2.1s1.1-.8 1.9-.8c.5 0 1 .1 1.4.4.4.2.7.6.9 1s.3.9.3 1.5-.1 1-.3 1.5c-.2.4-.5.8-.9 1s-.9.3-1.3.3c-.5 0-1-.1-1.4-.4-.4-.2-.7-.6-.9-1-.3-.4-.4-.9-.4-1.4z"/></svg>