<svg xmlns="http://www.w3.org/2000/svg" viewBox="0 0 153 29.3" style="enable-background:new 0 0 153 29.3" xml:space="preserve"><path d="M24.4 13.6c.5-.8.9-1.7 1.2-2.6.9-2.5 1.4-6.1-.3-8.5-.9-1.2-2.8-2.2-4.4-2.4-2.2-.3-4.6.3-6 1.9-.9.9-1.5 1.2-2.2 1.2-.5 0-1.8-1.4-2.3-1.7-.7-.4-1.5-.8-2.3-1-6.7-1.6-9.3 6-7.5 11 .9 2.5 4.7 6.8 6.9 8.5.9.7 5.6 4.3 6.6 2.4.7-1.4-1.8-2.8-2.6-3.5-1.4-1.2-3.1-2.7-4.1-4.3-.9-1.5-3.9-7.7.8-7.7.8 0 2 .6 2.7 2.7.6 1.6 1.3 2.8 2.9 3h.2c1.7 0 2.9-2.4 4-4.3 1-1.6 2.2-.9 2.7.6.7 1.8-.1 3.8-1 5.4-.5.8-1 1.5-1.7 2.1-.5.5-1.6 1.3-1.6 2.1.1 2 3.8-.3 4.3-.6 1.6-1.2 2.8-2.6 3.7-4.3m20.3 1.9c0 2-.9 2.7-1.8 2.7-.8 0-1.8-.5-2.4-1.1-.7-.7-1.4-1.1-2.3-1.1-.5 0-1.1.2-1.7.5-1.1.5-2.9 1.3-4.7 1.3-1 0-1.9-.3-2.6-1-1-.9-1.4-2.1-1.4-3.3 0-4.3 5.2-9.4 8.9-9.9h.4c.7 0 1 .3 1 .8s-.4 1.1-.9 1.4c-2.3 1.6-3.6 4-3.6 5.7 0 .9.3 1.5 1 1.8.2.1.5.1.7.1 1.3 0 2.4-1.5 3.1-3.3.8-1.8 1.6-3.3 2.6-3.3.5 0 1.1.4 1.7 1.4 1.1 1.7 1.9 3.9 1.9 7l.1.3zm30.6-.9c-1.5 2.2-4 3.5-6.4 3.5-1.2 0-2.3-.3-3.3-1C64 16 63.2 14 63.2 12c0-1.7.5-3.4 1.6-4.9 1.5-2.2 4.1-3.5 6.5-3.5 1.2 0 2.4.3 3.4 1 1.5 1.1 2.2 2.8 2.2 4.7.1 1.9-.5 3.7-1.6 5.3zm-3.7-8.2c-.2-.1-.3-.1-.5-.1-.9 0-2 .9-2.5 2.2-.2.5-.3 1-.3 1.5 0 1 .4 1.8 1.1 2.1.2.1.3.1.5.1.9 0 2-.9 2.5-2.2.2-.5.3-1 .3-1.5 0-1-.4-1.9-1.1-2.1zm31.5 1.5c-.8 3.5-2.8 7.4-4.7 9.4-1 1-2 1.5-3.1 1.5-1.5 0-2.9-.9-4.3-2.5-.8-.9-1.4-1.2-2-1.2-1 0-1.7 1-2.3 2-.5.8-1.2 1.3-2.3 1.3-.7 0-1.5-.2-2.3-.8-2.4-1.6-3.8-6.2-3.8-9.8V7c.1-1.3.9-2 1.7-2 .7 0 1.4.4 1.6 1.3.4 1.2.9 2.7 2 4.3.4.6.9 1 1.5 1 .8 0 1.5-.8 2.3-2.9.5-1.6 1.2-2.8 2.6-3h.2c1.6 0 2.6 2.4 3.7 4.3.5 1 1.3 1.5 2.1 1.5.6 0 1.2-.3 1.8-.9 1.5-1.6 2.2-2.7 2.8-3.7.3-.5.9-.8 1.5-.8.5 0 1 .3 1 1.1.1.2.1.4 0 .7zm6.9 10.5c-.4.1-1 .1-1.5.1-.9 0-1.7-.2-1.9-.7v-.2c0-.5.5-1 1.3-1.5.7-.4 1.7-1.4 1.7-2.7 0-1-.7-2.2-2.7-3.5-1.6-1-2.3-2.1-2.3-3.1 0-2.4 3.4-4.6 5.5-5 .3-.1.6-.1.9-.1.9 0 1.3.4 1.3.8 0 .3-.2.7-.5 1-.5.5-1.9 1.2-1.9 2.4 0 .8.7 1.9 3.1 3.2 2 1.1 2.8 2.5 2.8 3.8-.1 2.7-2.8 5-5.8 5.5zm21.3-1.5c-1.9.9-4.5 1.7-8.8 1.7-.8 0-1.6 0-2.5-.1-2-.1-3.4-.8-3.4-2.2 0-1.1.8-2.5 2.9-4.4 1.5-1.5 2.1-2.5 2.1-3.2 0-2.1-3.5-1.3-4.7-1.6-.4-.1-1-.4-1-1 0-.4.5-.9 1.5-1.3 3.1-1 6.8-1.4 9.8-1.5h.2c1.4 0 2.8.5 2.8 1.7 0 .5-.3 1.2-1.1 2.1-2.5 2.5-4.1 4.5-4.1 6 0 .2 0 .4.1.5.3 1.1 1.7 1.4 3.1 1.4.5 0 1.1 0 1.6-.1.7-.1 2.4-.5 2.4.8 0 .4-.3.8-.9 1.2zm-69.4 0c-1.9.9-4.5 1.7-8.8 1.7-.8 0-1.6 0-2.5-.1-2-.1-3.4-.8-3.4-2.2 0-1.1.8-2.5 2.9-4.4 1.5-1.5 2.2-2.5 2.2-3.2 0-2.1-3.5-1.3-4.7-1.6-.4-.1-1-.4-1-1 0-.4.5-.9 1.5-1.3 3.1-1 6.8-1.4 9.8-1.5h.2c1.4 0 2.8.5 2.8 1.7 0 .5-.3 1.2-1.1 2.1-2.5 2.5-4.1 4.5-4.1 6 0 .2 0 .4.1.5.3 1.1 1.7 1.4 3.1 1.4.5 0 1.1 0 1.6-.1.7-.1 2.4-.5 2.4.8 0 .4-.3.8-1 1.2zm84-7.1c.8-.7 1.4-1.7 1.5-2.9.1-1-.2-2.1-.7-2.9-2-3-7.5-1.6-9.6.2-1.9 1.7-3.3 4.2-3.4 6.8-.1 1.9-.1 4.3 1.1 5.9.8 1.1 2.2 1.6 3.4 1.8.7.1 1.4.2 2.2.1.7-.1 1.4-.3 2.1-.6 1.8-.9 3.3-2.3 4.3-4l.3-.6c.2-.4.3-.7.3-1 0-.4-.3-.6-.7-.5-.3 0-.6.2-1.1.5-1.1.7-2.1 1.6-3.6 1.8-.6.1-1.3.2-1.8-.2-.4-.3-.8-1.1-.2-1.2 2.7-.9 4.7-2.1 5.9-3.2zm-7.2-1.2c0-2.3 2.7-3.8 4.1-3 .5.3 1.4 2.3-2 3.7-.8.4-2.2.9-2.1-.7zm14 9.3c-.5 1.1-1.6 1.8-2.7 1.8-.3 0-.6-.1-.8-.2-.7-.3-1.1-1-1.1-1.8 0-.5.1-1 .4-1.6.5-1.1 1.5-1.8 2.4-1.8.3 0 .5.1.8.2.8.3 1.3 1.2 1.3 2.2l-.3 1.2z" style="fill:#ed1c24"/><path d="M102.2 28.6c.2.1.6.3 1 .3.7 0 1-.4 1-.8 0-.5-.3-.7-.9-1-.7-.3-1.1-.7-1.1-1.2 0-.6.5-1.2 1.3-1.2.4 0 .7.1.9.3l-.2.3c-.1-.1-.4-.3-.9-.3s-.8.3-.8.7.3.6.9.9c.7.3 1.1.6 1.1 1.3s-.6 1.2-1.5 1.2c-.4 0-.8-.1-1.1-.3l.3-.2zm4-1.6c0 1.4.8 1.9 1.6 1.9.6 0 .9-.1 1.2-.2l.1.3c-.2.1-.6.3-1.4.3-1.2 0-2-.9-2-2.2 0-1.4.8-2.3 1.9-2.3 1.4 0 1.7 1.3 1.7 1.9v.3h-3.1zm2.7-.4c0-.6-.2-1.5-1.3-1.5-.9 0-1.4.9-1.4 1.5h2.7zm2-.4v-1.3h.4v.9c.2-.5.6-1 1.2-1h.2v.4h-.2c-.6 0-1 .5-1.1 1.2v2.8h-.4v-3h-.1zm6 2.8c-.2.1-.6.3-1.3.3-1.2 0-2.1-.9-2.1-2.2 0-1.4.9-2.3 2.2-2.3.5 0 1 .2 1.1.3l-.2.3c-.2-.1-.5-.3-1-.3-1.2 0-1.7.9-1.7 1.9 0 1.1.7 1.9 1.7 1.9.5 0 .8-.1 1.1-.2l.2.3zm1.5-2c0 1.4.8 1.9 1.6 1.9.6 0 .9-.1 1.2-.2l.1.3c-.2.1-.6.3-1.4.3-1.2 0-2-.9-2-2.2 0-1.4.8-2.3 1.9-2.3 1.4 0 1.7 1.3 1.7 1.9v.3h-3.1zm2.8-.4c0-.6-.2-1.5-1.3-1.5-.9 0-1.4.9-1.4 1.5h2.7zm4.4-3.4c.3-.1.8-.1 1.3-.1.7 0 1.3.2 1.6.5.3.3.5.7.5 1.2s-.2.9-.4 1.2c-.4.4-1 .7-1.8.7-.3 0-.5 0-.7-.1v2.6h-.4v-6h-.1zm.4 3c.2.1.5.1.8.1 1.1 0 1.7-.5 1.7-1.5 0-.9-.7-1.4-1.6-1.4-.4 0-.7 0-.9.1v2.7zm7.9.8c0 1.6-1.1 2.3-2.1 2.3-1.1 0-2-.9-2-2.2 0-1.5 1-2.3 2-2.3 1.3 0 2.1.9 2.1 2.2zm-3.6 0c0 1.1.7 1.9 1.6 1.9s1.6-.8 1.6-1.9c0-.8-.4-1.9-1.6-1.9-1.1 0-1.6 1-1.6 1.9zm5.2-4.2h.4v6.4h-.4v-6.4zm2.1 5.8c.2.1.6.3 1 .3.7 0 1-.4 1-.8 0-.5-.3-.7-.9-1-.7-.3-1.1-.7-1.1-1.2 0-.6.5-1.2 1.3-1.2.4 0 .7.1.9.3l-.2.3c-.1-.1-.4-.3-.8-.3-.5 0-.8.3-.8.7s.3.6.9.9c.7.3 1.1.6 1.1 1.3s-.6 1.2-1.5 1.2c-.4 0-.8-.1-1.1-.3l.2-.2zm4.4-1.7c.1-.1.3-.3.4-.5l1.5-1.6h.5l-1.7 1.8 2 2.5h-.5l-1.8-2.3-.4.5v1.8h-.4v-6.3h.4v4.1zm4.6-3.2c0 .2-.1.4-.4.4-.2 0-.3-.2-.3-.4s.2-.4.3-.4c.3 0 .4.1.4.4zm-.6 1.2h.4v4.3h-.4v-4.3z"/></svg>