<svg xmlns="http://www.w3.org/2000/svg" xmlns:xlink="http://www.w3.org/1999/xlink" viewBox="0 0 204.6 52.8" style="enable-background:new 0 0 204.6 52.8" xml:space="preserve"><defs><path id="a" d="M32.2 52.8 6.7 48.3V8.5L32.2 0z"/></defs><clipPath id="b"><use xlink:href="#a" style="overflow:visible"/></clipPath><path style="clip-path:url(#b);fill:url(#SVGID_3_)" d="M27.6 62.5 52.4 9.4 11.3-9.8l-24.8 53.1z"/><defs><path id="c" d="M32.2 20.2c-.9.6-1.7 1-2.4 1.2-2 .4-4.2-2-4.2-2s.5 3.6-.8 5.8c-1.4 2.3-5.7 5.2-5.7 5.2s4.8-1 5.8.6c1 1.7 1.1 7.4 1.1 7.4s2.5-6.9 4.7-7.9c.4-.2 1-.4 1.6-.5l-.1-9.8z"/></defs><clipPath id="d"><use xlink:href="#c" style="overflow:visible"/></clipPath><path style="clip-path:url(#d);fill:url(#SVGID_6_)" d="m30.6 42.5 7.7-21L20.6 15l-7.7 21z"/><defs><path id="e" d="M32.2 20.2c-.9.6-1.7 1-2.4 1.2-2 .4-4.2-2-4.2-2s.5 3.6-.8 5.8c-1.4 2.3-5.7 5.2-5.7 5.2s4.8-1 5.8.6c1 1.7 1.1 7.4 1.1 7.4s2.5-6.9 4.7-7.9c.4-.2 1-.4 1.6-.5l-.1-9.8z"/></defs><clipPath id="f"><use xlink:href="#e" style="overflow:visible"/></clipPath><path style="clip-path:url(#f);fill:url(#SVGID_9_)" d="m31.3 41.6 5.6-21L20 16l-5.7 21z"/><defs><path id="g" d="M0 41s4.5-4.9 5.6-7.5c1-2.5-1.8-6.6-1.8-6.6s4.5 2.4 6.5 1.1c2.1-1.3 5.2-5.2 5.2-5.2s-1.6 4.2-1 5.7c.7 1.6 4.5 1.7 4.5 1.7s-4.4 2.8-6.4 4.6C10.5 36.7 9 43.6 9 43.6S7.9 39 6.6 38.2C5.4 37.5 0 41 0 41"/></defs><clipPath id="h"><use xlink:href="#g" style="overflow:visible"/></clipPath><path style="clip-path:url(#h);fill:url(#SVGID_12_)" d="M12.8 13.8-9.8 29.6l16.1 23 22.6-15.8z"/><defs><path id="i" d="M7.3 38.8h-.1c.1.2.2.3.3.5 0 .1.1.1.1.2s.1.1.1.2.1.1.1.2.1.1.1.2.1.1.1.2v.2s0 .1.1.1v.1c0 .1 0 .1.1.2v.1c0 .1 0 .1.1.2.4 1.1.7 2.1.7 2.4v-.3c0-.2.1-.4.2-.7-.3-1.3-1.1-3.3-1.9-3.8m8.1-9.4c.6.7 2 1.1 3 1.2.1 0 .1-.1.1-.1.3-.2.5-.3.5-.3s-2.2 0-3.6-.8zm-5-1.4c-2.1 1.3-6.5-1.1-6.5-1.1s2.9 4.1 1.8 6.6C4.6 36.1.1 41 .1 41s1-.7 2.2-1.3c1.4-1.7 3.3-4.1 4-5.7 1-2.5-1.8-6.6-1.8-6.6S9 29.8 11 28.5c1.2-.8 2.8-2.4 3.9-3.7.3-1.1.7-2 .7-2s-3.2 3.9-5.2 5.2z"/></defs><clipPath id="j"><use xlink:href="#i" style="overflow:visible"/></clipPath><path style="clip-path:url(#j);fill:url(#SVGID_15_)" d="m7.9 53 21.4-18-18.1-21.6-21.4 18z"/><defs><path id="k" d="M26.1 44.1s-.4-.7.5-.7c.8-.1 2.7-.1 2.7-.1s-2.1-.3-2.7-.5c-.6-.2-.4-.6-.4-.6s-1.1.2-2 .2c-1 0-2.9-.4-2.9-.4s1.3.4 1.1.7c-.1.2-2.1.5-2.1.5s2.7 0 3.6.2c.8.1 2.2.7 2.2.7m-7.3-.2c-.1-.3 1.5-.7 1.5-.7s-2.3.1-3.6 0c-1.3-.1-2.6-.7-2.6-.7s.2.6-.8.8-4.2.3-4.2.3 3.4.2 4 .5.4 1.2.4 1.2 1.9-.8 3.3-.8 4.2.2 4.2.2-2.2-.5-2.2-.8zM29.6 46c.2-.4 2-.7 2-.7s-2.4-.1-3.6-.3c-1.2-.2-1.9-.9-1.9-.9s-.3.6-1.3.8c-1.1.2-3.9 0-3.9 0s2.7.6 3 .9c.3.4-.6 1.3-.6 1.3s2.4-.7 3.7-.5 4 .8 4 .8-1.6-1-1.4-1.4z"/></defs><clipPath id="l"><use xlink:href="#k" style="overflow:visible"/></clipPath><path style="clip-path:url(#l);fill:url(#SVGID_18_)" d="M9.1 42h22.5v5.3H9.1z"/><defs><path id="m" d="M15.6 22.8s2.5-4 2.3-5.4c-.1-1.3-2.7-1.8-2.7-1.8s3.3-.8 4.8-2.2c1.4-1.3 2.6-4 2.6-4s.3 2.2 1.6 2.6c1.3.3 4.7-1.1 4.7-1.1s-2.7 2.7-3.8 4.1c-1.1 1.5.5 4.4.5 4.4s-2.9-1-4.5-.7c-1.6.2-5.5 4.1-5.5 4.1"/></defs><clipPath id="n"><use xlink:href="#m" style="overflow:visible"/></clipPath><path style="clip-path:url(#n);fill:url(#SVGID_21_)" d="M20.8 2.5 8.5 17.2l14.7 12.3 12.3-14.6z"/><defs><path id="o" d="M20 13.3c-1.5 1.4-4.8 2.2-4.8 2.2s.5.1 1.1.4c1-.3 3.2-1 4.3-2.1 1-.9 1.9-2.5 2.3-3.4-.2-.6-.3-1.1-.3-1.1s-1.2 2.7-2.6 4m-2.4 3.4c.2.2.3.4.3.6.2 1.4-2.3 5.4-2.3 5.4s.8-.8 1.8-1.7c.6-1.2 1.1-2.5 1.1-3.2-.1-.4-.5-.8-.9-1.1zm6.6-4.8c-.1 0-.1 0-.2-.1.2.3.5.5.8.6.7.2 2-.1 3-.5.6-.7 1.1-1.1 1.1-1.1s-3.5 1.4-4.7 1.1z"/></defs><clipPath id="p"><use xlink:href="#o" style="overflow:visible"/></clipPath><path style="clip-path:url(#p);fill:url(#SVGID_24_)" d="m19.7 29.2 15.5-10.9L24.4 2.8 8.8 13.7z"/><defs><path id="q" d="M24.8 30.8c1 1.7 1.1 7.5 1.1 7.5s.2-.5.5-1.3c-.1-1.8-.4-4.6-1-5.6-.1-.3-.3-.4-.6-.6m5-9.5c-1.2.2-2.4-.5-3.2-1.1.7.7 2.3 1.9 3.8 1.6.5-.1 1.1-.4 1.8-.9v-.7c-.9.5-1.8 1-2.4 1.1zm-3.6-1.4c-.4-.3-.6-.6-.6-.6s.5 3.6-.8 5.8c-1.4 2.3-5.7 5.2-5.7 5.2s.7-.1 1.7-.2c1.4-1 3.7-2.9 4.7-4.5 1.1-2.1.7-5.3.7-5.7z"/></defs><clipPath id="r"><use xlink:href="#q" style="overflow:visible"/></clipPath><path style="clip-path:url(#r);fill:url(#SVGID_27_)" d="M24.5 12.8 9.7 30.4l17.1 14.3 14.7-17.6z"/><defs><path id="s" d="M28 21.2c1.3 1.7 2.8 6.2 3.6 8.8.2-.1.4-.1.6-.2v-8.9c-.7.4-1.3.8-1.8.9-.8.2-1.7-.1-2.4-.6"/></defs><clipPath id="t"><use xlink:href="#s" style="overflow:visible"/></clipPath><path style="clip-path:url(#t);fill:url(#SVGID_30_)" d="m35.1 29-3.4-9.4-6.6 2.4 3.4 9.4z"/><path d="M30.3 21.2c-.1.1-.3.1-.5.1-.4.1-.7.1-1.1 0h-.2c-.3-.1-.5-.2-.8-.3h-.1l.3.3c.7.4 1.6.7 2.4.6.5-.1 1.1-.4 1.8-.9v-.8c-.6.4-1.2.7-1.8 1" style="fill:#8b0304"/><path d="m50.3 39.6-2.2-3.5c-.2-.4-.4-.7-.6-1 0 .6.1 2.1.1 3v1.5h-.5v-5h.6l2.2 3.4c.2.3.4.7.6 1 0-.7-.1-2.2-.1-3.2v-1.3h.5v5l-.6.1zm4.2-3.8c-.1-.2-.2-.5-.2-.7-.1.2-.1.5-.2.7l-.8 2.1h2l-.8-2.1zm1.4 3.8-.4-1.3h-2.3l-.5 1.3h-.5l1.9-5h.5l1.9 5h-.6zm2.8-4.7h-.5v1.9h.5c.8 0 1.3-.4 1.3-1-.1-.7-.5-.9-1.3-.9m1.4 4.7-1.9-2.4v2.4h-.5v-5h1.1c.9 0 1.6.3 1.6 1.2s-.8 1.4-1.7 1.4c.1.2.3.4.5.5l1.6 1.9h-.7zm3.8-4.7c-.9 0-1.8.8-1.8 2.1s.6 2.2 1.7 2.2c.9 0 1.8-.8 1.8-2.1.1-1.4-.6-2.2-1.7-2.2m-.1 4.7c-1.5 0-2.2-1-2.2-2.5 0-1.7 1.1-2.6 2.3-2.6 1.4 0 2.2.9 2.2 2.5.1 1.7-1 2.6-2.3 2.6zm5.2-4.7h-.9v4.2c.2 0 .6.1.8.1 1.3 0 2.3-.7 2.3-2.1-.1-1.5-.8-2.2-2.2-2.2m-.2 4.7h-1.2v-5H69c1.6 0 2.6.8 2.6 2.5 0 1.6-1.2 2.5-2.8 2.5zm6.2-4.7c-.9 0-1.8.8-1.8 2.1s.6 2.2 1.7 2.2c.9 0 1.8-.8 1.8-2.1 0-1.4-.6-2.2-1.7-2.2m-.1 4.7c-1.5 0-2.2-1-2.2-2.5 0-1.7 1.1-2.6 2.3-2.6 1.4 0 2.2.9 2.2 2.5.1 1.7-1 2.6-2.3 2.6zm8.4 0h-.6l-1.1-3.8c-.1-.3-.1-.5-.2-.8 0 .2-.1.5-.2.8l-1.1 3.8h-.6l-1.4-5h.5l1 3.6c.1.3.2.6.2.9.1-.3.1-.6.2-.9l1-3.7h.6l1.1 3.7c.1.3.1.5.2.8 0-.3.1-.5.2-.7l1-3.8h.5l-1.3 5.1zm4.1-3.8c-.1-.2-.2-.5-.2-.7-.1.2-.1.5-.2.7l-.8 2.1h2l-.8-2.1zm1.4 3.8-.5-1.3H86l-.5 1.3H85l1.9-5h.5l1.9 5h-.5zm4.3 0c-.4 0-.7 0-1-.1V39c.3.1.7.2 1 .2.7 0 1.3-.3 1.3-1 0-1.2-2.4-.8-2.4-2.4 0-.8.6-1.4 1.7-1.4.3 0 .6 0 .9.1v.4c-.3-.1-.6-.1-.9-.1-.8 0-1.2.4-1.2.9 0 1.2 2.4.8 2.4 2.3-.1 1-.7 1.6-1.8 1.6m4.2-4.7v4.7h-.5v-4.7h-1.6v-.3h3.6v.3zm3.4 0h-.5v1.9h.5c.8 0 1.3-.4 1.3-1-.1-.7-.5-.9-1.3-.9m1.4 4.7-1.9-2.4v2.4h-.5v-5h1.1c.9 0 1.6.3 1.6 1.2s-.7 1.4-1.7 1.4c.1.2.3.4.5.5l1.6 1.9h-.7zm3.3-3.8c-.1-.2-.2-.5-.2-.7-.1.2-.1.5-.2.7l-.8 2.1h2l-.8-2.1zm1.4 3.8-.5-1.3H104l-.5 1.3h-.5l1.9-5h.5l1.9 5h-.5zm2.4-4.7v4.7h-.5v-4.7h-1.6v-.3h3.6v.3zm2.4 4.7v-5h2.4v.3h-2v1.9h1.9v.4H112v2h2v.4zm7.4-4.4c-.4-.2-.9-.3-1.3-.3-1.1 0-2.1.7-2.1 2.2 0 1.4.8 2.2 2 2.2.4 0 .7-.1 1.1-.2v-2h.5v2.3c-.5.2-1.1.3-1.6.3-1.5 0-2.5-.9-2.5-2.5 0-1.5 1-2.7 2.6-2.7.5 0 .9.1 1.4.2l-.1.5zm1.6-.6h.5v5h-.5zm3.7 1.2c-.1-.2-.2-.5-.2-.7-.1.2-.1.5-.2.7l-.8 2.1h2l-.8-2.1zm1.4 3.8-.5-1.3h-2.3l-.5 1.3h-.5l1.9-5h.5l1.9 5h-.5zm4.7 0c-.4 0-.7 0-1-.1V39c.3.1.7.2 1 .2.7 0 1.3-.3 1.3-1 0-1.2-2.4-.8-2.4-2.4 0-.8.6-1.4 1.7-1.4.3 0 .6 0 .9.1v.4c-.3-.1-.6-.1-.9-.1-.8 0-1.2.4-1.2.9 0 1.2 2.4.8 2.4 2.3 0 1-.7 1.6-1.8 1.6m4.1-4.7h-.6v2.2h.5c.9 0 1.4-.5 1.4-1.2 0-.6-.5-1-1.3-1m-.2 2.7h-.5v2h-.5v-5h1.1c1.1 0 1.7.6 1.7 1.4.2.9-.7 1.6-1.8 1.6zm4.6-3.5-.2-.3.9-.8.3.3-1 .8zm.3.8c-.9 0-1.8.8-1.8 2.1s.6 2.2 1.7 2.2c.9 0 1.8-.8 1.8-2.1 0-1.4-.6-2.2-1.7-2.2zm-.1 4.7c-1.5 0-2.2-1-2.2-2.5 0-1.7 1.1-2.6 2.3-2.6 1.4 0 2.2.9 2.2 2.5 0 1.7-1 2.6-2.3 2.6zm3.2 0c-.2 0-.4 0-.5-.1v-.4c.1.1.4.1.5.1.4 0 .7-.2.7-.9v-3.7h.5v3.8c0 .8-.4 1.2-1.2 1.2m6 0-2.2-3.5c-.2-.4-.4-.7-.6-1 0 .6.1 2.1.1 3v1.5h-.5v-5h.6l2.2 3.4c.2.3.4.7.6 1 0-.7-.1-2.2-.1-3.2v-1.3h.5v5l-.6.1zm4.1-4.7c-.9 0-1.8.8-1.8 2.1s.6 2.2 1.7 2.2c.9 0 1.8-.8 1.8-2.1 0-1.4-.6-2.2-1.7-2.2m-.1 4.7c-1.5 0-2.2-1-2.2-2.5 0-1.7 1.1-2.6 2.3-2.6 1.4 0 2.2.9 2.2 2.5 0 1.7-1 2.6-2.3 2.6zm4.2-5.5-.2-.3.9-.8.3.3-1 .8zm-.1 5.5c-.4 0-.7 0-1-.1V39c.3.1.7.2 1 .2.7 0 1.3-.3 1.3-1 0-1.2-2.4-.8-2.4-2.4 0-.8.6-1.4 1.7-1.4.3 0 .6 0 .9.1v.4c-.3-.1-.6-.1-.9-.1-.8 0-1.2.4-1.2.9 0 1.2 2.4.8 2.4 2.3 0 1-.7 1.6-1.8 1.6zm4.9 0c-1.5 0-2.2-.9-2.2-2.5 0-1.5.7-2.7 2.4-2.7.4 0 .8.1 1.2.2l-.1.4c-.4-.1-.8-.2-1.2-.2-1.3 0-1.8 1-1.8 2.2 0 1.3.6 2.1 1.9 2.1.4 0 .9-.1 1.2-.3l.1.4c-.5.3-1 .4-1.5.4m2.7-5h.5v5h-.5zM49.5 21.5h-.8v3.7c.2 0 .5.1.7.1 1.4 0 2.2-.8 2.2-1.9 0-1.2-.7-1.9-2.1-1.9m-.1 5.1h-.7v3.7h-1.6V20.2c.8 0 1.6-.1 2.6-.1 2.4 0 3.7 1.2 3.7 3-.1 2-1.7 3.5-4 3.5zm8.1-5.1h-.8v3.2h.8c1.3 0 2.1-.7 2.1-1.7s-.7-1.5-2.1-1.5m2.4 8.8L56.8 26h-.1v4.3h-1.6V20.2c.7 0 1.6-.1 2.7-.1 2.1 0 3.5.7 3.5 2.7 0 1.6-1.2 2.6-2.8 2.8.3.4.6.7.8 1.1l2.6 3.5h-2v.1zm7.6-8.9c-1.5 0-2.9 1.2-2.9 3.7 0 2.3.9 3.8 2.9 3.8 1.5 0 3-1.2 3-3.7s-1.1-3.8-3-3.8m-.1 8.9c-3 0-4.5-2-4.5-5.1 0-3.3 2.2-5.3 4.8-5.3 2.7 0 4.5 1.7 4.5 5 0 3.4-2.2 5.4-4.8 5.4zm14.3-8.4c-.8-.3-1.8-.5-2.7-.5-2 0-3.6 1.3-3.6 3.8 0 2.3 1.3 3.7 3.5 3.7.6 0 1.1-.1 1.5-.2v-3.6H82v4.7c-1 .4-2.2.6-3.4.6-3.1 0-5-1.9-5-4.9 0-3.1 2.1-5.4 5.5-5.4 1 0 1.9.1 2.8.4l-.2 1.4zm5.3-.4h-.8v3.2h.8c1.3 0 2.1-.7 2.1-1.7-.1-1-.8-1.5-2.1-1.5m2.3 8.8L86.2 26h-.1v4.3h-1.6V20.2c.7 0 1.6-.1 2.7-.1 2.1 0 3.5.7 3.5 2.7 0 1.6-1.2 2.6-2.8 2.8.3.4.6.7.8 1.1l2.6 3.5h-2v.1zm7.5-6.7c-.2-.5-.3-1-.4-1.5-.1.5-.3 1.1-.5 1.6l-1.1 3.1H98l-1.2-3.2zm2.3 6.7-.8-2.2h-4.1l-.8 2.2h-1.6l3.6-10h1.8l3.6 10h-1.7zm13 0-.8-5.3c-.2-1.1-.2-1.8-.3-2.5-.1.6-.3 1.2-.5 2l-1.9 5.8h-1.7l-1.8-5.4c-.3-.8-.5-1.6-.6-2.4-.1.9-.1 1.6-.3 2.6l-.6 5.2H102l1.5-10h1.9l1.9 5.8c.2.7.4 1.4.6 2 .1-.7.3-1.2.5-2l2-5.9h1.9l1.5 10h-1.7v.1zm9.4-8.8h-.8v3.2h.8c1.3 0 2.1-.7 2.1-1.7-.1-1-.8-1.5-2.1-1.5m2.3 8.8-3.1-4.3h-.1v4.3H119V20.2c.7 0 1.6-.1 2.7-.1 2.1 0 3.5.7 3.5 2.7 0 1.6-1.2 2.6-2.8 2.8.3.4.6.7.8 1.1l2.6 3.5h-2v.1zm3.9 0V20.2h5.3v1.4h-3.7v2.8h3.5v1.4h-3.5v3.1h3.7v1.4zm15.1-8.4c-.8-.3-1.8-.5-2.7-.5-2 0-3.6 1.3-3.6 3.8 0 2.3 1.3 3.7 3.5 3.7.6 0 1.1-.1 1.5-.2v-3.6h1.6v4.7c-1 .4-2.2.6-3.4.6-3.1 0-5-1.9-5-4.9 0-3.1 2.1-5.4 5.5-5.4 1 0 1.9.1 2.8.4l-.2 1.4zm2.8-1.7h1.6v10h-1.6zm8.2 1.2c-1.5 0-2.9 1.2-2.9 3.7 0 2.3.9 3.8 2.9 3.8 1.5 0 3-1.2 3-3.7s-1.1-3.8-3-3.8m-.1 8.9c-3 0-4.5-2-4.5-5.1 0-3.3 2.2-5.3 4.8-5.3 2.7 0 4.5 1.7 4.5 5 0 3.4-2.1 5.4-4.8 5.4zm12.8 0-3.4-5.7c-.4-.7-.8-1.4-1.1-2.1.1 1 .1 3 .1 4.4v3.4h-1.6V20.2h2.1l3.3 5.5c.4.7.8 1.5 1.2 2.3-.1-1.1-.1-3.3-.1-4.8v-3h1.6v10l-2.1.1zm8.5-6.7c-.2-.5-.3-1-.4-1.5-.1.5-.3 1.1-.5 1.6l-1.1 3.1h3.2l-1.2-3.2zm2.3 6.7-.8-2.2h-4l-.8 2.2h-1.6l3.6-10h1.8l3.6 10h-1.8zm3.3 0V20.2h1.6v8.6h3.4v1.5zm12.6 0-3.4-5.7c-.4-.7-.8-1.4-1.1-2.1.1 1 .1 3 .1 4.4v3.4h-1.6V20.2h2.1l3.3 5.5c.4.7.8 1.5 1.2 2.3-.1-1.1-.1-3.3-.1-4.8v-3h1.6v10l-2.1.1zm8.2-3.6v3.6h-1.6v-3.6l-3.1-6.4h1.8l1.5 3.2c.3.6.5 1.2.7 1.7.2-.6.5-1.2.8-1.9l1.4-3h1.7l-3.2 6.4z"/></svg>