<svg xmlns="http://www.w3.org/2000/svg" viewBox="0 0 781.34 942.89" style="enable-background:new 0 0 781.34 942.89" xml:space="preserve"><switch><g><path d="M203.28 125.85c-17.91-17.91-17.91-46.95 0-64.87s46.95-17.91 64.87 0 17.91 46.95 0 64.87-46.96 17.91-64.87 0zm-69.42 174.79c36.96 0 66.92-29.96 66.92-66.92s-29.96-66.92-66.92-66.92-66.92 29.96-66.92 66.92 29.96 66.92 66.92 66.92zm66.32 153.5c0-51.37-41.64-93.01-93.01-93.01-51.36 0-93 41.64-93 93.01 0 51.36 41.64 93 93 93 51.37 0 93.01-41.64 93.01-93zm561.62 57.21-59.58-108.16c-3.6-6.3-5.7-13.59-5.7-21.37.22-9.89 3.09-20.41 4.58-31.4C721.61 199.34 596.37 14.18 383.87 14.18c-23.48 0-42.52 19.04-42.52 42.52s19.04 42.52 42.52 42.52c2.27 0 4.56-.16 6.74-.51 1.76-.22 3.55-.34 5.37-.34 23.5 0 42.55 19.05 42.55 42.55 0 23.5-19.05 42.55-42.55 42.55-9.14 0-17.97-3.01-24.91-7.92-11.62-8.22-25.77-13.1-41.09-13.1-39.36 0-71.26 31.91-71.26 71.26s31.91 71.26 71.26 71.26c16.03 0 31.28-5.63 43.19-14.57 6.91-5 15.4-7.94 24.57-7.94 23.18 0 41.96 18.79 41.96 41.96s-18.79 41.96-41.96 41.96c-4.75 0-9.44-.59-13.7-2.04-10.36-3.83-21.51-6.03-33.21-6.03-52.92 0-95.83 42.9-95.83 95.83 0 40.1 24.65 74.4 59.6 88.69 17.72 7.59 30.15 25.18 30.15 45.68 0 27.44-22.24 49.68-49.68 49.68a49.81 49.81 0 0 1-33.56-12.95c-18.1-17.63-42.78-28.53-70.04-28.53-55.47 0-100.43 44.97-100.43 100.43s44.97 100.43 100.43 100.43c64.01 0 92.37-24.62 119.34-24.62 14.41 0 26.08 11.65 26.13 26.05 0 .04.01.06.01.1 0 73.35-28.68 110.44-108.89 110.44v19.17h325.2v-19.17c-80.22 0-108.89-37.1-108.89-110.44 0-.03.01-.06.01-.09 0-14.44 11.7-26.05 26.14-26.05 40.5 0 46.48 11.73 110.5 11.73 58.25 0 91.58-17.2 105.94-71.17 12.86-48.34 28.24-121.44 28.24-121.44 2.1-8.76 9.04-15.63 17.84-17.64 19.5-4.14 34.13-21.47 34.13-42.2 0-7.59-1.95-14.71-5.37-20.89z" style="fill:#fff"/></g></switch></svg>