<svg width="800" height="800" fill="none" xmlns="http://www.w3.org/2000/svg"><g clip-path="url(#a)"><path d="M400 0c220.914 0 400 179.086 400 400S620.914 800 400 800 0 620.914 0 400 179.086 0 400 0ZM277.502 105C248.659 105 225 128.66 225 157.551v484.663c0 28.843 23.66 52.502 52.551 52.454h244.947c28.842 0 52.502-23.612 52.502-52.502V157.502C575 128.659 551.34 105 522.449 105H277.502Zm122.474 480.393c18.764 0 34.026 15.212 34.026 34.025 0 18.765-15.262 34.025-34.026 34.025-18.813 0-34.026-15.213-34.026-34.025 0-18.764 15.261-34.025 34.026-34.025Zm128.712-377.068c4.703 0 8.542 3.887 8.542 8.542v335.987c0 4.655-3.887 8.542-8.542 8.542H271.312c-4.655 0-8.542-3.839-8.542-8.542V216.819c0-4.655 3.838-8.494 8.542-8.494h257.376Zm-74.482-60.804c.768 0 1.44.671 1.44 1.439v15.837c0 .768-.672 1.439-1.44 1.439H345.794c-.768 0-1.44-.623-1.44-1.439V148.96c0-.816.624-1.439 1.44-1.439h108.412Z" fill="#fff"/></g><defs><clipPath id="a"><path fill="#fff" d="M0 0h800v800H0z"/></clipPath></defs></svg>