<svg width="100" height="100" fill="none" xmlns="http://www.w3.org/2000/svg"><g clip-path="url(#a)"><path fill-rule="evenodd" clip-rule="evenodd" d="M50 0c13.81 0 26.31 5.599 35.352 14.648C94.4 23.698 100 36.198 100 50c0 13.802-5.599 26.31-14.648 35.352C76.302 94.4 63.802 100 50 100c-13.81 0-26.31-5.599-35.352-14.648C5.6 76.31 0 63.81 0 50c0-13.81 5.599-26.31 14.648-35.352C23.69 5.6 36.19 0 50 0ZM39.144 45.727c1.628 2.93 3.5 5.746 5.933 8.31 2.433 2.58 5.468 4.931 9.399 6.925a.93.93 0 0 0 .814.04c.374-.146.748-.447 1.13-.821.286-.285.652-.757 1.034-1.262 1.506-1.985 3.378-4.451 6.014-3.222.057.024.106.057.163.09l8.797 5.061c.025.016.057.04.09.057 1.164.797 1.644 2.026 1.652 3.418 0 1.424-.52 3.02-1.286 4.37-1.017 1.782-2.506 2.954-4.232 3.743-1.635.75-3.466 1.164-5.216 1.416-2.75.407-5.33.147-7.975-.667-2.58-.797-5.184-2.116-8.016-3.874l-.204-.13c-1.302-.813-2.71-1.684-4.093-2.71-5.054-3.808-10.205-9.318-13.55-15.38-2.816-5.095-4.346-10.588-3.516-15.82.464-2.873 1.701-5.486 3.841-7.203 1.872-1.506 4.395-2.336 7.658-2.043a1.1 1.1 0 0 1 .887.57l5.648 9.538c.822 1.074.928 2.132.48 3.19-.374.87-1.13 1.668-2.164 2.425-.302.26-.668.52-1.05.798-1.262.911-2.702 1.969-2.206 3.222l-.032-.04Z" fill="#fff"/></g><defs><clipPath id="a"><path fill="#fff" d="M0 0h100v100H0z"/></clipPath></defs></svg>