<svg data-name="Layer 1" xmlns="http://www.w3.org/2000/svg" viewBox="0 0 868.48 866.54"><path d="M577.07 626.23a13.91 13.91 0 0 0 17.53-16.75 34.56 34.56 0 0 0-1.64-4.71c-5.57-13.57-11.07-27.16-16.83-40.65a26.4 26.4 0 0 0-5.24-7.74c-8.82-9.09-17.85-18-26.81-26.92q-21.92-21.92-43.81-43.86c-1.19-1.19-3-2.12-2.82-4.81H503c11.16 0 22.33.12 33.49 0 41.83-.61 73.86-33.07 73.88-74.8v-88c0-37-26-67.57-62.33-73.38a110 110 0 0 0-15.93-1.13c-13.33-.16-26.66 0-40-.07-1.95 0-3.9-.18-6.52-.31-.1-7.11-.19-13.82-.29-20.88h-84.44c-1.2 6.95.24 14-1 21.2h-6.48c-13.5 0-27-.26-40.5.11a104.59 104.59 0 0 0-21.28 2.41c-32.82 7.85-56.08 37.64-56.11 71.54q-.11 118 0 236a79.65 79.65 0 0 0 .8 10.45c3.83 28.78 29.39 52.92 58.36 55.16 1.91.15 3.84 0 6.49 0V319.52c.16-7.2 3.19-10.22 10.52-10.28 8.5-.07 17 0 25.49 0 1.45 0 2.89.29 4.84.5.11 7 .21 13.76.31 20.28 5.76 1.27 117 1.11 121.28-.15.11-1.46.32-3.07.34-4.69.06-3.5 0-7 0-10.5.07-5.26.18-5.41 5.3-5.44 7.5-.05 15 0 22.5 0 10.84 0 13.21 2.36 13.22 13.2v79.49c0 1.34 0 2.67-.06 4-.46 5.79-3.46 8.8-9.2 9.18-2 .13-4 .07-6 .07H416.19c-16.76 0-30.36 11.73-32.6 28.06-1.56 11.35 2.22 20.95 10.29 29Q459.37 537.65 524.81 603a25.46 25.46 0 0 0 7.85 5.07c11.64 5 23.38 9.74 35.1 14.55a99.34 99.34 0 0 0 9.31 3.61ZM568.81 586c2.39 2.42 9.7 19.32 11.11 26.37L554 601.68c1.92-3.68 9.8-11.93 14.81-15.68Zm94.41-482c1.49.08 3 .2 5.34.35a34.32 34.32 0 0 1-2.87 3.06q-11.1 8.93-22.26 17.79c-4.39 3.5-4.38 3.5-2.94 8.72q3.6 13 7.17 26c.43 1.57.74 3.17 1.3 5.6-1.78-.89-2.93-1.32-3.94-2-7.94-5.21-16-10.26-23.72-15.78-3.48-2.49-6-2.21-9.28.13-7.34 5.2-14.95 10-22.47 15-1.34.89-2.76 1.65-5 3 .52-2.5.77-4.08 1.19-5.62 2.45-9 4.79-18 7.5-27 1-3.44.29-5.5-2.54-7.63-6.92-5.21-13.6-10.73-20.37-16.14-1.67-1.33-3.31-2.72-5-4.08l.29-1.09c5.44-.33 10.88-.69 16.32-1 5.65-.3 11.31-.66 17-.74 3 0 4.47-1.3 5.46-4 3.34-9.25 6.86-18.43 10.34-27.62.46-1.21 1.08-2.36 2-4.27.91 2 1.58 3.21 2.08 4.53 3.36 8.88 6.79 17.74 10 26.69 1.16 3.31 3 4.69 6.52 4.78 9.26.21 18.57.82 27.88 1.32Zm-1.76 630.36c1.72.08 3.44.34 6.23.64-2 1.79-3 2.81-4.15 3.72-7.4 5.95-14.76 11.94-22.27 17.75-2.47 1.91-3.12 3.83-2.23 6.85 2.64 8.94 5 18 7.48 27 .43 1.57.74 3.17 1.29 5.54a29.56 29.56 0 0 1-3.53-1.59c-8.23-5.37-16.51-10.67-24.6-16.24-2.92-2-5.18-2.05-8.09 0-7.53 5.22-15.25 10.17-22.9 15.21-1.36.89-2.78 1.69-4.17 2.53l-1-.66c1.41-5.27 2.8-10.54 4.23-15.79s2.67-10.33 4.34-15.39c1.1-3.34.46-5.49-2.41-7.66-7.18-5.42-14.12-11.15-21.13-16.78-1.38-1.11-2.67-2.34-5-4.38 3-.32 4.7-.59 6.43-.67 9.15-.44 18.3-.93 27.46-1.16 3.12-.08 4.83-1.23 5.89-4.17 3.21-8.94 6.62-17.8 10-26.68.56-1.48 1.26-2.9 2.34-5.34 1.08 2.55 1.76 4 2.34 5.54 3.29 8.73 6.67 17.42 9.78 26.22 1.11 3.15 2.82 4.39 6.2 4.45 9.17.07 18.32.6 27.47 1.03Zm-459.82-630c5.24-.33 10.49-.69 15.74-1 5.49-.3 11-.78 16.47-.67 4.12.08 5.84-1.83 7.09-5.43 2.95-8.49 6.24-16.87 9.42-25.29.58-1.52 1.27-3 2.27-5.38 1 2 1.64 3.25 2.13 4.54 3.36 8.88 6.78 17.74 10 26.69 1.15 3.24 2.81 4.78 6.45 4.87 9.32.21 18.64.83 27.95 1.31 1.59.09 3.17.27 6 .51-2.21 1.86-3.53 3-4.9 4.11q-10.35 8.26-20.74 16.49c-4.45 3.53-4.45 3.52-2.88 9.18q3.59 13 7.16 26c.39 1.42.66 2.88 1.18 5.16a37.06 37.06 0 0 1-3.83-1.85c-8.22-5.39-16.49-10.71-24.57-16.31-2.76-1.91-4.81-1.95-7.58 0-7.24 5-14.68 9.81-22 14.67-1.78 1.17-3.6 2.26-5.4 3.39l-.93-.8q2.69-9.84 5.36-19.68c1.1-4 2.08-8.07 3.39-12 1-3 .39-4.91-2.15-6.85-7.41-5.66-14.64-11.57-21.93-17.39a11.26 11.26 0 0 1-3.7-4.33ZM166 236.27c1.57.07 3.14.35 5.83.66-2.12 1.89-3.27 3-4.53 4-7.14 5.74-14.2 11.59-21.51 17.11-2.88 2.18-3.43 4.3-2.42 7.66 2.64 8.77 4.95 17.64 7.36 26.48.43 1.57.76 3.17 1.34 5.61a37.92 37.92 0 0 1-3.91-1.88c-7.38-4.83-14.73-9.73-22.11-14.59-7.54-5-5.56-4.35-12.53.09-7.16 4.57-14.18 9.35-21.29 14-1.19.78-2.47 1.41-4.65 2.64.62-2.72 1-4.47 1.43-6.17 2.42-8.84 4.75-17.7 7.38-26.48 1-3.2.39-5.19-2.32-7.24-7.42-5.65-14.63-11.58-21.91-17.41-1.14-.92-2.2-1.93-3.44-3 1.35-1.89 3.14-1.41 4.66-1.49 9.15-.45 18.3-1.05 27.46-1.13 4.07 0 5.89-1.63 7.16-5.33 2.91-8.51 6.22-16.88 9.4-25.29.58-1.52 1.29-3 2.34-5.4 1 2.11 1.73 3.33 2.22 4.63 3.37 8.88 6.81 17.73 10 26.68 1.18 3.31 3 4.62 6.59 4.68 9.1.18 18.25.73 27.45 1.17ZM387.53 61.34c-1.26-1-2.44-2.12-3.84-3.34 1.67-1.94 3.6-1.55 5.3-1.63 9-.43 18-.95 26.94-1.09 3.75-.05 5.63-1.45 6.85-5 2.93-8.49 6.22-16.86 9.39-25.28a12.67 12.67 0 0 1 3-5c.61 1.44 1.29 2.86 1.84 4.33 3.3 8.72 6.7 17.41 9.77 26.21 1.18 3.35 3 4.63 6.53 4.69 9 .15 18 .66 26.94 1.08 1.74.08 3.46.42 6.37.8-2.11 1.9-3.25 3-4.49 4-7.14 5.74-14.22 11.55-21.5 17.1-2.82 2.16-3.42 4.29-2.38 7.69 2.66 8.75 5 17.63 7.36 26.46.42 1.56.72 3.14 1.29 5.71-2.07-1.13-3.35-1.71-4.52-2.47q-11.28-7.38-22.53-14.83c-5.58-3.67-4.75-3.63-10.46.13-7.23 4.76-14.45 9.54-21.69 14.28-1.35.88-2.78 1.64-4.17 2.46l-.92-.78c1.07-4 2.13-8 3.23-12 1.73-6.26 3.24-12.59 5.3-18.74 1.29-3.87.17-6.11-2.9-8.43-7.02-5.2-13.83-10.83-20.71-16.35Zm-87.26 673c1.44.07 2.87.37 5.47.72-2.05 1.84-3.29 3.06-4.63 4.14-7.11 5.8-14.23 11.57-21.53 17.1-2.71 2.06-3.22 4.1-2.28 7.26 2.61 8.79 4.94 17.65 7.35 26.49.47 1.71.8 3.46 1.44 6.26-2.31-1.37-3.71-2.13-5-3-7.8-5.13-15.64-10.2-23.33-15.48-2.73-1.88-4.89-2-7.67 0-7.82 5.37-15.82 10.5-23.77 15.69-1.21.79-2.5 1.44-4.64 2.67.53-2.5.79-4.07 1.21-5.6 2.46-9 4.83-18 7.51-27 1-3.19.4-5.22-2.29-7.27-7.41-5.67-14.63-11.59-21.9-17.43-1.23-1-2.38-2.08-4.53-4 3.08-.29 4.83-.53 6.6-.61 9.15-.42 18.3-.92 27.46-1.14 3.14-.08 4.8-1.25 5.85-4.2 3.13-8.79 6.49-17.5 9.77-26.23.58-1.53 1.26-3 2.32-5.56 1 2.06 1.75 3.23 2.23 4.49q4.71 12.39 9.34 24.8c2.82 7.56 2.37 6.41 9.09 6.71 8.66.42 17.28.78 25.93 1.2Zm182.35 50.59a36.65 36.65 0 0 1 3.79.7c-1.94 1.73-3.18 3-4.54 4-7.14 5.73-14.25 11.5-21.5 17.1-2.44 1.89-3.17 3.76-2.26 6.82 2.67 8.94 5 18 7.48 27 .43 1.56.71 3.16 1.25 5.64-1.9-.94-3.07-1.37-4.08-2-8.09-5.28-16.23-10.49-24.18-16-2.74-1.89-4.8-2-7.59-.07-7.67 5.31-15.53 10.33-23.34 15.44-1.31.86-2.71 1.59-5 2.94.57-2.71.83-4.3 1.25-5.85 2.41-8.83 4.69-17.71 7.36-26.47 1-3.4.41-5.52-2.41-7.67-7.28-5.55-14.37-11.36-21.52-17.08-1.29-1-2.53-2.12-4.36-3.66a25.59 25.59 0 0 1 3.58-.83c10-.54 19.94-1.17 29.93-1.46 3.36-.1 5.06-1.31 6.17-4.47 3.1-8.79 6.48-17.49 9.78-26.21.57-1.52 1.26-3 2.21-5.26.91 1.81 1.57 2.88 2 4 3.42 9 6.9 18 10.13 27.15 1.16 3.25 2.83 4.7 6.46 4.79 9.77.26 19.59.93 29.39 1.46ZM67.47 462.58c-7.73 5.5-15.78 10.55-23.72 15.76-.93.61-2 1.09-4 2.19.53-2.62.77-4.32 1.22-6 2.36-8.68 4.58-17.4 7.25-26 1.2-3.86.24-6.1-2.89-8.43-6.81-5.07-13.36-10.49-20-15.79-1.53-1.22-3-2.54-5.26-4.49a36.7 36.7 0 0 1 4.45-.89c9.15-.45 18.29-1 27.45-1.16 4.48-.07 6.85-1.67 8.28-6.07 2.72-8.39 6.07-16.57 9.2-24.83.55-1.46 1.26-2.87 2.34-5.31 1.14 2.56 1.87 4 2.44 5.52 3 7.94 5.93 15.92 9 23.84 2.4 6.19 1 6.42 9.64 6.82s17.3.76 26 1.17c1.3.06 2.61.24 5.19.49-2.16 1.87-3.35 3-4.62 4-7 5.62-13.93 11.38-21.14 16.76-3.14 2.34-4.05 4.56-2.85 8.39 2.72 8.74 5 17.63 7.38 26.47.42 1.55.75 3.13 1.37 5.73-2.21-1.3-3.6-2-4.92-2.9-7.66-5-15.4-9.94-22.9-15.19-3.21-2.17-5.58-2.45-8.91-.08ZM166.25 601c1.42.07 2.82.36 5.4.71-2.16 1.91-3.42 3.12-4.78 4.21-6.89 5.53-13.66 11.22-20.77 16.44-3.3 2.42-3.8 4.78-2.67 8.48 2.63 8.61 4.88 17.32 7.26 26 .44 1.59.8 3.19 1.4 5.62a38.67 38.67 0 0 1-3.83-1.83c-8.22-5.39-16.49-10.72-24.59-16.28-2.72-1.87-4.78-2.05-7.59-.09-7.65 5.34-15.52 10.37-23.32 15.49-1.32.86-2.72 1.6-5.17 3 .67-3 1-4.79 1.46-6.49 2.41-8.84 4.76-17.7 7.35-26.49.89-3 .31-4.93-2.21-6.85-7.27-5.56-14.38-11.36-21.53-17.09-1.35-1.08-2.59-2.3-4.73-4.21 2.65-.33 4.06-.6 5.47-.67 8.82-.42 17.64-1 26.47-1.12 4.4-.08 6.91-1.5 8.35-6 2.7-8.39 6.07-16.58 9.2-24.84.56-1.49 1.26-2.93 2.34-5.43 1.14 2.53 1.86 4 2.43 5.48 3.07 8.1 6.38 16.13 9 24.37 1.55 4.8 4.21 6.43 9.07 6.45 8.68.14 17.34.7 25.99 1.14Zm536-360c-1.25-1-2.42-2.14-4.55-4 2.67-.33 4.21-.62 5.76-.7 9-.43 18-1 27-1.12 3.95-.05 6-1.34 7.3-5.13 3-8.67 6.36-17.19 9.61-25.75.56-1.49 1.26-2.91 2.37-5.42 1.15 2.74 1.89 4.37 2.51 6 3.24 8.57 6.55 17.12 9.59 25.76 1.11 3.16 2.83 4.39 6.2 4.46 9.15.19 18.3.72 27.45 1.15 1.63.07 3.24.27 4.86.41.14.37.29.74.44 1.11-1.22 1.06-2.4 2.17-3.66 3.18-7.15 5.74-14.21 11.59-21.53 17.09-2.91 2.19-3.39 4.36-2.39 7.69 2.66 8.94 5 18 7.5 27 .39 1.4.64 2.84 1.11 5a26.75 26.75 0 0 1-3.49-1.55c-7.8-5.11-15.77-10-23.29-15.5-4.1-3-7.07-2.67-11 .2-7.13 5.19-14.67 9.82-22.06 14.65-1.17.77-2.44 1.38-4.47 2.5.55-2.53.83-4.13 1.25-5.68 2.37-8.68 4.55-17.42 7.27-26 1.28-4 .26-6.39-3-8.83-7.03-5.34-13.86-10.98-20.75-16.52Zm93.9 360c1.41.07 2.81.35 5.42.69-2.31 2-3.71 3.34-5.21 4.53-6.89 5.51-13.73 11.1-20.77 16.42-2.84 2.15-3.46 4.3-2.44 7.69 2.65 8.76 5 17.63 7.38 26.46.42 1.55.67 3.15 1.27 6-2.38-1.4-3.76-2.14-5.07-3-7.93-5.21-15.91-10.36-23.74-15.73-2.46-1.69-4.34-1.61-6.74 0-7.85 5.33-15.81 10.49-23.75 15.7-1.36.9-2.78 1.7-4.9 3 .32-2 .41-3.23.73-4.4 2.57-9.48 5.08-19 7.87-28.4 1-3.23.28-5.15-2.4-7.19-7.68-5.85-15.14-12-22.67-18-1-.78-1.82-1.72-3.34-3.17 2.27-.25 3.69-.48 5.11-.54 8.81-.42 17.63-1 26.45-1.1 4.59-.06 7.24-1.46 8.74-6.14 2.64-8.24 6-16.25 9-24.35.58-1.52 1.27-3 2.36-5.59 1 2.06 1.77 3.21 2.24 4.46 3.31 8.72 6.75 17.4 9.73 26.23 1.29 3.8 3.37 5.21 7.24 5.31 9.23.12 18.34.66 27.52 1.12Zm52.25-181.6c-.27 2.39-2.1 3.18-3.41 4.23-7 5.66-14 11.34-21.14 16.77-3 2.23-3.75 4.46-2.65 8.06 2.68 8.76 5 17.63 7.39 26.46.41 1.53.64 3.1 1.18 5.7-2.38-1.38-3.82-2.11-5.16-3-7.23-4.76-14.61-9.33-21.61-14.4-3.81-2.76-6.68-2.91-10.57-.09-7.27 5.27-14.93 10-22.45 14.93-1.22.8-2.52 1.45-3.78 2.17l-.73-.78c2.82-10.25 5.47-20.56 8.55-30.74 1.15-3.77.54-6-2.69-8.44-7.49-5.55-14.65-11.54-21.93-17.37-1-.81-2-1.69-3.66-3.12A37.18 37.18 0 0 1 750 419c9.31-.44 18.62-1 27.94-1.16 4.25-.08 6.59-1.55 8-5.74 2.79-8.37 6.11-16.55 9.24-24.81.57-1.52 1.28-3 2.37-5.52 1.06 2.13 1.76 3.32 2.24 4.58 3.24 8.57 6.67 17.07 9.55 25.76 1.39 4.23 3.76 5.63 8 5.71 9 .18 18 .73 26.95 1.15 1.27.03 2.55.26 4.11.43Z" style="fill:#ffe600"/></svg>