<svg xmlns="http://www.w3.org/2000/svg" viewBox="0 0 68.03 68.03" style="enable-background:new 0 0 68.03 68.03" xml:space="preserve"><path d="m33.74 13.43 2.2 1.53-.78-2.56 2.14-1.62-2.68-.06-.88-2.53-.88 2.53-2.68.06 2.14 1.62-.78 2.56zm11.13 3.01 2.19 1.53-.77-2.57 2.13-1.62-2.67-.05-.88-2.53-.88 2.53-2.68.05 2.13 1.62-.77 2.57zm8.12 8.09 2.2 1.53-.78-2.56 2.13-1.62-2.67-.06-.88-2.53-.88 2.53-2.68.06 2.13 1.62-.77 2.56zm3.03 11.2 2.19 1.53-.77-2.56 2.13-1.62-2.67-.06-.88-2.53-.88 2.53-2.68.06 2.13 1.62-.77 2.56zm-3.01 11.15 2.2 1.53-.78-2.56 2.14-1.62-2.68-.06-.88-2.53-.88 2.53-2.68.06 2.14 1.62-.78 2.56zM44.84 55l2.2 1.53-.78-2.56 2.14-1.62-2.68-.06-.88-2.53-.88 2.53-2.68.06 2.14 1.62-.78 2.56zm-11.1 2.98 2.2 1.53-.78-2.56 2.14-1.62-2.68-.06-.88-2.53-.88 2.53-2.68.06 2.14 1.62-.78 2.56zm-11.17-2.9 2.2 1.53-.78-2.57 2.13-1.62-2.67-.05-.88-2.53-.88 2.53-2.68.05 2.13 1.62-.77 2.57zm-8.18-8.2 2.2 1.53-.77-2.56 2.13-1.62-2.68-.06-.88-2.53-.88 2.53-2.67.06 2.13 1.62-.78 2.56zm-3-11.12 2.2 1.53-.78-2.57 2.14-1.62-2.68-.05-.88-2.53-.88 2.53-2.68.05 2.14 1.62-.78 2.57zm3.06-11.2 2.19 1.53-.77-2.57L18 21.9l-2.68-.05-.87-2.53-.88 2.53-2.68.05 2.13 1.62-.77 2.57zm8.14-8.2 2.2 1.53-.78-2.57 2.14-1.61-2.68-.06-.88-2.53-.88 2.53-2.68.06 2.14 1.61-.78 2.57z" style="fill:#fff"/></svg>