<svg version="1.1" id="Layer_1" xmlns="http://www.w3.org/2000/svg" x="0" y="0" viewBox="0 0 207.7 165.3" style="enable-background:new 0 0 207.7 165.3" xml:space="preserve"><style>.st0{fill:none;stroke:#fff;stroke-width:8;stroke-miterlimit:10}</style><circle class="st0" cx="135.8" cy="72.5" r="45.3"/><path class="st0" d="M103.6 104.3c-5.9 2.8-12.5 4.4-19.5 4.4-25 0-45.3-20.3-45.3-45.3v-1.6c-14.4 7.6-24.1 22.7-24.1 40.1 0 25 20.3 45.3 45.3 45.3 23.7 0 43.2-18.2 45.1-41.4-.6-.5-1.1-1-1.5-1.5z"/><path class="st0" d="M90.5 72.5c0-18 10.5-33.6 25.7-40.9C108 23.3 96.6 18.2 84 18.2c-25 0-45.3 20.3-45.3 45.3S59 108.8 84 108.8c7 0 13.6-1.6 19.6-4.4-8.1-8.2-13.1-19.5-13.1-31.9z"/><path d="M111.9 82.8c0-.6.1-1.1.2-1.6s.4-.9.7-1.4l11-15.6c.3-.5.6-.9.9-1.3.3-.3.5-.6.8-.9l.7-.7v-.1c-.2 0-.4.1-.7.1h-10.7c-1.6 0-2.4-.8-2.4-2.4v-1.7c0-1.6.8-2.4 2.4-2.4h18.6c1.6 0 2.4.8 2.4 2.3v.9c0 .6-.1 1.1-.2 1.6s-.4.9-.7 1.4l-11 15.7c-.6.9-1.2 1.6-1.7 2.1l-.7.7v.1h.6c.2 0 .5 0 .8-.1h10.8c1.6 0 2.4.8 2.4 2.4v1.7c0 1.6-.8 2.4-2.4 2.4h-19.4c-1.6 0-2.4-.8-2.4-2.4v-.8zm28.7-5.7-.3.1c-.5.2-.9.2-1.4-.2-.4-.3-.6-1-.6-1.9v-2c0-1.3.4-2.1 1.1-2.6l1.1-.6V57.4c0-1.6.8-2.4 2.4-2.4h2.8c1.6 0 2.4.8 2.4 2.4v8.2l1.5-.9c.8-.5 1.5-.6 2.1-.3.5.3.8 1 .8 1.9v2c0 1.3-.5 2.2-1.6 2.9l-2.7 1.6v6.7h10.3c1.6 0 2.4.8 2.4 2.4v1.7c0 1.6-.8 2.4-2.4 2.4H143c-1.6 0-2.4-.8-2.4-2.4v-6.5z" style="fill:#fff"/></svg>